<svg xmlns="http://www.w3.org/2000/svg" width="25.746" height="19.22" viewBox="0 0 25.746 19.22">
  <g id="Group_2419" data-name="Group 2419" transform="translate(-64.533 -419)">
    <g id="Group_2384" data-name="Group 2384" transform="translate(-228.252 32.679)">
      <path id="Path_2778" data-name="Path 2778" d="M309.171,399.683a1.308,1.308,0,0,1,.462-.493A1.264,1.264,0,0,1,310.3,399h.195a5.781,5.781,0,1,0-1.551,1.641,2.408,2.408,0,0,1,.047-.472A1.764,1.764,0,0,1,309.171,399.683Zm-3.562.488a4.24,4.24,0,1,1,4.239-4.241h0A4.241,4.241,0,0,1,305.609,400.171Z" fill="#fff"/>
      <path id="Path_2779" data-name="Path 2779" d="M316.966,399a19.9,19.9,0,0,0,1.162-1.835,2.54,2.54,0,0,0,.256-.737h-1.608c-.252.455-.53.9-.819,1.327V399Z" fill="#fff"/>
      <path id="Path_2780" data-name="Path 2780" d="M307.33,396.613l-.158-.005a2.434,2.434,0,0,1-2.237-2.391.41.41,0,0,0-.411-.4.384.384,0,0,0-.227.07,2.419,2.419,0,1,0,3.36,3.359.4.4,0,0,0,.063-.3A.409.409,0,0,0,307.33,396.613Z" fill="#fff"/>
      <path id="Path_2781" data-name="Path 2781" d="M316.776,395.435a1.006,1.006,0,0,1,0,.991h1.608a2.523,2.523,0,0,0-.271-1.738,19.514,19.514,0,0,0-4.032-5.03,12.413,12.413,0,0,0-16.937,0,19.557,19.557,0,0,0-4.04,5.025,2.54,2.54,0,0,0-.266,1.747h1.608a1.018,1.018,0,0,1,0-1c1.28-2.278,4.931-7.579,11.177-7.579S315.5,393.151,316.776,395.435Z" fill="#101210"/>
      <path id="Path_2782" data-name="Path 2782" d="M314.957,396.448a.263.263,0,0,0-.039-.142.318.318,0,0,0-.122-.108.774.774,0,0,0-.22-.068,2.027,2.027,0,0,0-.342-.024,2.055,2.055,0,0,0-.337.024.764.764,0,0,0-.224.068.311.311,0,0,0-.122.108.263.263,0,0,0-.039.142V400H310.3a.266.266,0,0,0-.142.039.336.336,0,0,0-.112.127.792.792,0,0,0-.078.22,1.4,1.4,0,0,0-.03.308,1.451,1.451,0,0,0,.03.317.792.792,0,0,0,.078.22.336.336,0,0,0,.112.127.283.283,0,0,0,.151.039h3.2v3.554a.219.219,0,0,0,.039.132.3.3,0,0,0,.122.093.886.886,0,0,0,.224.063,1.941,1.941,0,0,0,.337.025,1.916,1.916,0,0,0,.342-.025.9.9,0,0,0,.22-.063.31.31,0,0,0,.122-.093.219.219,0,0,0,.039-.132V401.4h3.2a.294.294,0,0,0,.147-.039.33.33,0,0,0,.117-.127.865.865,0,0,0,.078-.22,1.524,1.524,0,0,0,.029-.317,1.733,1.733,0,0,0-.024-.308.683.683,0,0,0-.078-.22.375.375,0,0,0-.118-.127.263.263,0,0,0-.141-.039h-3.213Z" fill="#101210"/>
      <path id="Path_2783" data-name="Path 2783" d="M311.28,402.4a10.982,10.982,0,0,1-5.657,1.6c-6.31,0-9.918-5.294-11.176-7.57h-1.608a2.514,2.514,0,0,0,.256.742,19.175,19.175,0,0,0,4.013,5.032,12.64,12.64,0,0,0,8.507,3.334,12.472,12.472,0,0,0,6.9-2.111V402.4Z" fill="#fff"/>
      <path id="Path_2784" data-name="Path 2784" d="M313.012,401.9H313l.011.01Z" fill="#fff"/>
    </g>
  </g>
</svg>
