<svg xmlns="http://www.w3.org/2000/svg" width="25.65" height="20.135" viewBox="0 0 25.65 20.135">
  <g id="added_to_watchlist" data-name="added to watchlist" transform="translate(-333.911 -399.704)">
    <path id="Path_2785" data-name="Path 2785" d="M350.974,409.314h0a4.24,4.24,0,1,0-4.239,4.241A4.24,4.24,0,0,0,350.974,409.314Zm-6.2,1.316a2.418,2.418,0,0,1,.645-3.359.384.384,0,0,1,.227-.07.41.41,0,0,1,.411.4,2.434,2.434,0,0,0,2.237,2.391l.158.005a.406.406,0,0,1,.327.633,2.42,2.42,0,0,1-4,0Z" fill="none"/>
    <path id="Path_2786" data-name="Path 2786" d="M346.278,414.49a1.864,1.864,0,0,1,2.587.105l.065.062a5.781,5.781,0,1,0-3.214.341c.008-.008.015-.018.024-.026Zm-3.784-5.174a4.24,4.24,0,0,1,8.48,0h0a4.24,4.24,0,0,1-8.48,0Z" fill="#d8a45a"/>
    <path id="Path_2787" data-name="Path 2787" d="M357.4,410.654a1.83,1.83,0,0,1,.6.439l.486.536c.024.027.042.059.064.087.246-.381.481-.769.7-1.165a2.54,2.54,0,0,0,.256-.737H357.9C357.744,410.1,357.574,410.377,357.4,410.654Z" fill="#d8a45a"/>
    <path id="Path_2788" data-name="Path 2788" d="M345.381,417.291c-5.465-.69-8.644-5.37-9.808-7.475h-1.608a2.512,2.512,0,0,0,.256.742,19.175,19.175,0,0,0,4.013,5.032,12.641,12.641,0,0,0,8.507,3.334c.026,0,.051,0,.077,0l-1.213-1.325A1.857,1.857,0,0,1,345.381,417.291Z" fill="#d8a45a"/>
    <path id="Path_2789" data-name="Path 2789" d="M348.137,411.275a2.417,2.417,0,0,0,.646-.645.406.406,0,0,0-.327-.633l-.158-.005a2.434,2.434,0,0,1-2.237-2.391.41.41,0,0,0-.411-.4.384.384,0,0,0-.227.07,2.419,2.419,0,0,0,2.714,4Z" fill="#d8a45a"/>
    <path id="Path_2790" data-name="Path 2790" d="M355.207,403.042a12.413,12.413,0,0,0-16.937,0,19.579,19.579,0,0,0-4.04,5.025,2.54,2.54,0,0,0-.266,1.747h1.608a1.023,1.023,0,0,1,0-1c1.28-2.278,4.931-7.579,11.177-7.579s9.877,5.3,11.153,7.584a1.006,1.006,0,0,1,0,.991h1.608a2.522,2.522,0,0,0-.271-1.738A19.514,19.514,0,0,0,355.207,403.042Z" fill="#0a5923"/>
    <path id="Path_2791" data-name="Path 2791" d="M347.229,415.067c.118-.01.234-.026.35-.043l-.017,0A.847.847,0,0,0,347.229,415.067Z" fill="#184821"/>
    <path id="Path_2793" data-name="Path 2793" d="M320.147,415.235a.474.474,0,0,1-.352-.154l-2.86-3.124a.459.459,0,0,1,.036-.645l.548-.49a.51.51,0,0,1,.115-.075c.107-.01.213-.025.319-.041a.594.594,0,0,1,.226.152l.131.124,1.923,2.109,6.569-5.874a.45.45,0,0,1,.293-.106.488.488,0,0,1,.115.014.45.45,0,0,1,.257.133l.491.54a.484.484,0,0,1,.09.17.475.475,0,0,1,.027.164.44.44,0,0,1-.148.31l-7.467,6.676A.475.475,0,0,1,320.147,415.235Z" transform="translate(29.788 4.605)" fill="#111612"/>
  </g>
</svg>
