<svg xmlns="http://www.w3.org/2000/svg" width="49" height="42" viewBox="0 0 49 42">
  <g id="alert_icon_" data-name="alert icon " transform="translate(-226.732 -523.77)">
    <path id="Polygon_11" data-name="Polygon 11" d="M21.045,5.923a4,4,0,0,1,6.91,0L45.491,35.985A4,4,0,0,1,42.036,42H6.964a4,4,0,0,1-3.455-6.015Z" transform="translate(226.732 523.77)" fill="#de6865"/>
    <path id="Path_2322" data-name="Path 2322" d="M4,7A2.147,2.147,0,0,0,6.229,4.775,2.112,2.112,0,0,0,4,2.615a2.112,2.112,0,0,0-2.227,2.16A2.147,2.147,0,0,0,4,7ZM5.963-16.992H2.075v6.248l.9,9.77h2.06l.931-9.77Z" transform="translate(247.23 554.839)" fill="#fff"/>
  </g>
</svg>
