<svg xmlns="http://www.w3.org/2000/svg" width="33.694" height="36.361" viewBox="0 0 33.694 36.361">
  <g id="Group_2118" data-name="Group 2118" transform="translate(-26.478 -30.181)">
    <g id="alpha_matter" data-name="alpha matter" transform="translate(26.478 30.181)">
      <g id="Group_1059" data-name="Group 1059">
        <path id="Path_1502" data-name="Path 1502" d="M72.334,284.407H65.79V271.334a.927.927,0,0,1,.935-.92H71.4a.927.927,0,0,1,.935.92v13.073Z" transform="translate(-60.273 -264.712)" fill="#ffd54f"/>
        <path id="Path_1503" data-name="Path 1503" d="M99.5,270.414H96.7a.927.927,0,0,1,.935.92v13.073h2.8V271.334A.927.927,0,0,0,99.5,270.414Z" transform="translate(-88.373 -264.712)" fill="#ffca28"/>
        <path id="Path_1504" data-name="Path 1504" d="M231.888,320.685h-6.544V311.17a.927.927,0,0,1,.935-.92h4.675a.927.927,0,0,1,.935.92Z" transform="translate(-211.487 -300.989)" fill="#f05656"/>
        <path id="Path_1505" data-name="Path 1505" d="M259.055,310.25h-2.8a.927.927,0,0,1,.935.92v9.515h2.8V311.17A.927.927,0,0,0,259.055,310.25Z" transform="translate(-240.109 -300.989)" fill="#e84c4c"/>
        <g id="_1685513" data-name="1685513" transform="translate(0 3.03)">
          <path id="Path_1531" data-name="Path 1531" d="M64.5,16.135v-2.35a11.83,11.83,0,0,0-23.657,0v2.35H38.669v-2.35a14.007,14.007,0,0,1,28.01,0v2.35Zm0,0" transform="translate(-36.112 0.001)" fill="#c97e4b"/>
          <path id="Path_1532" data-name="Path 1532" d="M27.5,253.18s-.419,9.233,4.093,15.209a4.154,4.154,0,0,0,3.316,1.64H49.556a4.154,4.154,0,0,0,3.316-1.64c4.511-5.976,4.093-15.209,4.093-15.209Zm0,0" transform="translate(-25.668 -236.698)" fill="#dd9666"/>
          <path id="Path_1533" data-name="Path 1533" d="M312.025,253.18h-4.008s.419,9.233-4.092,15.209a4.155,4.155,0,0,1-3.316,1.64h4.008a4.154,4.154,0,0,0,3.316-1.64C312.443,262.413,312.025,253.18,312.025,253.18Zm0,0" transform="translate(-280.729 -236.698)" fill="#c97e4b"/>
          <path id="Path_1534" data-name="Path 1534" d="M59.784,263.015q.167-.514.308-1.025l-.176.01q-2.039.111-4.1.187l.241-2.877q2.343-.09,4.679-.224c.059-.348.11-.688.154-1.018l-.1.007q-2.318.134-4.645.225l.385-4.591a.5.5,0,0,0-.368-.525h-.282a.506.506,0,0,0-.368.442l-.4,4.712q-1.787.063-3.577.1l.159-3.808a.506.506,0,0,0-.489-.523h-.021a.508.508,0,0,0-.51.482l-.162,3.869q-1.779.029-3.56.033v-3.882a.511.511,0,0,0-1.022,0v3.882q-1.78,0-3.56-.031l-.147-3.5a.507.507,0,0,0-.51-.482h-.021A.506.506,0,0,0,41.2,255l.144,3.443q-1.789-.036-3.576-.1l-.317-3.777a.511.511,0,0,0-1.018.083l.307,3.656q-2.378-.092-4.747-.228c.044.329.1.669.154,1.017q2.334.133,4.678.221l.239,2.846q-2.137-.081-4.285-.2.141.51.306,1.024,2.036.108,4.063.184l.245,2.922q-1.563-.053-3.094-.125.265.524.567,1.033,1.294.058,2.612.1l.225,2.685a4.188,4.188,0,0,0,1.044.228l-.242-2.881q1.592.047,3.206.075l.118,2.822h1.023l-.118-2.807q1.592.021,3.193.024v2.783h1.022v-2.783q1.6,0,3.193-.025l-.118,2.808h1.023l.118-2.824q1.613-.028,3.206-.076l-.242,2.884a4.192,4.192,0,0,0,1.045-.228L55.4,267.1q1.319-.045,2.615-.1.3-.508.566-1.033-1.53.073-3.1.127l.243-2.894q2.041-.074,4.057-.182Zm-21.932-3.662q1.765.06,3.534.095l.119,2.845q-1.7-.035-3.414-.094Zm.568,6.774-.245-2.919q1.69.057,3.372.092l.122,2.9q-1.634-.028-3.249-.077Zm7.507.117q-1.62,0-3.235-.025l-.122-2.9q1.683.028,3.357.034Zm0-3.9q-1.694-.006-3.4-.035l-.119-2.847q1.758.028,3.518.031Zm4.257,3.87q-1.613.022-3.235.026v-2.889q1.683,0,3.356-.024Zm.163-3.893q-1.693.024-3.4.024V259.5q1.759,0,3.518-.033Zm4.109,3.8q-1.613.049-3.249.078l.121-2.886q1.692-.03,3.371-.084Zm.327-3.9q-1.7.055-3.413.086l.12-2.864q1.769-.036,3.534-.1Zm0,0" transform="translate(-29.876 -236.701)" fill="#c97e4b" opacity="0.49"/>
          <path id="Path_1535" data-name="Path 1535" d="M369.533,388.361q-1.931.1-3.884.178a20.284,20.284,0,0,1-2.114,4.967l.454-.013-.242,2.884a4.186,4.186,0,0,0,1.045-.228l.225-2.689q1.319-.045,2.615-.1.3-.508.566-1.033h0q-1.53.073-3.1.127l.243-2.894q2.041-.074,4.057-.181.168-.518.31-1.033Zm0,0" transform="translate(-339.494 -363.063)" fill="#b26e40"/>
          <path id="Path_1536" data-name="Path 1536" d="M409.554,328.295q-1.963.114-3.933.2-.07.494-.16,1.014,2.024-.084,4.042-.2c.058-.346.109-.684.153-1.012Zm0,0" transform="translate(-378.647 -306.922)" fill="#b26e40"/>
          <path id="Path_1537" data-name="Path 1537" d="M32.337,240.338a238.76,238.76,0,0,1-30.98,0,1.429,1.429,0,1,1,.19-2.852,235.907,235.907,0,0,0,30.6,0,1.444,1.444,0,0,1,1.542,1.313v0a1.437,1.437,0,0,1-1.353,1.538Zm0,0" transform="translate(0 -222.019)" fill="#ff8c51"/>
          <path id="Path_1538" data-name="Path 1538" d="M452.8,238.825v0a1.444,1.444,0,0,0-1.542-1.314q-1.233.08-2.468.147l.115,2.858q1.271-.069,2.542-.151A1.437,1.437,0,0,0,452.8,238.825Zm0,0" transform="translate(-419.105 -222.045)" fill="#f26e3b"/>
        </g>
        <path id="Path_1506" data-name="Path 1506" d="M380.641,225.506H374.1V207.464a.91.91,0,0,1,.935-.884h4.675a.91.91,0,0,1,.935.884Z" transform="translate(-352.464 -206.58)" fill="#4bcc61"/>
        <path id="Path_1507" data-name="Path 1507" d="M407.809,206.581H405a.91.91,0,0,1,.935.884v18.043h2.8V207.465A.911.911,0,0,0,407.809,206.581Z" transform="translate(-380.566 -206.581)" fill="#47c25d"/>
      </g>
      <g id="_1608821_rupee_icon" data-name="1608821_rupee_icon" transform="translate(-433.005 -103.943)" fill="#fff">
        <path d="M 452.011962890625 138.0555114746094 L 450.66748046875 138.0555114746094 C 450.4421691894531 138.0555114746094 450.2439270019531 137.9612884521484 450.1073913574219 137.7898101806641 C 448.7193298339844 136.1513061523438 447.5741577148438 134.8587188720703 446.7038269042969 133.9481048583984 C 446.5722351074219 133.8147888183594 446.4998779296875 133.6381683349609 446.4998779296875 133.4496307373047 L 446.4998779296875 132.5876922607422 C 446.4998779296875 132.3953704833984 446.5762329101562 132.2144622802734 446.7148742675781 132.0782775878906 C 446.8505249023438 131.9445343017578 447.0303039550781 131.8704986572266 447.2203979492188 131.8704986572266 L 447.9925537109375 131.8704986572266 C 448.3956604003906 131.8704986572266 448.7347717285156 131.8234558105469 449.0045776367188 131.7304077148438 L 447.2203979492188 131.7304077148438 C 447.0265808105469 131.7304077148438 446.845947265625 131.6579742431641 446.7117614746094 131.5264129638672 C 446.5747985839844 131.3914947509766 446.4998779296875 131.2095642089844 446.4998779296875 131.0132446289062 L 446.4998779296875 130.3209686279297 C 446.4998779296875 130.1249542236328 446.5746765136719 129.9431610107422 446.71044921875 129.8090667724609 C 446.7456359863281 129.7745971679688 446.7838134765625 129.7442169189453 446.8245239257812 129.7180938720703 C 446.7854309082031 129.6922454833984 446.7485656738281 129.6623840332031 446.7143859863281 129.6287536621094 C 446.576171875 129.4928131103516 446.4998779296875 129.3119659423828 446.4998779296875 129.1197814941406 L 446.4998779296875 128.2171936035156 C 446.4998779296875 128.0209045410156 446.5747985839844 127.8389892578125 446.7108154296875 127.7049407958984 C 446.8454895019531 127.5725784301758 447.0263061523438 127.4999694824219 447.2203979492188 127.4999694824219 L 452.9563598632812 127.4999694824219 C 453.1508483886719 127.4999694824219 453.3318176269531 127.5727615356445 453.4659423828125 127.7049407958984 C 453.6021423339844 127.8393478393555 453.677001953125 128.0211791992188 453.677001953125 128.2171936035156 L 453.677001953125 128.9094085693359 C 453.677001953125 129.1053924560547 453.6021423339844 129.2872009277344 453.4662170410156 129.4213562011719 C 453.3640747070312 129.5218200683594 453.2354431152344 129.587890625 453.0945434570312 129.6139831542969 C 453.2407531738281 129.63818359375 453.3743286132812 129.705078125 453.4793395996094 129.8082580566406 C 453.6161193847656 129.9435272216797 453.6908569335938 130.1252288818359 453.6908569335938 130.3209686279297 L 453.6908569335938 131.0132446289062 C 453.6908569335938 131.2092742919922 453.615966796875 131.3911285400391 453.4800109863281 131.5252838134766 C 453.3452453613281 131.6577911376953 453.1643981933594 131.7304077148438 452.97021484375 131.7304077148438 L 452.2105102539062 131.7304077148438 C 452.0383605957031 132.3147277832031 451.7141418457031 132.8084564208984 451.2432250976562 133.2021179199219 C 450.8893737792969 133.4978942871094 450.4688415527344 133.7221527099609 449.986572265625 133.8728790283203 C 450.6811828613281 134.6405639648438 451.544921875 135.6473541259766 452.5650329589844 136.8784790039062 C 452.7598876953125 137.1036529541016 452.7947692871094 137.4001007080078 452.6578674316406 137.6595916748047 C 452.5368347167969 137.9079895019531 452.2970886230469 138.0555114746094 452.011962890625 138.0555114746094 Z" stroke="none"/>
        <path d="M 447.2203979492188 127.9999694824219 C 447.156005859375 127.9999694824219 447.103271484375 128.0202941894531 447.061767578125 128.0610656738281 C 447.0204467773438 128.1017913818359 446.9998779296875 128.1538543701172 446.9998779296875 128.2171936035156 L 446.9998779296875 129.1197814941406 C 446.9998779296875 129.1786193847656 447.0215454101562 129.2295379638672 447.0652465820312 129.2725067138672 C 447.1088256835938 129.3154296875 447.1605834960938 129.3369445800781 447.2203979492188 129.3369445800781 L 448.2200927734375 129.3369445800781 C 449.1898193359375 129.3369445800781 449.8056640625 129.5925750732422 450.0676879882812 130.1038360595703 L 447.2203979492188 130.1038360595703 C 447.156005859375 130.1038360595703 447.103271484375 130.1241912841797 447.061767578125 130.1648559570312 C 447.0204467773438 130.2056579589844 446.9998779296875 130.2576904296875 446.9998779296875 130.3209686279297 L 446.9998779296875 131.0132446289062 C 446.9998779296875 131.0765991210938 447.0204467773438 131.1286468505859 447.061767578125 131.1693572998047 C 447.103271484375 131.2100372314453 447.156005859375 131.2304077148438 447.2203979492188 131.2304077148438 L 450.1641845703125 131.2304077148438 C 450.0630493164062 131.6013946533203 449.8275756835938 131.8841400146484 449.4575805664062 132.0787506103516 C 449.0874633789062 132.2732849121094 448.5992431640625 132.3704986572266 447.9925537109375 132.3704986572266 L 447.2203979492188 132.3704986572266 C 447.1605834960938 132.3704986572266 447.1088256835938 132.3920288085938 447.0652465820312 132.4349975585938 C 447.0215454101562 132.4779205322266 446.9998779296875 132.5289459228516 446.9998779296875 132.5876922607422 L 446.9998779296875 133.4496307373047 C 446.9998779296875 133.5084381103516 447.0204467773438 133.5581665039062 447.061767578125 133.5989379882812 C 447.9441528320312 134.5219116210938 449.0886840820312 135.8135833740234 450.4951782226562 137.4740295410156 C 450.5365600585938 137.5284118652344 450.5939331054688 137.5555114746094 450.66748046875 137.5555114746094 L 452.011962890625 137.5555114746094 C 452.1084594726562 137.5555114746094 452.1751098632812 137.5148010253906 452.2117919921875 137.4333038330078 C 452.2578735351562 137.3519287109375 452.2486572265625 137.2750244140625 452.1842651367188 137.2026214599609 C 450.84228515625 135.5828704833984 449.7874755859375 134.3703308105469 449.0198364257812 133.5649108886719 C 449.8010864257812 133.4745025634766 450.4354248046875 133.2256927490234 450.9225463867188 132.8184967041016 C 451.4097290039062 132.4112548828125 451.7062377929688 131.8819274902344 451.8119506835938 131.2304077148438 L 452.97021484375 131.2304077148438 C 453.0346069335938 131.2304077148438 453.0874633789062 131.2100372314453 453.1288452148438 131.1693572998047 C 453.1701049804688 131.1286468505859 453.1908569335938 131.0765991210938 453.1908569335938 131.0132446289062 L 453.1908569335938 130.3209686279297 C 453.1908569335938 130.2576904296875 453.1701049804688 130.2056579589844 453.1288452148438 130.1648559570312 C 453.0874633789062 130.1241912841797 453.0346069335938 130.1038360595703 452.97021484375 130.1038360595703 L 451.7913208007812 130.1038360595703 C 451.7132568359375 129.7283020019531 451.5660400390625 129.4025573730469 451.35009765625 129.1265563964844 L 452.9563598632812 129.1265563964844 C 453.020751953125 129.1265563964844 453.0736083984375 129.1061859130859 453.114990234375 129.0654754638672 C 453.15625 129.0247650146484 453.177001953125 128.9727172851562 453.177001953125 128.9094085693359 L 453.177001953125 128.2171936035156 C 453.177001953125 128.1538543701172 453.15625 128.1017913818359 453.114990234375 128.0610656738281 C 453.0736083984375 128.0202941894531 453.020751953125 127.9999694824219 452.9563598632812 127.9999694824219 L 447.2203979492188 127.9999694824219 M 447.2203979492188 126.9999694824219 L 452.9563598632812 126.9999694824219 C 453.2830200195312 126.9999694824219 453.5886535644531 127.1238555908203 453.81689453125 127.3488159179688 C 454.0492858886719 127.5781555175781 454.177001953125 127.8863830566406 454.177001953125 128.2171936035156 L 454.177001953125 128.9094085693359 C 454.177001953125 129.1633758544922 454.1017456054688 129.4039916992188 453.9618530273438 129.6056365966797 C 454.1109924316406 129.8119964599609 454.1908569335938 130.0594635009766 454.1908569335938 130.3209686279297 L 454.1908569335938 131.0132446289062 C 454.1908569335938 131.3441162109375 454.0631408691406 131.65234375 453.8312072753906 131.8811950683594 C 453.6016540527344 132.1068420410156 453.2963562011719 132.2304077148438 452.97021484375 132.2304077148438 L 452.5646667480469 132.2304077148438 C 452.3486328125 132.7557525634766 452.013916015625 133.2095642089844 451.5639038085938 133.5857391357422 C 451.3413391113281 133.7717895507812 451.0967102050781 133.9328002929688 450.8311157226562 134.0683441162109 C 451.4365234375 134.7550811767578 452.14404296875 135.5867767333984 452.9471435546875 136.5559844970703 C 453.2708129882812 136.9337463378906 453.3307800292969 137.4486083984375 453.1038208007812 137.8857421875 C 452.8984985351562 138.3001098632812 452.4843444824219 138.5555114746094 452.011962890625 138.5555114746094 L 450.66748046875 138.5555114746094 C 450.2947692871094 138.5555114746094 449.9522705078125 138.3930053710938 449.7219543457031 138.1083679199219 C 448.3433227539062 136.4810638427734 447.2071838378906 135.1985778808594 446.3448181152344 134.2961273193359 C 446.1222229003906 134.0690307617188 445.9998779296875 133.7692718505859 445.9998779296875 133.4496307373047 L 445.9998779296875 132.5876922607422 C 445.9998779296875 132.2976837158203 446.1013793945312 132.0233459472656 446.2878112792969 131.8039703369141 C 446.1009521484375 131.584228515625 445.9998779296875 131.3077850341797 445.9998779296875 131.0132446289062 L 445.9998779296875 130.3209686279297 C 445.9998779296875 130.1046752929688 446.054443359375 129.8980255126953 446.1570129394531 129.7169494628906 C 446.0544738769531 129.5367279052734 445.9998779296875 129.3324584960938 445.9998779296875 129.1197814941406 L 445.9998779296875 128.2171936035156 C 445.9998779296875 127.8859710693359 446.1277160644531 127.5775756835938 446.3598327636719 127.3488159179688 C 446.5891418457031 127.1235046386719 446.8943786621094 126.9999694824219 447.2203979492188 126.9999694824219 Z" stroke="none" fill="#c97e4b"/>
      </g>
    </g>
  </g>
</svg>
