<svg xmlns="http://www.w3.org/2000/svg" width="39.7" height="41.963" viewBox="0 0 39.7 41.963">
  <g id="alpha_verse" data-name="alpha verse" transform="translate(-193.15 -108.459)">
    <path id="Path_1570" data-name="Path 1570" d="M63.094,238.124l-5.736,17.634a1.827,1.827,0,0,1-1.737,1.262H35.255a1.827,1.827,0,0,1-1.734-1.254l-5.832-17.642Z" transform="translate(167.608 -107.2)" fill="#7ed63e"/>
    <path id="Path_1571" data-name="Path 1571" d="M103.979,238.124l-5.736,17.634a1.827,1.827,0,0,1-1.737,1.262H79.575a1.827,1.827,0,0,1-1.734-1.254l-5.832-17.642Z" transform="translate(126.725 -107.2)" fill="#a4e276"/>
    <path id="Path_1572" data-name="Path 1572" d="M56.424,230.609a.6.6,0,0,0-.487-.248H24a.6.6,0,1,0,0,1.2H55.109l-2.17,6.671H49.381l.973-4.571a.6.6,0,0,0-1.177-.251l-1.026,4.821H44.095l.411-4.643a.6.6,0,0,0-1.2-.106l-.42,4.749h-4.05v-4.7a.6.6,0,0,0-1.2,0v4.7H33.717l-.42-4.749a.6.6,0,0,0-1.2.106l.411,4.643h-.736a.6.6,0,1,0,0,1.2h.843l.379,4.282H29.621l-.911-4.282h.655a.6.6,0,1,0,0-1.2h-.911l-1.026-4.821a.6.6,0,0,0-1.177.251l.973,4.571H23.57l-2.205-6.671h.228a.6.6,0,1,0,0-1.2H20.532a.6.6,0,0,0-.572.791l5.832,17.642a2.424,2.424,0,0,0,2.306,1.666H48.465a2.423,2.423,0,0,0,2.309-1.677l1.787-5.494a.6.6,0,1,0-1.145-.372l-.262.8H48.213l.911-4.282h3.423l-.386,1.188a.6.6,0,1,0,1.145.372l3.2-9.85A.6.6,0,0,0,56.424,230.609Zm-13.645,8.83-.379,4.282H38.836v-4.282Zm.339,9.817.383-4.331h3.223l-.922,4.331Zm-1.209,0H38.836v-4.331h3.458Zm-7.218,0-.383-4.331h3.324v4.331Zm-.869-9.817h3.809v4.282H34.2Zm-.723,5.486.383,4.331H30.8l-.922-4.331Zm-5.622-5.486.911,4.282H25.383l-1.415-4.282Zm-.543,8.977-1.154-3.491h2.865l.922,4.331H28.1A1.222,1.222,0,0,1,26.935,248.416Zm23.828-3.491-1.134,3.485a1.221,1.221,0,0,1-1.165.846h-1.43l.922-4.331h2.806Zm-3.781-1.2H43.609l.379-4.282h3.906Z" transform="translate(174.766 -100.038)" fill="#5eac24" opacity="0.64"/>
    <path id="Path_1573" data-name="Path 1573" d="M39.7,207.466a2.584,2.584,0,0,1-2.577,2.576H2.577a2.577,2.577,0,0,1,0-5.153H37.123a2.585,2.585,0,0,1,2.573,2.433C39.7,207.37,39.7,207.418,39.7,207.466Z" transform="translate(193.15 -76.541)" fill="#4e901e"/>
    <path id="Path_1574" data-name="Path 1574" d="M70.365,207.321H35.819a2.585,2.585,0,0,1-2.572-2.433H67.792A2.585,2.585,0,0,1,70.365,207.321Z" transform="translate(162.48 -76.54)" fill="#5eac24"/>
    <path id="Path_1575" data-name="Path 1575" d="M236.953,47.465V59.7a1.748,1.748,0,1,1-3.5,0V47.465a1.746,1.746,0,0,1,2.982-1.234l.053.055A1.738,1.738,0,0,1,236.953,47.465Z" transform="translate(-22.205 70.288)" fill="#47821c"/>
    <path id="Path_1576" data-name="Path 1576" d="M267.572,54.234V66.469a.68.68,0,1,1-.922,0V54.234a.679.679,0,1,1,.922,0Z" transform="translate(-52.824 63.519)" fill="#4e901e"/>
    <circle id="Ellipse_172" data-name="Ellipse 172" cx="0.519" cy="0.519" r="0.519" transform="translate(212.48 129.517)" fill="#a4e276"/>
    <g id="Group_1062" data-name="Group 1062" transform="translate(198.708 108.459)">
      <path id="Path_1577" data-name="Path 1577" d="M71.665,283.177H65.79V271.253a.839.839,0,0,1,.839-.839h4.2a.839.839,0,0,1,.839.839v11.923Z" transform="translate(-59.346 -263.288)" fill="#ffd54f"/>
      <path id="Path_1584" data-name="Path 1584" d="M71.665,290.3H65.79V271.722c0-.722.376-1.308.839-1.308h4.2c.463,0,.839.585.839,1.308V290.3Z" transform="translate(-65.79 -270.414)" fill="#4f95ff"/>
      <path id="Path_1578" data-name="Path 1578" d="M99.213,270.414H96.7a.839.839,0,0,1,.839.839v11.924h2.518V271.253A.839.839,0,0,0,99.213,270.414Z" transform="translate(-87.734 -263.288)" fill="#ffca28"/>
      <path id="Path_1583" data-name="Path 1583" d="M99.213,270.414H96.7c.464,0,.839.585.839,1.307V290.3h2.518V271.721C100.052,271,99.676,270.414,99.213,270.414Z" transform="translate(-94.177 -270.414)" fill="#3d7fe4"/>
      <path id="Path_1579" data-name="Path 1579" d="M231.219,319.767h-5.875v-8.678a.839.839,0,0,1,.839-.839h4.2a.839.839,0,0,1,.839.839Z" transform="translate(-208.867 -299.878)" fill="#f05656"/>
      <path id="Path_1580" data-name="Path 1580" d="M258.768,310.25H256.25a.839.839,0,0,1,.839.839v8.678h2.518v-8.678A.839.839,0,0,0,258.768,310.25Z" transform="translate(-237.724 -299.878)" fill="#e84c4c"/>
      <path id="Path_1581" data-name="Path 1581" d="M379.972,223.842H374.1V207.386a.823.823,0,0,1,.839-.806h4.2a.823.823,0,0,1,.839.806Z" transform="translate(-350.639 -203.953)" fill="#4bcc61"/>
      <path id="Path_1582" data-name="Path 1582" d="M407.522,206.581H405a.823.823,0,0,1,.839.806v16.456h2.518V207.387A.823.823,0,0,0,407.522,206.581Z" transform="translate(-379.028 -203.954)" fill="#47c25d"/>
    </g>
    <g id="Path_1585" data-name="Path 1585" transform="translate(214.366 149.395)" fill="#fff">
      <path d="M -0.3749866187572479 -1.456429243087769 L -0.8749866485595703 -1.456429243087769 L -1.782776594161987 -1.456429243087769 L -2.282776594161987 -1.456429243087769 L -2.282776594161987 -1.956429243087769 L -2.282776594161987 -2.684344053268433 C -2.736899137496948 -2.746548891067505 -3.118979215621948 -2.837239265441895 -3.442096710205078 -2.95906925201416 C -3.879596710205078 -3.124019145965576 -4.264486789703369 -3.35724925994873 -4.586106777191162 -3.652259349822998 C -4.904486656188965 -3.944309234619141 -5.155026435852051 -4.26685905456543 -5.330736637115479 -4.610949039459229 C -5.501616477966309 -4.945609092712402 -5.630316734313965 -5.348989009857178 -5.713276386260986 -5.809909343719482 L -5.807546615600586 -6.333639144897461 L -5.278966426849365 -6.395129203796387 L -2.766996622085571 -6.68735933303833 L -2.542656421661377 -6.713456630706787 C -3.091521739959717 -6.880678653717041 -3.500087976455688 -7.03045654296875 -3.782566547393799 -7.167629241943359 C -4.210326671600342 -7.37532901763916 -4.582126617431641 -7.7069091796875 -4.887626647949219 -8.153149604797363 C -5.201446533203125 -8.611529350280762 -5.36056661605835 -9.168159484863281 -5.36056661605835 -9.807599067687988 C -5.36056661605835 -10.68386936187744 -5.048416614532471 -11.42797946929932 -4.432796478271484 -12.01924896240234 C -3.916486978530884 -12.51515293121338 -3.194705009460449 -12.8240327835083 -2.282776594161987 -12.94025039672852 L -2.282776594161987 -13.09862899780273 L -2.282776594161987 -13.59862899780273 L -1.782776594161987 -13.59862899780273 L -0.8749866485595703 -13.59862899780273 L -0.3749866187572479 -13.59862899780273 L -0.3749866187572479 -13.09862899780273 L -0.3749866187572479 -12.93747043609619 C 0.4314811527729034 -12.8324499130249 1.081309795379639 -12.59153079986572 1.561213374137878 -12.21894931793213 C 2.144213438034058 -11.76631927490234 2.52837347984314 -11.14318943023682 2.703043460845947 -10.36686897277832 L 2.820053339004517 -9.846798896789551 L 2.293553352355957 -9.763289451599121 L -0.01944661885499954 -9.396439552307129 L -0.1785314828157425 -9.371208190917969 C 0.8568766713142395 -9.058254241943359 1.565981984138489 -8.725618362426758 1.980363368988037 -8.359719276428223 C 2.650503396987915 -7.758639335632324 2.988813400268555 -6.990729331970215 2.988813400268555 -6.074709415435791 C 2.988813400268555 -5.541839122772217 2.867613315582275 -5.044059276580811 2.628573417663574 -4.595209121704102 C 2.396733283996582 -4.159879207611084 2.094613313674927 -3.789929151535034 1.730603337287903 -3.495639324188232 C 1.371243357658386 -3.205109357833862 0.9815433621406555 -2.99061918258667 0.5723333954811096 -2.858119249343872 C 0.2970925569534302 -2.768990039825439 -0.02017244324088097 -2.704999208450317 -0.3749866187572479 -2.666857957839966 L -0.3749866187572479 -1.956429243087769 L -0.3749866187572479 -1.456429243087769 Z" stroke="none"/>
      <path d="M -1.782776594161987 -13.09862899780273 L -1.782776594161987 -12.483078956604 C -2.802486658096313 -12.42911911010742 -3.570376634597778 -12.15430927276611 -4.086456775665283 -11.6586389541626 C -4.602526664733887 -11.1629695892334 -4.86056661605835 -10.54595947265625 -4.86056661605835 -9.807599067687988 C -4.86056661605835 -9.268339157104492 -4.732066631317139 -8.811009407043457 -4.475056648254395 -8.435609817504883 C -4.218056678771973 -8.060218811035156 -3.914426565170288 -7.787479400634766 -3.564156532287598 -7.617399215698242 C -3.213896751403809 -7.447309017181396 -2.620096683502197 -7.246079444885254 -1.782776594161987 -7.013689041137695 L -1.782776594161987 -4.81658935546875 C -2.072936534881592 -4.957529067993164 -2.28123664855957 -5.119189262390137 -2.407656669616699 -5.301579475402832 C -2.53408670425415 -5.483959197998047 -2.634606599807739 -5.780339241027832 -2.709216594696045 -6.190709114074707 L -5.221186637878418 -5.898479461669922 C -5.146576881408691 -5.483959197998047 -5.034656524658203 -5.130589485168457 -4.885436534881592 -4.838349342346191 C -4.736206531524658 -4.546119689941406 -4.52376651763916 -4.273569107055664 -4.248116493225098 -4.020719528198242 C -3.972456455230713 -3.76785945892334 -3.644996643066406 -3.569929122924805 -3.265706539154053 -3.426918983459473 C -2.886426687240601 -3.283919334411621 -2.392116546630859 -3.185469627380371 -1.782776594161987 -3.131579399108887 L -1.782776594161987 -1.956429481506348 L -0.8749866485595703 -1.956429481506348 L -0.8749866485595703 -3.131579399108887 C -0.3651266098022461 -3.152309417724609 0.0659632682800293 -3.219718933105469 0.4183034896850586 -3.333799362182617 C 0.7706434726715088 -3.44788932800293 1.103293418884277 -3.631449699401855 1.416253566741943 -3.884459495544434 C 1.729213237762451 -4.137478828430176 1.986213207244873 -4.452739715576172 2.187253475189209 -4.830239295959473 C 2.388293266296387 -5.207738876342773 2.488813400268555 -5.62256908416748 2.488813400268555 -6.074708938598633 C 2.488813400268555 -6.846229553222656 2.209023475646973 -7.482969284057617 1.649423599243164 -7.98491907119751 C 1.226613283157349 -8.358249664306641 0.3851432800292969 -8.712949752807617 -0.8749866485595703 -9.049029350280762 L -0.8749866485595703 -10.84780883789062 C -0.6594367027282715 -10.73173904418945 -0.5050265789031982 -10.61671924591064 -0.411766529083252 -10.50271987915039 C -0.3184967041015625 -10.38872909545898 -0.2138266563415527 -10.18457984924316 -0.09776663780212402 -9.89026927947998 L 2.215233325958252 -10.25711917877197 C 2.066013336181641 -10.92034912109375 1.745793342590332 -11.44263935089111 1.254593372344971 -11.82399940490723 C 0.7633934020996094 -12.20534896850586 0.05353331565856934 -12.42503929138184 -0.8749866485595703 -12.483078956604 L -0.8749866485595703 -13.09862899780273 L -1.782776594161987 -13.09862899780273 M -1.782776594161987 -9.280059814453125 C -2.045026540756226 -9.371249198913574 -2.228716611862183 -9.484529495239258 -2.333876609802246 -9.619899749755859 C -2.439026594161987 -9.755269050598145 -2.491596698760986 -9.914599418640137 -2.491596698760986 -10.0978889465332 C -2.491596698760986 -10.27282905578613 -2.439786672592163 -10.42485904693604 -2.336156606674194 -10.55396938323975 C -2.232526540756226 -10.68308925628662 -2.04806661605835 -10.7913990020752 -1.782776594161987 -10.87889862060547 L -1.782776594161987 -9.280059814453125 M -0.8749866485595703 -4.754408836364746 L -0.8749866485595703 -6.749829292297363 C -0.4721865653991699 -6.608889579772949 -0.2015366554260254 -6.456289291381836 -0.06303668022155762 -6.292038917541504 C 0.07547330856323242 -6.127789497375488 0.1447234153747559 -5.947929382324219 0.1447234153747559 -5.752459526062012 C 0.1447234153747559 -5.527909278869629 0.06286334991455078 -5.325179100036621 -0.1008765697479248 -5.144289016723633 C -0.2646067142486572 -4.96338939666748 -0.5226466655731201 -4.833429336547852 -0.8749866485595703 -4.754408836364746 M -2.782776594161987 -14.09862899780273 L 0.1250133514404297 -14.09862899780273 L 0.1250133514404297 -13.3613862991333 C 0.8252108097076416 -13.22017478942871 1.409066200256348 -12.97006607055664 1.867833614349365 -12.61388969421387 C 2.544913291931152 -12.08821868896484 2.990033149719238 -11.36913871765137 3.19084358215332 -10.47661972045898 L 3.424863338470459 -9.436469078063965 L 1.693350315093994 -9.16185188293457 C 1.937313556671143 -9.025897979736328 2.141988754272461 -8.884030342102051 2.311303615570068 -8.734529495239258 L 2.317143440246582 -8.729329109191895 C 3.083653450012207 -8.041789054870605 3.488813400268555 -7.123829364776611 3.488813400268555 -6.074708938598633 C 3.488813400268555 -5.458999633789062 3.34786319732666 -4.882149696350098 3.069893360137939 -4.360189437866211 C 2.806313514709473 -3.865249633789062 2.46147346496582 -3.443559646606445 2.044953346252441 -3.106819152832031 C 1.637743473052979 -2.777608871459961 1.194103479385376 -2.533888816833496 0.7263634204864502 -2.382429122924805 C 0.5386645793914795 -2.321659088134766 0.3389596939086914 -2.27196216583252 0.1250133514404297 -2.232978820800781 L 0.1250133514404297 -0.9564294815063477 L -2.782776594161987 -0.9564294815063477 L -2.782776594161987 -2.260272026062012 C -3.093286752700806 -2.320967674255371 -3.370255470275879 -2.397624015808105 -3.618496656417847 -2.491219520568848 C -4.115976333618164 -2.678789138793945 -4.55523681640625 -2.945448875427246 -4.924086570739746 -3.28378963470459 C -5.286506652832031 -3.616239547729492 -5.573146820068359 -3.986248970031738 -5.776036262512207 -4.383559226989746 C -5.969266891479492 -4.761989593505859 -6.113706588745117 -5.212069511413574 -6.205366611480713 -5.721339225769043 L -6.393906593322754 -6.768798828125 L -4.460754871368408 -6.993687629699707 C -4.776248931884766 -7.222517967224121 -5.057387351989746 -7.516023635864258 -5.300206661224365 -7.870699405670166 C -5.672036647796631 -8.413799285888672 -5.86056661605835 -9.065469741821289 -5.86056661605835 -9.807599067687988 C -5.86056661605835 -10.82521915435791 -5.496726512908936 -11.69065952301025 -4.779166698455811 -12.37985897064209 C -4.271142482757568 -12.86778926849365 -3.602066278457642 -13.19731903076172 -2.782776594161987 -13.36437797546387 L -2.782776594161987 -14.09862899780273 Z" stroke="none" fill="#5eac24"/>
    </g>
  </g>
</svg>
