<svg xmlns="http://www.w3.org/2000/svg" width="48" height="37.242" viewBox="0 0 48 37.242">
  <g id="icon_alpha_genie" data-name="icon_alpha genie" transform="translate(0 0)">
    <path id="Path_1539" data-name="Path 1539" d="M116.138,198.621h-8.276c0,1.034-4.414,5.793-10.759,5.793l1.655,2.483h26.483l1.655-2.483C120.551,204.414,116.138,199.655,116.138,198.621Z" transform="translate(-88 -185.379)" fill="#ffc83c"/>
    <path id="Path_1540" data-name="Path 1540" d="M268.138,206.068c1.51.461,4.238-1.166,6.149-2.515-3.769-1.419-6.149-4.175-6.149-4.934h-3.31C264.828,200,265.656,205.31,268.138,206.068Z" transform="translate(-240 -185.379)" fill="#ffe159"/>
    <path id="Path_1541" data-name="Path 1541" d="M180.138,385.655V384h-8.276v1.655a3.31,3.31,0,0,1-3.31,3.31h-.828v.828h16.552v-.828h-.828A3.31,3.31,0,0,1,180.138,385.655Z" transform="translate(-152 -353.379)" fill="#ffb432"/>
    <g id="Group_1060" data-name="Group 1060" transform="translate(9.103 15.373)">
      <path id="Path_1542" data-name="Path 1542" d="M264.032,388.966H263.2a3.31,3.31,0,0,1-3.31-3.31V384h-4.138c0,.931-.362,4.707,1.655,5.793h6.621Z" transform="translate(-240.859 -368.752)" fill="#ffc83c"/>
      <path id="Path_1543" data-name="Path 1543" d="M107.034,226.676a28.561,28.561,0,0,1-9.931-1.655c.729,2.855,4.154,12.414,14.9,12.414,8.759,0,13.448-6.828,17.379-10.759A29.435,29.435,0,0,1,136,221.71C126.482,219.745,122.034,226.676,107.034,226.676Z" transform="translate(-97.103 -221.359)" fill="#ffc83c"/>
    </g>
    <path id="Path_1544" data-name="Path 1544" d="M176.275,438.62H159.724a.828.828,0,0,1-.828-.828h0a.828.828,0,0,1,.828-.828h16.552a.828.828,0,0,1,.828.828h0A.828.828,0,0,1,176.275,438.62Z" transform="translate(-144 -401.379)" fill="#ffe159"/>
    <path id="Path_1545" data-name="Path 1545" d="M167.172,438.62h-7.448a.828.828,0,0,1-.828-.828h0a.828.828,0,0,1,.828-.828h7.448a.828.828,0,0,1,.828.828h0A.828.828,0,0,1,167.172,438.62Z" transform="translate(-144 -401.379)" fill="#ffc83c"/>
    <path id="Path_1546" data-name="Path 1546" d="M107.034,226.677a28.561,28.561,0,0,1-9.931-1.655c2.069,5.276,12.039,10.487,19.862,5.793,8.276-4.966,13.345-9.31,19.034-9.1C126.482,219.746,122.034,226.677,107.034,226.677Z" transform="translate(-88 -205.987)" fill="#ffb432"/>
    <path id="Path_1547" data-name="Path 1547" d="M212.137,182.62h-8.276a.828.828,0,0,1-.828-.828h0a.828.828,0,0,1,.828-.828h8.276a.828.828,0,0,1,.828.828h0A.828.828,0,0,1,212.137,182.62Z" transform="translate(-184 -169.379)" fill="#ffc83c"/>
    <path id="Path_1548" data-name="Path 1548" d="M208,182.62h-4.138a.828.828,0,0,1-.828-.828h0a.828.828,0,0,1,.828-.828H208a.828.828,0,0,1,.828.828h0A.828.828,0,0,1,208,182.62Z" transform="translate(-184 -169.379)" fill="#ffb432"/>
    <path id="Path_1549" data-name="Path 1549" d="M216,110.345h0a4.138,4.138,0,0,0-4.138,4.138v2.483h8.276v-2.483A4.138,4.138,0,0,0,216,110.345Z" transform="translate(-192 -105.379)" fill="#ffc83c"/>
    <path id="Path_1550" data-name="Path 1550" d="M245.079,110.345a4.1,4.1,0,0,0-1.13.176c2.224,1.034,1.957,5.288,1.957,6.445h3.31v-2.483A4.138,4.138,0,0,0,245.079,110.345Z" transform="translate(-221.079 -105.379)" fill="#ffe159"/>
    <circle id="Ellipse_170" data-name="Ellipse 170" cx="1.241" cy="1.241" r="1.241" transform="translate(22.759 2.897)" fill="#ffb432"/>
    <path id="Path_1551" data-name="Path 1551" d="M256.621,90.112a1.231,1.231,0,1,0,.621,1.069A1.236,1.236,0,0,0,256.621,90.112Z" transform="translate(-232 -87.043)" fill="#ffc83c"/>
    <path id="Path_1552" data-name="Path 1552" d="M11.586,79.723a.825.825,0,0,1-.373-.089C10.754,79.4,0,73.88,0,67.309c0-3.285,2.737-5.63,7.511-6.434a.92.92,0,0,0,.765-.913.93.93,0,0,0-.929-.929H6.621a.828.828,0,0,1,0-1.655h.726a2.583,2.583,0,0,1,.438,5.129c-2.29.386-6.13,1.522-6.13,4.8,0,2.84,2.755,5.617,5.065,7.446a35.261,35.261,0,0,0,5.239,3.4.828.828,0,0,1-.374,1.566Z" transform="translate(0 -57.378)" fill="#ffb432"/>
  </g>
</svg>
