<?xml version="1.0" encoding="UTF-8"?><svg id="a" xmlns="http://www.w3.org/2000/svg" viewBox="0 0 449 460.8"><path d="m224.5,460.8C100.5,460.8,0,360.3,0,236.3h224.5v224.5Z" style="fill:#ececec;"/><path d="m449,236.3c0,124-100.5,224.5-224.5,224.5v-224.5h224.5Z" style="fill:#ffe159;"/><path d="m224.5,11.8c124,0,224.5,100.5,224.5,224.5h-224.5V11.8Z" style="fill:#fff;"/><rect x="385.2" y="11.8" width="29.9" height="179.6" style="fill:#47c25d;"/><rect x="350.5" y="41.7" width="29.9" height="149.7" style="fill:#ffc83c;"/><rect x="315.8" y="71.7" width="29.9" height="119.7" style="fill:#47c25d;"/><rect x="281.1" y="101.6" width="29.9" height="89.8" style="fill:#ffc83c;"/><rect x="246.4" y="131.5" width="29.9" height="59.9" style="fill:#47c25d;"/><path d="m7.7,294.6c20.5-22,49.6-35.9,82.1-35.9,62,0,112.3,50.3,112.3,112.3,0,32.5-13.9,61.6-35.9,82.1C89.1,432.4,28.4,371.7,7.7,294.6Z" style="fill:#f5f5f5;"/><circle cx="89.8" cy="371" r="89.8" style="fill:#ffc83c;"/><path d="m89.8,445.8c47.1,0,85.6-36.2,89.4-82.3.2,2.5.4,5,.4,7.5,0,49.6-40.2,89.8-89.8,89.8S0,420.6,0,371c0-2.5.2-5,.4-7.5,3.8,46.1,42.3,82.3,89.4,82.3Z" style="fill:#ffb432;"/><circle cx="344.2" cy="356" r="15" style="fill:#fff;"/><circle cx="284.4" cy="296.2" r="15" style="fill:#fff;"/><rect x="250.78" y="318.61" width="127" height="15" transform="translate(-138.55 317.74) rotate(-45)"/><path d="m344.2,333.6c-12.4,0-22.5,10.1-22.5,22.5s10.1,22.5,22.5,22.5,22.5-10.1,22.5-22.5-10.1-22.5-22.5-22.5Zm0,29.9c-4.1,0-7.5-3.4-7.5-7.5s3.4-7.5,7.5-7.5,7.5,3.4,7.5,7.5-3.3,7.5-7.5,7.5Z"/><path d="m284.4,318.6c12.4,0,22.5-10.1,22.5-22.5s-10.1-22.5-22.5-22.5-22.5,10.1-22.5,22.5,10.1,22.5,22.5,22.5Zm0-29.9c4.1,0,7.5,3.4,7.5,7.5s-3.4,7.5-7.5,7.5-7.5-3.4-7.5-7.5,3.3-7.5,7.5-7.5Z"/><path d="m116.8,342.6h-19.9c3.5,2.8,6,6.8,6.8,12.3h13.1v6h-13c-1.2,12.3-11,20.1-26.4,20.6,9.4,9.8,19.7,22.1,29.8,34.5h-11.6c-9.4-11.3-18.2-21.8-29.5-33.9v-7.5h6.6c13,0,20-5.4,20.9-13.7h-27.5v-6h27.1c-1.7-7-8.1-10.5-18.6-10.5h-8.6v-7.8h50.8v6Z"/><path d="m7.7,228.8C7.7,113.2,101.4,19.5,217,19.5v209.3H7.7Z" style="fill:#fb5968;"/><path d="m83.6,3.6c-2.5,0-5.1.1-7.7.4-31.8,3.5-57,29.8-59.3,61.7-1.6,21.4,6.9,40.8,21.2,54.1,8.1,7.6,13.1,17.9,13.1,29v5.8c0,4.8,3.9,8.7,8.7,8.7h24" style="fill:#ffe159;"/><path d="m83.6,166.9h-24c-6.8,0-12.3-5.5-12.3-12.3v-5.8c0-9.8-4.3-19.2-12-26.4-15.7-14.7-23.9-35.5-22.3-57C15.4,32,42.3,4,75.5.4c2.7-.3,5.4-.4,8.1-.4,2,0,3.6,1.6,3.6,3.6s-1.6,3.6-3.6,3.6c-2.4,0-4.8.1-7.3.4-29.7,3.3-53.9,28.4-56,58.4-1.4,19.3,5.9,38,20,51.2,9.2,8.6,14.3,19.8,14.3,31.7v5.8c0,2.8,2.3,5,5,5h24c2,0,3.6,1.6,3.6,3.6s-1.6,3.6-3.6,3.6h0Z" style="fill:#fff;"/><path d="m103.6,163.3h-40c-3,0-5.4,2.4-5.4,5.4s2.4,5.4,5.4,5.4h39.9c3,0,5.4-2.4,5.4-5.4.1-3-2.3-5.4-5.3-5.4Z" style="fill:#ffc83c;"/><path d="m103.6,177.8h-40c-5,0-9.1-4.1-9.1-9.1s4.1-9.1,9.1-9.1h39.9c5,0,9.1,4.1,9.1,9.1s-4,9.1-9,9.1Zm-40-10.9c-1,0-1.8.8-1.8,1.8s.8,1.8,1.8,1.8h39.9c1,0,1.8-.8,1.8-1.8s-.8-1.8-1.8-1.8h-39.9Z" style="fill:#fff;"/><path d="m103.6,174.2h-40c-3,0-5.4,2.4-5.4,5.4s2.4,5.4,5.4,5.4h39.9c3,0,5.4-2.4,5.4-5.4.1-3-2.3-5.4-5.3-5.4Z" style="fill:#ffc83c;"/><path d="m103.6,188.7h-40c-5,0-9.1-4.1-9.1-9.1s4.1-9.1,9.1-9.1h39.9c5,0,9.1,4.1,9.1,9.1s-4,9.1-9,9.1Zm-40-10.9c-1,0-1.8.8-1.8,1.8s.8,1.8,1.8,1.8h39.9c1,0,1.8-.8,1.8-1.8s-.8-1.8-1.8-1.8h-39.9Z" style="fill:#fff;"/><path d="m94.7,199.6h-22.1c-3.9,0-7.1-3.2-7.1-7.1v-7.4h36.3v7.4c0,3.9-3.2,7.1-7.1,7.1Z" style="fill:#ffc83c;"/><path d="m94.7,203.2h-22.1c-5.9,0-10.7-4.8-10.7-10.7v-7.4c0-2,1.6-3.6,3.6-3.6h36.3c2,0,3.6,1.6,3.6,3.6v7.4c0,5.9-4.8,10.7-10.7,10.7Zm-25.6-14.5v3.8c0,1.9,1.6,3.5,3.5,3.5h22.1c1.9,0,3.5-1.6,3.5-3.5v-3.8h-29.1Z" style="fill:#fff;"/><path d="m33.2,55.5c-.5,0-.9-.1-1.4-.3-1.9-.8-2.7-2.9-2-4.7,2.5-6.1,6-11.7,10.4-16.6,1.3-1.5,3.6-1.6,5.1-.3s1.6,3.6.3,5.1c-3.9,4.3-6.9,9.2-9.1,14.6-.5,1.3-1.8,2.2-3.3,2.2h0Z" style="fill:#fff;"/><path d="m53.1,31.1c-1.2,0-2.3-.6-3-1.6-1.1-1.7-.7-3.9,1-5,3.9-2.6,8.1-4.8,12.4-6.4,1.9-.7,4,.3,4.7,2.2.7,1.9-.3,4-2.2,4.7-3.8,1.4-7.5,3.3-10.9,5.6-.6.3-1.3.5-2,.5h0Z" style="fill:#fff;"/><path d="m83.6,166.9c-2,0-3.6-1.6-3.6-3.6v-67.7l-15.6-18.7-15.7,6.3c-1.9.7-4-.2-4.7-2-.7-1.9.2-4,2-4.7l18.2-7.3c1.5-.6,3.1-.2,4.1,1l18.2,21.8c.5.7.8,1.5.8,2.3v69c-.1,2-1.7,3.6-3.7,3.6Z" style="fill:#fff;"/><path d="m98.1,141.5c5.2,2.7,13.4,3.4,18-1.2,1.3-1.3,2.4-2.9,3.1-4.5,6.6,4.5,15.8,3.6,22-2.5,5.5-5.5,6.7-13.4,3.8-19.7,1.1-.7,2.2-1.6,3.2-2.5,6.1-6.1,7.3-15.3,3.3-22.1,2.7-1.2,5.2-2.9,7.4-5.2,9.7-9.7,10.1-24.9.9-34.1-4-4-9.2-6.2-14.5-6.5,1.7-5.8.4-12.1-3.9-16.4-4.9-4.9-12.2-5.9-18.5-3.2,1.5-4.8.6-10.1-3.1-13.8-5.3-5.3-16-4.6-21.6,1l-.1,130.7h0Z" style="fill:#ffc83c;"/><path d="m107,147.3c-3.7,0-7.5-1-10.5-2.5-1.2-.6-2-1.9-2-3.2V10.8c0-1,.4-1.9,1.1-2.6,7.2-7.2,20.2-7.7,26.8-1,3.1,3.1,4.7,7.2,4.9,11.5,6.2-.8,12.3,1.2,16.7,5.6,4.1,4.1,6.1,10,5.6,15.9,4.9,1.1,9.3,3.5,12.8,7,10.5,10.5,10.1,28.1-.9,39.2-1.6,1.6-3.3,3-5.2,4.2,2.8,7.8.8,16.8-5.4,23.1-.4.4-.9.9-1.4,1.3,2.1,7.2.1,15.4-5.6,21-6.3,6.3-15.5,8.1-23.2,4.8-.6.8-1.2,1.5-1.9,2.2-3.2,3-7.5,4.3-11.8,4.3h0Zm-5.2-8.2c4.1,1.4,9.1,1.3,11.8-1.4,1-1,1.8-2.1,2.3-3.4.4-1,1.3-1.7,2.3-2s2.1-.1,3,.5c5.3,3.6,12.6,2.7,17.4-2.1,4.2-4.2,5.4-10.5,3-15.6-.8-1.6-.2-3.6,1.3-4.6,1-.7,1.8-1.3,2.6-2.1,4.8-4.8,6-12.1,2.7-17.7-.5-.9-.6-1.9-.3-2.9s1-1.8,1.9-2.2c2.4-1.1,4.5-2.6,6.4-4.4,8.2-8.2,8.7-21.2.9-28.9-3.3-3.3-7.5-5.2-12.2-5.5-1.1-.1-2.1-.6-2.7-1.5-.6-.9-.8-2-.5-3.1,1.4-4.8.3-9.6-3-12.8-3.7-3.7-9.4-4.7-14.5-2.5-1.3.6-2.8.3-3.9-.6-1.1-1-1.4-2.4-1-3.8,1.2-3.7.3-7.6-2.2-10.1-3.5-3.5-10.9-3.4-15.4.1l.1,126.6Z" style="fill:#fff;"/><path d="m151.4,92.7c-.9,0-1.9-.4-2.6-1.1-4.9-5-13-5-18-.1-1.4,1.4-3.7,1.4-5.1,0-1.4-1.4-1.4-3.7,0-5.1,3.8-3.7,8.8-5.7,14.2-5.8,5.3,0,10.3,2.1,14.1,5.9,1.4,1.4,1.4,3.7,0,5.1-.8.8-1.7,1.1-2.6,1.1Z" style="fill:#fff;"/><path d="m120.3,50.3c-.9,0-1.9-.4-2.6-1.1-3.4-3.4-5.3-8-5.2-12.9s1.9-9.4,5.4-12.8c7.1-7,18.6-7,25.7.2,1.4,1.4,1.4,3.7,0,5.1-1.4,1.4-3.7,1.4-5.1,0-4.2-4.3-11.1-4.3-15.4-.1-2.1,2-3.2,4.8-3.2,7.7s1.1,5.6,3.1,7.7c1.4,1.4,1.4,3.7,0,5.1-.9.8-1.8,1.1-2.7,1.1h0Z" style="fill:#fff;"/><path d="m119.8,137.6h0c-2,0-3.6-1.6-3.6-3.7v-4.8c0-3.9-3.1-7-7-7.1-2,0-3.6-1.6-3.6-3.7s1.6-3.6,3.6-3.6h0c7.9,0,14.2,6.5,14.2,14.4v4.7c0,2.2-1.6,3.8-3.6,3.8h0Z" style="fill:#fff;"/></svg>