<svg xmlns="http://www.w3.org/2000/svg" width="29.526" height="33.634" viewBox="0 0 29.526 33.634">
  <g id="Basket_Size" data-name="Basket Size" transform="translate(-30.249)">
    <g id="Group_2139" data-name="Group 2139" transform="translate(30.249 7.616)">
      <g id="Group_2137" data-name="Group 2137" transform="translate(0 0)">
        <path id="Path_2500" data-name="Path 2500" d="M44.256,126.671a.508.508,0,0,1-.36-.149l-13.5-13.5a.509.509,0,0,1,.72-.72l13.5,13.5a.509.509,0,0,1-.36.869Z" transform="translate(-30.249 -112.155)" fill="#c3aff0"/>
      </g>
      <g id="Group_2138" data-name="Group 2138" transform="translate(0)">
        <path id="Path_2501" data-name="Path 2501" d="M30.759,116.323a.509.509,0,0,1-.509-.509v-3.15a.509.509,0,0,1,.509-.509h3.15a.509.509,0,0,1,0,1.019H31.269v2.641A.509.509,0,0,1,30.759,116.323Z" transform="translate(-30.25 -112.155)" fill="#c3aff0"/>
      </g>
    </g>
    <g id="Group_2141" data-name="Group 2141" transform="translate(35.479 0)">
      <path id="Path_2502" data-name="Path 2502" d="M143.477,381.2H132.388a1.369,1.369,0,0,1-1.349-1.135l-1.115-6.446,7.85-.731,8.166.731-1.115,6.446A1.369,1.369,0,0,1,143.477,381.2Z" transform="translate(-128.386 -347.569)" fill="#e5646e"/>
      <path id="Path_2503" data-name="Path 2503" d="M309.531,383.662l-1.115,6.446a1.369,1.369,0,0,1-1.349,1.135h1.523a1.369,1.369,0,0,0,1.349-1.135l1.115-6.446Z" transform="translate(-293.499 -357.609)" fill="#db4655"/>
      <path id="Path_2504" data-name="Path 2504" d="M172.116,6.628l-.75.75a.987.987,0,0,1-1.395,0l-1.687-1.687a.174.174,0,0,0-.3.124V21.2l-3.033,1.829V5.828a.175.175,0,0,0-.3-.124l-1.673,1.674a.987.987,0,0,1-1.395,0l-.75-.75a.987.987,0,0,1,0-1.395L165.779.291a.987.987,0,0,1,1.395,0l4.942,4.942A.987.987,0,0,1,172.116,6.628Z" transform="translate(-156.929 -0.002)" fill="#a6c4af"/>
      <g id="Group_2140" data-name="Group 2140" transform="translate(4.405)">
        <path id="Path_2505" data-name="Path 2505" d="M249.481,63.193a.174.174,0,0,0-.3.124V78.705H247.66V61.917a.224.224,0,0,1,.382-.158Z" transform="translate(-242.531 -57.503)" fill="#74a583"/>
        <path id="Path_2506" data-name="Path 2506" d="M175.749,61.839v1.417a.175.175,0,0,0-.3-.124l-1.673,1.674a.987.987,0,0,1-1.395,0l-.253-.253a.6.6,0,0,0,.543-.167l2.693-2.705A.224.224,0,0,1,175.749,61.839Z" transform="translate(-172.13 -57.43)" fill="#74a583"/>
        <path id="Path_2507" data-name="Path 2507" d="M239.866,5.231,234.924.289a.986.986,0,0,0-1.395,0l-.3.3a.635.635,0,0,1,.624.162l4.485,4.485a.986.986,0,0,1,0,1.395l-.391.391a.465.465,0,0,1-.48.111l.249.249a.986.986,0,0,0,1.395,0l.751-.75a.986.986,0,0,0,0-1.395Z" transform="translate(-229.085 0)" fill="#74a583"/>
      </g>
      <path id="Path_2508" data-name="Path 2508" d="M125.185,312.223h-16.75a1.172,1.172,0,0,0-1.172,1.172V315.9a1.171,1.171,0,0,0,1.172,1.171h16.75a1.171,1.171,0,0,0,1.172-1.171v-2.508A1.172,1.172,0,0,0,125.185,312.223Z" transform="translate(-107.263 -291.021)" fill="#f0bdb1"/>
      <path id="Path_2509" data-name="Path 2509" d="M350.277,312.223h-1.523a1.172,1.172,0,0,1,1.171,1.172V315.9a1.171,1.171,0,0,1-1.171,1.171h1.523a1.172,1.172,0,0,0,1.172-1.171v-2.508A1.172,1.172,0,0,0,350.277,312.223Z" transform="translate(-332.355 -291.021)" fill="#eaa998"/>
      <path id="Path_2510" data-name="Path 2510" d="M234.235,247.5a1.384,1.384,0,0,1,0-1.957l4.664-4.664a1.384,1.384,0,1,1,1.957,1.957l-4.664,4.664A1.384,1.384,0,0,1,234.235,247.5Z" transform="translate(-225.235 -224.143)" fill="#e5646e"/>
      <path id="Path_2511" data-name="Path 2511" d="M246.476,240.878a1.383,1.383,0,0,0-1.74-.177,1.4,1.4,0,0,1,.217.177,1.384,1.384,0,0,1,0,1.957L240.29,247.5l0,0a.307.307,0,0,1-.429,0,1.362,1.362,0,0,0,.213.174,1.384,1.384,0,0,0,1.74-.177l4.663-4.664a1.384,1.384,0,0,0,0-1.957Z" transform="translate(-230.855 -224.142)" fill="#db4655"/>
    </g>
    <g id="Group_2142" data-name="Group 2142" transform="translate(44.584 27.523)">
      <path id="Path_2512" data-name="Path 2512" d="M241.859,409.964a.509.509,0,0,1-.509-.509v-3.633a.509.509,0,0,1,1.019,0v3.633A.509.509,0,0,1,241.859,409.964Z" transform="translate(-241.35 -405.313)" fill="#f0bdb1"/>
    </g>
    <g id="Group_2143" data-name="Group 2143" transform="translate(40.594 27.523)">
      <path id="Path_2513" data-name="Path 2513" d="M183.776,409.961a.509.509,0,0,1-.5-.416l-.679-3.633a.509.509,0,1,1,1-.187l.679,3.633a.509.509,0,0,1-.407.594A.5.5,0,0,1,183.776,409.961Z" transform="translate(-182.588 -405.31)" fill="#f0bdb1"/>
    </g>
    <g id="Group_2144" data-name="Group 2144" transform="translate(47.85 27.523)">
      <path id="Path_2514" data-name="Path 2514" d="M289.953,409.962a.51.51,0,0,1-.5-.6l.679-3.633a.509.509,0,0,1,1,.187l-.679,3.633A.509.509,0,0,1,289.953,409.962Z" transform="translate(-289.443 -405.31)" fill="#f0bdb1"/>
    </g>
    <g id="Group_2147" data-name="Group 2147" transform="translate(52.061 7.616)">
      <g id="Group_2145" data-name="Group 2145" transform="translate(0 0)">
        <path id="Path_2515" data-name="Path 2515" d="M351.96,119.869a.509.509,0,0,1-.36-.869l6.7-6.7a.509.509,0,1,1,.72.72l-6.7,6.7A.508.508,0,0,1,351.96,119.869Z" transform="translate(-351.45 -112.155)" fill="#c3aff0"/>
      </g>
      <g id="Group_2146" data-name="Group 2146" transform="translate(3.546)">
        <path id="Path_2516" data-name="Path 2516" d="M407.326,116.323a.509.509,0,0,1-.509-.509v-2.641h-2.641a.509.509,0,1,1,0-1.019h3.15a.509.509,0,0,1,.509.509v3.15A.509.509,0,0,1,407.326,116.323Z" transform="translate(-403.667 -112.155)" fill="#c3aff0"/>
      </g>
    </g>
  </g>
</svg>
