<svg xmlns="http://www.w3.org/2000/svg" width="24" height="24" viewBox="0 0 24 24">
  <g id="call_icon" data-name="call icon" transform="translate(-35 -556)">
    <rect id="Rectangle_740" data-name="Rectangle 740" width="24" height="24" transform="translate(35 556)" fill="none"/>
    <g id="phone-call" transform="translate(38 559.625)">
      <g id="Group_2150" data-name="Group 2150" transform="translate(0 -0.625)">
        <path id="Union_19" data-name="Union 19" d="M13.093,18a10.372,10.372,0,0,1-4.019-.937.7.7,0,0,1,.557-1.291,9.111,9.111,0,0,0,3.47.821h.032a4.331,4.331,0,0,0,3.133-1.14l0-.005a1.264,1.264,0,0,0-.064-1.761C14.318,11.866,13.426,12,12.6,12.8l-1.313,1.3a.7.7,0,0,1-.781.143A14.188,14.188,0,0,1,6.67,11.422l-.092-.092A14.188,14.188,0,0,1,3.751,7.493a.7.7,0,0,1,.143-.781L5.2,5.4c.8-.825.936-1.716-.884-3.6a1.265,1.265,0,0,0-1.761-.064l-.006,0A4.344,4.344,0,0,0,1.407,4.9c.012,2.528,1.447,5.465,3.838,7.855.456.456.046.07.617.507a.7.7,0,0,1-.856,1.116,3.384,3.384,0,0,1-.756-.629C1.6,11.1.015,7.8,0,4.907A5.706,5.706,0,0,1,1.565.729L1.592.7l.02-.018A2.675,2.675,0,0,1,5.326.819a6.543,6.543,0,0,1,1.72,2.589A2.9,2.9,0,0,1,6.2,6.384l0,0-.943.95a14.251,14.251,0,0,0,2.318,3l.093.092a14.256,14.256,0,0,0,3,2.319l.951-.944,0,0a2.9,2.9,0,0,1,2.976-.844,6.537,6.537,0,0,1,2.589,1.72,2.676,2.676,0,0,1,.134,3.713l-.018.02-.026.027A5.691,5.691,0,0,1,13.132,18Zm-6.74-2.823a1.059,1.059,0,1,1,1.059,1.059A1.059,1.059,0,0,1,6.353,15.177Z" transform="translate(0 0)" fill="#f2bf75"/>
      </g>
    </g>
  </g>
</svg>
