<svg id="cost_icon" data-name="cost icon" xmlns="http://www.w3.org/2000/svg" width="20.256" height="27.076" viewBox="0 0 20.256 27.076">
  <path id="XMLID_1492_" d="M163.594,112.611h-8.622a1.321,1.321,0,1,1,0-2.642h8.622a1.321,1.321,0,1,1,0,2.642Z" transform="translate(-149.155 -104.466)" fill="#6d92ac"/>
  <path id="XMLID_1491_" d="M84.582,176.9H79.572a7.611,7.611,0,0,1-6.417-11.7l4.61-7.227h8.622L91,165.2A7.611,7.611,0,0,1,84.582,176.9Z" transform="translate(-71.949 -149.824)" fill="#d5ea79"/>
  <path id="XMLID_1489_" d="M151.509,10.449a1.624,1.624,0,0,1,2.3,0l0,0a1.624,1.624,0,0,0,2.293,0l.016-.016a1.624,1.624,0,0,1,2.293,0l0,0a1.624,1.624,0,0,0,2.3,0,1.624,1.624,0,0,1,2.3,0l-1.437,5.024h-8.622Z" transform="translate(-147.131 -9.969)" fill="#d5ea79"/>
  <path id="_1608821_rupee_icon" data-name="1608821_rupee_icon" d="M453.686,130.2v.657a.187.187,0,0,1-.067.148.252.252,0,0,1-.171.058H452.2a2.344,2.344,0,0,1-.96,1.508,4.115,4.115,0,0,1-2.055.709q1.244,1.147,3.417,3.453a.159.159,0,0,1,.03.219.221.221,0,0,1-.216.116h-1.452a.233.233,0,0,1-.186-.077q-2.278-2.364-3.708-3.679a.18.18,0,0,1-.067-.142v-.818a.186.186,0,0,1,.071-.145.247.247,0,0,1,.168-.061h.834a3.809,3.809,0,0,0,1.582-.277,1.318,1.318,0,0,0,.763-.805h-3.179a.253.253,0,0,1-.171-.058.187.187,0,0,1-.067-.148V130.2a.187.187,0,0,1,.067-.148.253.253,0,0,1,.171-.058h3.075q-.425-.728-2-.728h-1.08a.248.248,0,0,1-.168-.061.186.186,0,0,1-.071-.145v-.857a.187.187,0,0,1,.067-.148.253.253,0,0,1,.171-.058h6.194a.253.253,0,0,1,.171.058.187.187,0,0,1,.067.148v.657a.187.187,0,0,1-.067.148.253.253,0,0,1-.171.058H451.7a2.1,2.1,0,0,1,.477.928h1.273a.252.252,0,0,1,.171.058A.187.187,0,0,1,453.686,130.2Z" transform="translate(-440.215 -113.661)" fill="#111612"/>
</svg>
