<svg id="current_market_value_icon" data-name="current market value icon" xmlns="http://www.w3.org/2000/svg" width="36.535" height="27.528" viewBox="0 0 36.535 27.528">
  <g id="Group_124" data-name="Group 124" transform="translate(0)">
    <g id="Group_126" data-name="Group 126" transform="translate(20.61 7.032)">
      <g id="Group_126-2" data-name="Group 126">
        <rect id="Rectangle_129" data-name="Rectangle 129" width="3.185" height="15.925" fill="#27a9d0"/>
        <rect id="Rectangle_130" data-name="Rectangle 130" width="3.185" height="11.678" transform="translate(4.247 4.247)" fill="#27a9d0"/>
        <rect id="Rectangle_131" data-name="Rectangle 131" width="3.185" height="15.925" transform="translate(8.493)" fill="#27a9d0"/>
        <rect id="Rectangle_132" data-name="Rectangle 132" width="3.185" height="7.432" transform="translate(12.74 8.493)" fill="#27a9d0"/>
      </g>
    </g>
    <g id="Group_108" data-name="Group 108" transform="translate(5.494)">
      <g id="Group_107" data-name="Group 107" transform="translate(0)">
        <g id="Group_106" data-name="Group 106">
          <g id="Group_103" data-name="Group 103">
            <g id="Group_102" data-name="Group 102">
              <path id="Path_26" data-name="Path 26" d="M125.515,12.4s2.718-3.527,1.936-4.539c-.266-.345-.493.123-1.044.123-.647,0-.647-.423-1.294-.423s-.647.423-1.294.423-.647-.423-1.294-.423-.647.423-1.294.423c-.551,0-.778-.474-1.046-.129-.782,1.006,1.9,4.545,1.9,4.545-11.827,7.775-8.014,18.349-1.031,18.349h5.538c7,0,10.794-10.548-1.073-18.349Z" transform="translate(-114.473 -7.559)" fill="#af905a"/>
            </g>
          </g>
          <g id="Group_104" data-name="Group 104" transform="translate(7.143)">
            <path id="Path_27" data-name="Path 27" d="M247.314,12.4s2.718-3.527,1.936-4.539c-.266-.345-.493.123-1.044.123-.647,0-.647-.423-1.294-.423s-.647.423-1.294.423c-.032,0-.061,0-.09,0a13.988,13.988,0,0,1-2.1,3.781c.264.387.454.639.454.639q-.237.156-.464.313c11.3,7.767,7.519,18.036.608,18.036h4.364c7,0,10.794-10.548-1.073-18.349Z" transform="translate(-243.415 -7.559)" fill="#917d5a"/>
          </g>
          <g id="Group_105" data-name="Group 105" transform="translate(6.105 4.109)">
            <path id="Path_28" data-name="Path 28" d="M230.125,83.722a9.455,9.455,0,0,1-4.719,0,1.007,1.007,0,0,1-.663-1.319l.007-.019a.93.93,0,0,1,1.1-.62,7.682,7.682,0,0,0,3.838,0,.93.93,0,0,1,1.1.62l.007.019A1.008,1.008,0,0,1,230.125,83.722Z" transform="translate(-224.683 -81.738)" fill="#ffe07d"/>
          </g>
        </g>
      </g>
    </g>
    <g id="Group_123" data-name="Group 123" transform="translate(0 15.736)">
      <g id="Group_122" data-name="Group 122">
        <g id="Group_121" data-name="Group 121">
          <g id="Group_120" data-name="Group 120">
            <g id="Group_119" data-name="Group 119">
              <g id="Group_118" data-name="Group 118">
                <g id="Group_117" data-name="Group 117">
                  <g id="Group_116" data-name="Group 116">
                    <g id="Group_115" data-name="Group 115">
                      <g id="Group_114" data-name="Group 114">
                        <g id="Group_113" data-name="Group 113" transform="translate(2.193 1.456)">
                          <g id="Group_112" data-name="Group 112">
                            <g id="Group_109" data-name="Group 109">
                              <path id="Path_29" data-name="Path 29" d="M54.883,325.707l6.014,2.239a4.576,4.576,0,0,0,1.6.287h6.2a4.577,4.577,0,0,0,2.45-.711L78.9,322.6a1.362,1.362,0,0,0,.222-1.785,1.384,1.384,0,0,0-1.886-.364l-7.556,3.327.009-1.226a2.194,2.194,0,0,0-1.876-1.955l-4.6-.53a6.07,6.07,0,0,1-2.517-1.047,8.246,8.246,0,0,0-4.164-1.128h-1.65Z" transform="translate(-54.883 -317.896)" fill="#ffddce"/>
                            </g>
                            <g id="Group_110" data-name="Group 110">
                              <path id="Path_30" data-name="Path 30" d="M54.883,325.707l6.014,2.239a4.576,4.576,0,0,0,1.6.287h6.2a4.577,4.577,0,0,0,2.45-.711L78.9,322.6a1.362,1.362,0,0,0,.222-1.785,1.384,1.384,0,0,0-1.886-.364l-7.556,3.327.009-1.226a2.194,2.194,0,0,0-1.876-1.955l-4.6-.53a6.07,6.07,0,0,1-2.517-1.047,8.246,8.246,0,0,0-4.164-1.128h-1.65Z" transform="translate(-54.883 -317.896)" fill="#ffddce"/>
                            </g>
                            <path id="Path_31" data-name="Path 31" d="M79.124,360.932a1.384,1.384,0,0,0-1.886-.364l-2.078.915.181.286a1.362,1.362,0,0,1-.222,1.785L70.6,366.419a4.576,4.576,0,0,1-1.9.416h-6.2a4.576,4.576,0,0,1-1.6-.287l-6.014-2.239v1.51l6.014,2.239a4.576,4.576,0,0,0,1.6.287h6.2a4.577,4.577,0,0,0,2.45-.711l7.76-4.917A1.362,1.362,0,0,0,79.124,360.932Z" transform="translate(-54.884 -358.008)" fill="#ffcbbe"/>
                            <g id="Group_111" data-name="Group 111" transform="translate(14.243 3.398)">
                              <path id="Path_32" data-name="Path 32" d="M312,379.236v.03l.02-.009Z" transform="translate(-312.004 -379.236)" fill="#f5dbcc"/>
                            </g>
                          </g>
                        </g>
                        <path id="Path_33" data-name="Path 33" d="M18.782,302.085a.79.79,0,0,1-.79.79H16.085a.79.79,0,0,1-.79-.79V292.41a.79.79,0,0,1,.79-.79h1.907a.79.79,0,0,1,.79.79Z" transform="translate(-15.295 -291.62)" fill="#407093"/>
                      </g>
                    </g>
                  </g>
                </g>
              </g>
            </g>
          </g>
        </g>
      </g>
    </g>
  </g>
  <path id="_1608821_rupee_icon" data-name="1608821_rupee_icon" d="M453.038,129.99v.594a.169.169,0,0,1-.06.134.228.228,0,0,1-.155.052h-1.13a2.117,2.117,0,0,1-.867,1.362,3.717,3.717,0,0,1-1.856.64q1.123,1.036,3.086,3.119a.143.143,0,0,1,.027.2.2.2,0,0,1-.2.1h-1.311a.211.211,0,0,1-.168-.07q-2.058-2.135-3.349-3.322a.163.163,0,0,1-.06-.128v-.739a.168.168,0,0,1,.064-.131.223.223,0,0,1,.151-.055h.753a3.44,3.44,0,0,0,1.429-.25,1.19,1.19,0,0,0,.689-.727h-2.871a.228.228,0,0,1-.155-.052.169.169,0,0,1-.06-.134v-.594a.169.169,0,0,1,.06-.134.228.228,0,0,1,.155-.052h2.777q-.383-.658-1.8-.658h-.975a.224.224,0,0,1-.151-.055.168.168,0,0,1-.064-.131v-.774a.169.169,0,0,1,.06-.134.228.228,0,0,1,.155-.052h5.595a.228.228,0,0,1,.155.052.169.169,0,0,1,.06.134v.593a.169.169,0,0,1-.06.134.228.228,0,0,1-.155.052h-1.567a1.893,1.893,0,0,1,.43.838h1.15a.228.228,0,0,1,.155.052A.169.169,0,0,1,453.038,129.99Z" transform="translate(-437.226 -118.621)" fill="#111612"/>
</svg>
