<svg xmlns="http://www.w3.org/2000/svg" width="24" height="24" viewBox="0 0 24 24">
  <g id="email_icon" data-name="email icon" transform="translate(-35 -556)">
    <rect id="Rectangle_740" data-name="Rectangle 740" width="24" height="24" transform="translate(35 556)" fill="none"/>
    <g id="XMLID_2019_" transform="translate(38 560.325)">
      <g id="XMLID_1056_" transform="translate(0 -1.325)">
        <path id="Union_20" data-name="Union 20" d="M1.793,18.874A1.8,1.8,0,0,1,0,17.082V6.757A.359.359,0,0,1,.105,6.5L1.936,4.673V.878A.359.359,0,0,1,2.295.519H6.769a.359.359,0,0,1,0,.717H2.653v7.34l6.509,6.508L15.7,8.545V1.236H11.563a.359.359,0,1,1,0-.717h4.5a.358.358,0,0,1,.358.358v3.8L18.25,6.5a.359.359,0,0,1,.105.253V17.082a1.8,1.8,0,0,1-1.792,1.793Zm-.463-.822a1.07,1.07,0,0,0,.463.1h14.77a1.07,1.07,0,0,0,.463-.105l-4.908-4.909-2.7,2.7a.357.357,0,0,1-.507,0L6.222,13.16Zm11.3-5.416,4.908,4.908a1.061,1.061,0,0,0,.105-.464V7.623ZM.717,17.082a1.071,1.071,0,0,0,.105.464l4.893-4.893-5-5ZM.849,6.774,1.936,7.86V5.687Zm15.57,1.054,1.071-1.07-1.071-1.07ZM9.094,10.646A3.939,3.939,0,0,1,6.8,9.821a3.9,3.9,0,1,1,6.139-4.206.072.072,0,0,0,0,.011,3.5,3.5,0,0,1-.2,2.313,1.7,1.7,0,0,1-1.568,1.118,1.083,1.083,0,0,1-.767-.33,1.266,1.266,0,0,1-.258-.38,1.582,1.582,0,0,1-1.165.53A1.683,1.683,0,0,1,7.7,8.231,2.4,2.4,0,0,1,7.183,6.7a1.957,1.957,0,0,1,1.842-2.1,1.565,1.565,0,0,1,1.017.366V4.858a.358.358,0,0,1,.717,0V7.822a.564.564,0,0,0,.159.4.372.372,0,0,0,.259.119.978.978,0,0,0,.9-.666,2.792,2.792,0,0,0,.172-1.858A3.187,3.187,0,0,0,6.12,7.55,3.205,3.205,0,0,0,9.113,9.929a.359.359,0,0,1-.009.717ZM7.9,6.7c0,.8.488,1.457,1.087,1.457.579,0,1.05-.658,1.05-1.468S9.621,5.323,9.025,5.323A1.254,1.254,0,0,0,7.9,6.7ZM8.545,1.5a.878.878,0,0,1,0-1.241.878.878,0,0,1,1.5.621.878.878,0,0,1-1.5.621Z" transform="translate(0)" fill="#f2bf75" stroke="#f2bf75" stroke-width="0.3"/>
      </g>
    </g>
  </g>
</svg>
