<svg xmlns="http://www.w3.org/2000/svg" width="58.683" height="79.556" viewBox="0 0 58.683 79.556">
  <g id="Group_2054" data-name="Group 2054" transform="translate(-10 -2.18)">
    <path id="Path_2414" data-name="Path 2414" d="M59.467,59.6a116.541,116.541,0,0,1-5.175,16.591,21.438,21.438,0,0,1-2.081,1.534A112.656,112.656,0,0,0,58.16,59.289a19.339,19.339,0,0,0-37.65-8.856,68.792,68.792,0,0,1-5,14.671q-.387-.734-.76-1.494A70.1,70.1,0,0,0,19.2,50.127,20.675,20.675,0,1,1,59.453,59.6ZM41.329,46.419A8.669,8.669,0,0,0,30.9,52.874,69.965,69.965,0,0,1,22.47,74.493l.934.854a70.046,70.046,0,0,0,8.789-22.166,7.337,7.337,0,1,1,14.284,3.361,88.744,88.744,0,0,1-9.709,25.073q.747.093,1.52.12A89.451,89.451,0,0,0,47.77,56.848a8.669,8.669,0,0,0-6.442-10.429Zm1.827-7.789a16.671,16.671,0,0,0-20.005,12.4A67.378,67.378,0,0,1,17.1,67.825q.4.64.827,1.254a67.312,67.312,0,0,0,6.5-17.792,15.339,15.339,0,0,1,29.861,7.029,103.267,103.267,0,0,1-7.735,22.179c.613-.213,1.227-.453,1.827-.72a106.561,106.561,0,0,0,7.2-21.152A16.671,16.671,0,0,0,43.156,38.63ZM40.408,50.313a4.668,4.668,0,0,0-5.615,3.481,72.513,72.513,0,0,1-9.336,23.26c.36.267.734.52,1.107.774A73.913,73.913,0,0,0,36.1,54.088a3.335,3.335,0,0,1,6.5,1.52,82.689,82.689,0,0,1-9.923,25.127l1.227.347a84.6,84.6,0,0,0,9.936-25.154,4.668,4.668,0,0,0-3.428-5.615Zm-.92,3.894a.667.667,0,0,0-.8.493,77.114,77.114,0,0,1-9.763,24.46c.4.213.814.4,1.227.587a78.915,78.915,0,0,0,9.829-24.753A.667.667,0,0,0,39.488,54.208Zm11-49.467a23.686,23.686,0,0,0-5.548-2.267,52.374,52.374,0,0,0-11.083,0,23.633,23.633,0,0,0-5.628,2.267,51.094,51.094,0,0,1,22.259,0ZM42.249,42.524A12.67,12.67,0,0,0,27,51.954c-.934,4-2.907,12.323-7.322,19.512q.44.547.907,1.08c4.681-7.455,6.735-16.138,7.709-20.272a11.337,11.337,0,0,1,22.073,5.188,94.493,94.493,0,0,1-8.949,24.207q.827-.08,1.64-.227a97.2,97.2,0,0,0,8.616-23.673A12.67,12.67,0,0,0,42.249,42.524ZM49.264,12.61a43.238,43.238,0,0,1,14.084,6.148c-.427-.827-.867-1.64-1.334-2.414a44.705,44.705,0,0,0-45.346,0c-.467.774-.907,1.587-1.334,2.4A43.2,43.2,0,0,1,49.264,12.61Zm.92-3.894a47.56,47.56,0,0,1,8.442,2.854Q57.6,10.356,56.493,9.262a49.066,49.066,0,0,0-6.015-1.84A48.44,48.44,0,0,0,22.2,9.289a29.949,29.949,0,0,0-2.147,2.334A47.106,47.106,0,0,1,50.184,8.769Zm-1.827,7.9a39.144,39.144,0,0,1,18.058,9.7c-.267-.88-.56-1.734-.88-2.574a40.664,40.664,0,0,0-52.388,0c-.307.84-.614,1.707-.88,2.574a39.291,39.291,0,0,1,36.09-9.7ZM45,30.841A24.66,24.66,0,0,0,15.335,49.206a77.662,77.662,0,0,1-2.667,9.122q.32.96.68,1.907a73.605,73.605,0,0,0,3.308-10.67A23.339,23.339,0,1,1,62.1,60.236a119.8,119.8,0,0,1-3.363,11.6,36.825,36.825,0,0,0,2.507-3.388c.854-2.787,1.56-5.455,2.147-7.909A24.673,24.673,0,0,0,45,30.841Zm.92-3.894A28.688,28.688,0,0,0,11.44,48.286c-.173.747-.4,1.627-.654,2.587.16.974.347,1.921.56,2.867.56-1.84,1.027-3.6,1.334-5.148a27.327,27.327,0,0,1,53.881,8,50.6,50.6,0,0,0,1.214-5.135A28.688,28.688,0,0,0,45.9,26.947ZM68.683,40.431a32.676,32.676,0,0,0-58.683,0c0,.44,0,.88,0,1.334v2a31.342,31.342,0,0,1,58.6,0q0-.987,0-1.974A7.993,7.993,0,0,0,68.683,40.431ZM47.464,20.425A35.2,35.2,0,0,1,68.189,34.442c-.133-.947-.267-1.881-.453-2.787a36.677,36.677,0,0,0-56.789,0c-.173.92-.32,1.854-.453,2.8a35.356,35.356,0,0,1,36.943-14Z" fill="#4291df"/>
  </g>
</svg>
