<svg xmlns="http://www.w3.org/2000/svg" width="86.198" height="84.47" viewBox="0 0 86.198 84.47">
  <g id="forgot_password_unknown_password" data-name="forgot password unknown password" transform="translate(-3 -3)">
    <path id="Path_2418" data-name="Path 2418" d="M53.682,28.652H46.924V21.894a16.894,16.894,0,1,0-33.788,0v6.758H6.379A3.379,3.379,0,0,0,3,32.03V42.167a3.379,3.379,0,0,0,6.758,0V35.409H50.3V55.682a20.273,20.273,0,1,1-40.546,0,3.379,3.379,0,0,0-6.758,0,27.03,27.03,0,1,0,54.061,0V32.03A3.379,3.379,0,0,0,53.682,28.652Zm-33.788,0V21.894a10.136,10.136,0,1,1,20.273,0v6.758Z" transform="translate(0 4.758)" fill="#f2bf75"/>
    <path id="Path_2419" data-name="Path 2419" d="M18.137,16a3.379,3.379,0,0,0-3.379,3.379v3.987a10.136,10.136,0,1,0,6.758,0V19.379A3.379,3.379,0,0,0,18.137,16Zm0,20.273a3.379,3.379,0,1,1,3.379-3.379A3.379,3.379,0,0,1,18.137,36.273Z" transform="translate(11.893 30.924)" fill="#f2bf75"/>
    <path id="Path_2420" data-name="Path 2420" d="M34.7,3A15.238,15.238,0,0,0,19.5,18.2a3.379,3.379,0,0,0,6.758,0A8.447,8.447,0,1,1,34.7,26.652a3.379,3.379,0,0,0-3.379,3.379v6.758a3.379,3.379,0,1,0,6.758,0v-3.75A15.2,15.2,0,0,0,34.7,3Z" transform="translate(39.25 0)" fill="#f2bf75"/>
    <path id="Path_2421" data-name="Path 2421" d="M27.663,16.314l-.608-.27a3.379,3.379,0,0,0-1.96.2,3.886,3.886,0,0,0-1.115.71,3.379,3.379,0,0,0-.71,1.115,3.176,3.176,0,0,0,0,2.568,3.885,3.885,0,0,0,.71,1.115,3.379,3.379,0,0,0,5.778-2.331,3.548,3.548,0,0,0-.98-2.4,3.379,3.379,0,0,0-1.115-.71Z" transform="translate(47.575 30.88)" fill="#f2bf75"/>
  </g>
</svg>
