<svg id="Group_1934" data-name="Group 1934" xmlns="http://www.w3.org/2000/svg" width="18.784" height="18.784" viewBox="0 0 18.784 18.784">
  <g id="Group_1068" data-name="Group 1068">
    <rect id="Rectangle_438" data-name="Rectangle 438" width="18.784" height="18.784" rx="4" fill="#137332"/>
    <path id="Icon_awesome-arrow-up" data-name="Icon awesome-arrow-up" d="M1.048,7.976.554,7.482a.532.532,0,0,1,0-.754L4.877,2.4a.532.532,0,0,1,.754,0L9.953,6.726a.532.532,0,0,1,0,.754l-.494.494A.535.535,0,0,1,8.7,7.965L6.145,5.286V11.68a.533.533,0,0,1-.534.534H4.9a.533.533,0,0,1-.534-.534V5.286L1.811,7.967a.531.531,0,0,1-.763.009Z" transform="translate(4.138 2.161)" fill="#fff"/>
  </g>
</svg>
