<svg xmlns="http://www.w3.org/2000/svg" width="30" height="30" viewBox="0 0 30 30">
  <g id="home_icon" data-name="home icon" transform="translate(-32 -181)">
    <rect id="Rectangle_542" data-name="Rectangle 542" width="30" height="30" transform="translate(32 181)" fill="none"/>
    <g id="Group_1744" data-name="Group 1744" transform="translate(-288.033 -170.961)">
      <path id="Path_2277" data-name="Path 2277" d="M343.819,364.175a3.233,3.233,0,0,1,.318,1.426h0v7.091a3.373,3.373,0,0,1-3.371,3.371H329.3a3.375,3.375,0,0,1-3.371-3.371V365.6h0a3.393,3.393,0,0,1,.327-1.426h-1.8a5.087,5.087,0,0,0-.217,1.426h0v7.091a5.058,5.058,0,0,0,5.057,5.057h11.463a5.028,5.028,0,0,0,2.825-.866,5.08,5.08,0,0,0,1.365-1.365,5.051,5.051,0,0,0,.865-2.826V365.6h0a5.048,5.048,0,0,0-.211-1.426h-1.791Z" fill="#c9944c"/>
      <path id="Path_2278" data-name="Path 2278" d="M336.685,371.353a1.054,1.054,0,0,0,1.086-1.021h0a1.056,1.056,0,1,0-1.089,1.021Z" fill="#0a5923"/>
      <path id="Path_2279" data-name="Path 2279" d="M333.348,369.278a1.038,1.038,0,1,0,1.052,1.054h0A1.054,1.054,0,0,0,333.348,369.278Z" fill="#0a5923"/>
      <path id="Path_2280" data-name="Path 2280" d="M336.685,367.982a1.054,1.054,0,0,0,1.086-1.021h0a1.056,1.056,0,1,0-1.089,1.021Z" fill="#0a5923"/>
      <path id="Path_2281" data-name="Path 2281" d="M333.346,368.015a1.054,1.054,0,1,0-1.054-1.054A1.053,1.053,0,0,0,333.346,368.015Z" fill="#0a5923"/>
      <path id="Path_2282" data-name="Path 2282" d="M324.463,364.175h1.8a3.389,3.389,0,0,1,1-1.255l5.731-4.372a3.381,3.381,0,0,1,4.09,0l3.176,2.42a.843.843,0,0,0,1.354-.67v-2.777a.843.843,0,1,0-1.686,0V358.6l-1.822-1.388a5.07,5.07,0,0,0-6.134,0l-5.732,4.372A5.079,5.079,0,0,0,324.463,364.175Z" fill="#0a5923"/>
      <path id="Path_2283" data-name="Path 2283" d="M345.3,363.357a5.087,5.087,0,0,0-1.456-1.786.535.535,0,0,0-.054-.04.843.843,0,0,0-1.174.206.841.841,0,0,0,.207,1.174,3.272,3.272,0,0,1,.994,1.264h1.791A5.127,5.127,0,0,0,345.3,363.357Z" fill="#0a5923"/>
    </g>
  </g>
</svg>
