<svg xmlns="http://www.w3.org/2000/svg" width="32.104" height="32.667" viewBox="0 0 32.104 32.667">
  <g id="Portfolio_Beta" data-name="Portfolio Beta" transform="translate(-24 -24)">
    <path id="Path_2444" data-name="Path 2444" d="M104.782,30.2V24h-6.2v2.253h2.253l-6.759,6.759-5.632-5.632L80,35.828l1.69,1.69,6.759-6.759,5.632,5.632,8.448-8.448V30.2Z" transform="translate(-52.057)" fill="#f35244"/>
    <path id="Path_2445" data-name="Path 2445" d="M40,424h5.632v2.253H40Z" transform="translate(-14.874 -371.839)" fill="#fca713"/>
    <path id="Path_2446" data-name="Path 2446" d="M104,456h5.632v2.253H104Z" transform="translate(-74.368 -401.586)" fill="#fca713"/>
    <path id="Path_2447" data-name="Path 2447" d="M104,392h5.632v2.253H104Z" transform="translate(-74.368 -342.092)" fill="#fca713"/>
    <path id="Path_2448" data-name="Path 2448" d="M200,424h5.632v2.253H200Z" transform="translate(-163.609 -371.839)" fill="#fca713"/>
    <g id="Group_2134" data-name="Group 2134" transform="translate(24 47.655)">
      <path id="Path_2449" data-name="Path 2449" d="M184,456h5.632v2.253H184Z" transform="translate(-172.736 -449.241)" fill="#f4c067"/>
      <path id="Path_2450" data-name="Path 2450" d="M184,392h5.632v2.253H184Z" transform="translate(-172.736 -389.747)" fill="#f4c067"/>
      <path id="Path_2451" data-name="Path 2451" d="M120,424h5.632v2.253H120Z" transform="translate(-113.241 -419.494)" fill="#f4c067"/>
      <path id="Path_2452" data-name="Path 2452" d="M120,360h5.632v2.253H120Z" transform="translate(-113.241 -360)" fill="#f4c067"/>
      <path id="Path_2453" data-name="Path 2453" d="M24,456h5.632v2.253H24Z" transform="translate(-24 -449.241)" fill="#f4c067"/>
      <path id="Path_2454" data-name="Path 2454" d="M24,392h5.632v2.253H24Z" transform="translate(-24 -389.747)" fill="#f4c067"/>
    </g>
    <path id="Path_2455" data-name="Path 2455" d="M264,424h12.954v4.506H264Z" transform="translate(-223.103 -371.839)" fill="#80c326"/>
    <path id="Path_2456" data-name="Path 2456" d="M275.445,424a9.586,9.586,0,0,1-7.747,3.943H264v.563h12.954V424Z" transform="translate(-223.103 -371.839)" fill="#69a709"/>
    <path id="Path_2457" data-name="Path 2457" d="M336,424h2.253v4.506H336Z" transform="translate(-290.034 -371.839)" fill="#fca713"/>
    <path id="Path_2458" data-name="Path 2458" d="M296,360h12.954v4.506H296Z" transform="translate(-252.85 -312.345)" fill="#80c326"/>
    <path id="Path_2459" data-name="Path 2459" d="M307.445,360a9.586,9.586,0,0,1-7.747,3.943H296v.563h12.954V360Z" transform="translate(-252.85 -312.345)" fill="#69a709"/>
    <path id="Path_2460" data-name="Path 2460" d="M368,360h2.253v4.506H368Z" transform="translate(-319.781 -312.345)" fill="#fca713"/>
    <path id="Path_2461" data-name="Path 2461" d="M264,296h12.954v4.506H264Z" transform="translate(-223.103 -252.85)" fill="#80c326"/>
    <path id="Path_2462" data-name="Path 2462" d="M275.445,296a9.586,9.586,0,0,1-7.747,3.943H264v.563h12.954V296Z" transform="translate(-223.103 -252.85)" fill="#69a709"/>
    <path id="Path_2463" data-name="Path 2463" d="M336,296h2.253v4.506H336Z" transform="translate(-290.034 -252.85)" fill="#fca713"/>
    <path id="Path_2464" data-name="Path 2464" d="M240,392h1.69v2.253H240Z" transform="translate(-200.793 -342.092)" fill="#f5b142"/>
    <path id="Path_2465" data-name="Path 2465" d="M240,424h1.69v2.253H240Z" transform="translate(-200.793 -371.839)" fill="#ed8515"/>
    <path id="Path_2466" data-name="Path 2466" d="M240,456h1.69v2.253H240Z" transform="translate(-200.793 -401.586)" fill="#f5b142"/>
    <path id="Path_2467" data-name="Path 2467" d="M160,456h1.69v2.253H160Z" transform="translate(-126.425 -401.586)" fill="#ed8515"/>
    <path id="Path_2468" data-name="Path 2468" d="M176,424h1.69v2.253H176Z" transform="translate(-141.299 -371.839)" fill="#fca713"/>
    <path id="Path_2469" data-name="Path 2469" d="M160,392h1.69v2.253H160Z" transform="translate(-126.425 -342.092)" fill="#ed8515"/>
    <path id="Path_2470" data-name="Path 2470" d="M80,456h1.69v2.253H80Z" transform="translate(-52.057 -401.586)" fill="#f5b142"/>
    <path id="Path_2471" data-name="Path 2471" d="M96,424h1.69v2.253H96Z" transform="translate(-66.931 -371.839)" fill="#ed8515"/>
    <path id="Path_2472" data-name="Path 2472" d="M80,392h1.69v2.253H80Z" transform="translate(-52.057 -342.092)" fill="#f5b142"/>
    <path id="Path_2473" data-name="Path 2473" d="M184,360h1.69v2.253H184Z" transform="translate(-148.736 -312.345)" fill="#f5b142"/>
    <path id="Path_2474" data-name="Path 2474" d="M160,208h2.253v9.012H160Z" transform="translate(-126.425 -171.046)" fill="#4db7e5"/>
    <path id="Path_2475" data-name="Path 2475" d="M240,232h2.253v2.816H240Z" transform="translate(-200.793 -193.356)" fill="#4db7e5"/>
    <path id="Path_2476" data-name="Path 2476" d="M320,208h2.253v4.506H320Z" transform="translate(-275.161 -171.046)" fill="#4db7e5"/>
    <path id="Path_2477" data-name="Path 2477" d="M400,144h2.253v9.012H400Z" transform="translate(-349.529 -111.552)" fill="#4db7e5"/>
    <path id="Path_2478" data-name="Path 2478" d="M82.253,248H80v8.448l2.253-2.253Z" transform="translate(-52.057 -208.23)" fill="#4db7e5"/>
  </g>
</svg>
