<svg id="Portfolio_Max_Drawdown" data-name="Portfolio Max Drawdown" xmlns="http://www.w3.org/2000/svg" width="30.932" height="30.932" viewBox="0 0 30.932 30.932">
  <path id="Path_2517" data-name="Path 2517" d="M392,330h5.437v10.089H392Z" transform="translate(-368.317 -310.063)" fill="#fed843"/>
  <path id="Path_2518" data-name="Path 2518" d="M150,300h5.5v11.9H150Z" transform="translate(-140.938 -281.876)" fill="#fed843"/>
  <path id="Path_2519" data-name="Path 2519" d="M271,240h5.5v15.527H271Z" transform="translate(-254.628 -225.5)" fill="#97de3d"/>
  <path id="Path_2520" data-name="Path 2520" d="M30,180h5.437v19.151H30Z" transform="translate(-28.188 -169.125)" fill="#97de3d"/>
  <path id="Path_2521" data-name="Path 2521" d="M75,180h2.719v19.151H75Z" transform="translate(-70.469 -169.125)" fill="#59c36a"/>
  <path id="Path_2522" data-name="Path 2522" d="M196,300h2.719v11.9H196Z" transform="translate(-184.159 -281.876)" fill="#fabe2c"/>
  <path id="Path_2523" data-name="Path 2523" d="M316,240h2.779v15.527H316Z" transform="translate(-296.909 -225.5)" fill="#59c36a"/>
  <path id="Path_2524" data-name="Path 2524" d="M437,330h2.719v10.089H437Z" transform="translate(-410.599 -310.063)" fill="#fabe2c"/>
  <g id="Group_2148" data-name="Group 2148" transform="translate(0)">
    <path id="Path_2525" data-name="Path 2525" d="M15.466,482H0v1.812H30.932V482Z" transform="translate(0 -452.88)" fill="#2d5177"/>
    <path id="Path_2526" data-name="Path 2526" d="M256,482h15.466v1.812H256Z" transform="translate(-240.534 -452.88)" fill="#32405d"/>
    <path id="Path_2527" data-name="Path 2527" d="M29.12,9.062v4.156L19.091,3.25,15.466,6.875,11.841,10.5,1.281,0,0,1.281,11.841,13.062l3.625-3.625,3.625-3.625L27.838,14.5H23.683v1.812h7.25V9.062Z" transform="translate(0)" fill="#ff641a"/>
    <path id="Path_2528" data-name="Path 2528" d="M268.372,65.039h-4.156v1.812h7.25V59.6h-1.812v4.156l-10.029-9.968L256,57.414v2.563l3.625-3.625Z" transform="translate(-240.534 -50.539)" fill="#f03800"/>
  </g>
</svg>
