<svg id="Group_2418" data-name="Group 2418" xmlns="http://www.w3.org/2000/svg" width="18.783" height="18.784" viewBox="0 0 18.783 18.784">
  <g id="Group_1068" data-name="Group 1068">
    <rect id="Rectangle_438" data-name="Rectangle 438" width="18.783" height="18.784" rx="4" fill="#e2625f"/>
    <path id="Icon_awesome-arrow-up" data-name="Icon awesome-arrow-up" d="M1.048,6.484l-.494.494a.532.532,0,0,0,0,.754l4.322,4.325a.532.532,0,0,0,.754,0L9.953,7.735a.532.532,0,0,0,0-.754l-.494-.494A.534.534,0,0,0,8.7,6.5L6.144,9.174V2.78a.533.533,0,0,0-.534-.534H4.9a.533.533,0,0,0-.534.534V9.174L1.811,6.493a.531.531,0,0,0-.763-.009Z" transform="translate(4.138 2.162)" fill="#fff"/>
  </g>
</svg>
