<svg xmlns="http://www.w3.org/2000/svg" xmlns:xlink="http://www.w3.org/1999/xlink" width="25.65" height="19.219" viewBox="0 0 25.65 19.219">
  <defs>
    <clipPath id="clip-path">
      <rect id="Rectangle_754" data-name="Rectangle 754" width="25.65" height="19.219" transform="translate(0 0)" fill="none"/>
    </clipPath>
  </defs>
  <g id="Group_2406" data-name="Group 2406" transform="translate(0 0)">
    <g id="Group_2406-2" data-name="Group 2406" clip-path="url(#clip-path)">
      <path id="Path_359676" data-name="Path 359676" d="M16.988,12.4a1.315,1.315,0,0,1,.023-.672,1.772,1.772,0,0,1,.219-.475,2.417,2.417,0,0,1,.339-.415,2.392,2.392,0,0,1,.409-.333,1.789,1.789,0,0,1,.475-.219c.035-.01.07-.009.105-.017A5.788,5.788,0,1,0,17.419,13.1l-.085-.085a1.289,1.289,0,0,1-.346-.612M12.824,13.85a4.24,4.24,0,1,1,4.239-4.241,4.24,4.24,0,0,1-4.239,4.241" fill="#d8a45a"/>
      <path id="Path_359677" data-name="Path 359677" d="M25.267,10.635c.046.046.072.086.112.13a2.528,2.528,0,0,0,.22-.655H24.5a1.685,1.685,0,0,1,.382.2,2.987,2.987,0,0,1,.384.33" fill="#d39245"/>
      <path id="Path_359678" data-name="Path 359678" d="M16.807,17.7a1.284,1.284,0,0,1-.067-.651c.007-.044.03-.083.041-.126a10.958,10.958,0,0,1-3.944.759c-6.31,0-9.918-5.294-11.176-7.57H.053a2.532,2.532,0,0,0,.256.742,19.183,19.183,0,0,0,4.013,5.032,12.634,12.634,0,0,0,8.507,3.334,12.455,12.455,0,0,0,4.427-.833,2.7,2.7,0,0,1-.212-.248,1.83,1.83,0,0,1-.237-.439" fill="#d8a45a"/>
      <path id="Path_359679" data-name="Path 359679" d="M14.545,10.292l-.158-.005A2.434,2.434,0,0,1,12.15,7.9a.409.409,0,0,0-.411-.4.393.393,0,0,0-.227.07,2.419,2.419,0,1,0,3.36,3.359.4.4,0,0,0,.063-.3.408.408,0,0,0-.39-.333" fill="#d8a45a"/>
      <path id="Path_359680" data-name="Path 359680" d="M24.387,10.053l.006,0c.034.01.067.038.1.051H25.6a2.528,2.528,0,0,0-.271-1.738A19.514,19.514,0,0,0,21.3,3.338a12.413,12.413,0,0,0-16.937,0A19.537,19.537,0,0,0,.319,8.363,2.534,2.534,0,0,0,.053,10.11H1.661a1.018,1.018,0,0,1,0-1c1.28-2.278,4.931-7.579,11.177-7.579s9.877,5.3,11.153,7.584a1,1,0,0,1,.044.88,1.356,1.356,0,0,1,.352.058" fill="#0a5923"/>
      <path id="Path_359681" data-name="Path 359681" d="M24.046,12.878l.783-.783a.271.271,0,0,0,.073-.128.327.327,0,0,0-.01-.162,21.227,21.227,0,0,1-.108-.2,2,2,0,0,0-.225-.259,1.955,1.955,0,0,0-.255-.221.8.8,0,0,0-.206-.111A.308.308,0,0,0,23.935,11a.266.266,0,0,0-.128.072l-1.156,1.156-1,1-.358.357-.311-.311-1.961-1.96a.263.263,0,0,0-.128-.073.333.333,0,0,0-.169.01.817.817,0,0,0-.211.1,1.445,1.445,0,0,0-.239.2c-.013.013-.018.024-.03.037a1.486,1.486,0,0,0-.173.209.792.792,0,0,0-.1.21.346.346,0,0,0-.011.169c0,.011.014.02.018.03a.278.278,0,0,0,.062.1l2.265,2.265-.926.926-1.587,1.587a.218.218,0,0,0-.066.121.307.307,0,0,0,.021.152.865.865,0,0,0,.114.2,1.931,1.931,0,0,0,.22.256,2.025,2.025,0,0,0,.163.141c.031.025.068.064.1.083a.879.879,0,0,0,.2.111.305.305,0,0,0,.152.021.218.218,0,0,0,.121-.066L20,16.922l.431-.431.895-.895,2.265,2.265a.289.289,0,0,0,.131.076.323.323,0,0,0,.173-.007.879.879,0,0,0,.211-.1,1.566,1.566,0,0,0,.244-.2,1.653,1.653,0,0,0,.2-.235.686.686,0,0,0,.1-.21.374.374,0,0,0,.007-.174.275.275,0,0,0-.072-.127l-2.272-2.272,1.361-1.361Z" fill="#111612"/>
    </g>
  </g>
</svg>
