<svg xmlns="http://www.w3.org/2000/svg" width="189" height="30" viewBox="0 0 189 30">
  <g id="Group_2402" data-name="Group 2402" transform="translate(-30 -131)">
    <g id="key" transform="translate(182.903 -242.326) rotate(90)">
      <path id="Path_359674" data-name="Path 359674" d="M385.326,122.6a15,15,0,1,1,6,0v12.3h6a3,3,0,0,1,0,6h-6v6h6a3,3,0,0,1,0,6h-9a3,3,0,0,1-3-3Zm3-23.7a9,9,0,1,1-9,9A9.005,9.005,0,0,1,388.326,98.9Z" transform="translate(0)" fill="#f2bf75"/>
    </g>
    <path id="Ellipse_356" data-name="Ellipse 356" d="M15,6a9,9,0,1,0,9,9,9.01,9.01,0,0,0-9-9m0-6A15,15,0,1,1,0,15,15,15,0,0,1,15,0Z" transform="translate(103 131)" fill="#f2bf75"/>
    <path id="Ellipse_356-2" data-name="Ellipse 356" d="M15,6a9,9,0,1,0,9,9,9.01,9.01,0,0,0-9-9m0-6A15,15,0,1,1,0,15,15,15,0,0,1,15,0Z" transform="translate(189 131)" fill="#f2bf75"/>
    <path id="Ellipse_356-3" data-name="Ellipse 356" d="M15,6a9,9,0,1,0,9,9,9.01,9.01,0,0,0-9-9m0-6A15,15,0,1,1,0,15,15,15,0,0,1,15,0Z" transform="translate(146 131)" fill="#f2bf75"/>
  </g>
</svg>
