<svg xmlns="http://www.w3.org/2000/svg" width="380.269" height="226.011" viewBox="0 0 380.269 226.011">
  <g id="subscription_bg" data-name="subscription bg" transform="translate(-73.398 -86.37)" opacity="0.128">
    <g id="Group_2183" data-name="Group 2183">
      <rect id="Rectangle_690" data-name="Rectangle 690" width="76.707" height="19.168" rx="7.93" transform="translate(89.906 198.98)" fill="#d3ede8"/>
      <rect id="Rectangle_691" data-name="Rectangle 691" width="29.221" height="19.168" rx="7.93" transform="translate(118.711 185.517)" fill="#d3ede8"/>
    </g>
    <g id="Group_2184" data-name="Group 2184">
      <rect id="Rectangle_692" data-name="Rectangle 692" width="76.707" height="19.168" rx="7.93" transform="translate(411.443 268.069) rotate(180)" fill="#d3ede8"/>
      <rect id="Rectangle_693" data-name="Rectangle 693" width="29.221" height="19.168" rx="7.93" transform="translate(382.638 254.606) rotate(180)" fill="#d3ede8"/>
    </g>
    <g id="Group_2185" data-name="Group 2185" opacity="0.325">
      <rect id="Rectangle_694" data-name="Rectangle 694" width="81.206" height="26.706" rx="11.049" transform="translate(202.245 157.691) rotate(180)" fill="#13d2c2"/>
      <rect id="Rectangle_695" data-name="Rectangle 695" width="40.713" height="26.706" rx="11.049" transform="translate(187.779 138.933) rotate(180)" fill="#13d2c2"/>
    </g>
    <g id="Group_2186" data-name="Group 2186" transform="translate(158.615 3.392)" style="mix-blend-mode: multiply;isolation: isolate">
      <path id="Rectangle_696" data-name="Rectangle 696" d="M9.935,0H63.088a9.936,9.936,0,0,1,9.936,9.936V14.08a9.935,9.935,0,0,1-9.935,9.935H9.936A9.936,9.936,0,0,1,0,14.079V9.935A9.935,9.935,0,0,1,9.935,0Z" transform="translate(123.216 308.99) rotate(180)" fill="#ceeded"/>
      <path id="Rectangle_697" data-name="Rectangle 697" d="M9.936,0h16.74a9.935,9.935,0,0,1,9.935,9.935V14.08a9.935,9.935,0,0,1-9.935,9.935H9.936A9.936,9.936,0,0,1,0,14.08V9.936A9.936,9.936,0,0,1,9.936,0Z" transform="translate(100.988 292.123) rotate(180)" fill="#ceeded"/>
    </g>
    <g id="Group_2187" data-name="Group 2187" transform="translate(158.615 3.392)">
      <path id="Rectangle_698" data-name="Rectangle 698" d="M9.935,0H63.088a9.935,9.935,0,0,1,9.935,9.935V14.08a9.936,9.936,0,0,1-9.936,9.936H9.936A9.936,9.936,0,0,1,0,14.08V9.935A9.935,9.935,0,0,1,9.935,0Z" transform="translate(119.357 305.56) rotate(180)" fill="#13d2c2"/>
      <path id="Rectangle_699" data-name="Rectangle 699" d="M9.936,0h16.74a9.936,9.936,0,0,1,9.936,9.936V14.08a9.936,9.936,0,0,1-9.936,9.936H9.935A9.935,9.935,0,0,1,0,14.08V9.936A9.936,9.936,0,0,1,9.936,0Z" transform="translate(97.129 288.692) rotate(180)" fill="#13d2c2"/>
    </g>
    <path id="Path_2546" data-name="Path 2546" d="M149.49,183.188c-11.039,7.466-22.382,15.236-29.61,26.433s-9.327,26.821-1.417,37.546c6.761,9.168,18.841,12.569,30.159,13.867,26.259,3.013,53.008-2.148,77.616-11.794s47.272-23.659,68.955-38.775c9.981-6.958,19.906-14.23,28.276-23.12,9.38-9.961,13.637-22.7,19.216-35.079,1.874-4.158,3.548-9.6.3-12.8-1.767-1.747-4.507-2.136-6.966-1.776a14.168,14.168,0,0,0-9.1,22.755c4.194,5.353,11.871,7.007,18.526,5.61s12.478-5.336,17.82-9.543a153.125,153.125,0,0,0,34.185-37.72" fill="none" stroke="#0284c4" stroke-width="1" stroke-dasharray="8"/>
    <g id="Group_2189" data-name="Group 2189">
      <path id="Path_2547" data-name="Path 2547" d="M362.8,160.388l22.726-21.26-12.8-3.553Z" fill="#06637f"/>
      <g id="Group_2188" data-name="Group 2188">
        <path id="Path_2548" data-name="Path 2548" d="M362.953,129.2l-.149,31.192,10.61-24.263,63.15-49.754-74.154,40.988Z" fill="#0775a0"/>
        <path id="Path_2549" data-name="Path 2549" d="M344.477,120.421,363.191,129l73.373-42.633-91.978,31.82A1.2,1.2,0,0,0,344.477,120.421Z" fill="#0284c4"/>
        <path id="Path_2550" data-name="Path 2550" d="M436.564,86.371l-63.149,49.753,24.235,11.729a1.706,1.706,0,0,0,2.2-.654Z" fill="#0284c4"/>
      </g>
      <line id="Line_95" data-name="Line 95" y1="16.618" x2="43.407" transform="translate(357.846 102.127)" fill="none" stroke="#0284c4" stroke-linecap="round" stroke-width="3" style="mix-blend-mode: screen;isolation: isolate"/>
    </g>
    <g id="Group_2190" data-name="Group 2190">
      <path id="Path_2551" data-name="Path 2551" d="M109.449,196.7a5.6,5.6,0,1,1-5.6-5.6A5.6,5.6,0,0,1,109.449,196.7Z" fill="#fff" opacity="0.497"/>
      <path id="Path_2552" data-name="Path 2552" d="M220.737,120.859a5.6,5.6,0,1,1-5.6-5.6A5.6,5.6,0,0,1,220.737,120.859Z" fill="#fff" opacity="0.497"/>
      <path id="Path_2553" data-name="Path 2553" d="M132.11,323.09a5.6,5.6,0,1,1-5.6-5.6A5.6,5.6,0,0,1,132.11,323.09Z" transform="translate(2 -34.996)" fill="#fff" opacity="0.497"/>
      <circle id="Ellipse_348" data-name="Ellipse 348" cx="10.906" cy="10.906" r="10.906" transform="translate(73.397 204.742)" fill="#fff" opacity="0.497"/>
      <circle id="Ellipse_349" data-name="Ellipse 349" cx="8.794" cy="8.794" r="8.794" transform="translate(388.507 272.047) rotate(-45)" fill="#fff" opacity="0.497"/>
      <path id="Path_2554" data-name="Path 2554" d="M407.254,294.2a6.109,6.109,0,1,1-6.108-6.109A6.109,6.109,0,0,1,407.254,294.2Z" fill="#fff" opacity="0.497"/>
    </g>
    <g id="Group_2193" data-name="Group 2193">
      <g id="Group_2191" data-name="Group 2191" style="mix-blend-mode: multiply;isolation: isolate">
        <rect id="Rectangle_700" data-name="Rectangle 700" width="87.593" height="28.806" rx="11.918" transform="translate(366.074 218.749)" fill="#ceeded"/>
        <rect id="Rectangle_701" data-name="Rectangle 701" width="43.916" height="28.806" rx="11.918" transform="translate(381.677 198.516)" fill="#ceeded"/>
      </g>
      <g id="Group_2192" data-name="Group 2192">
        <rect id="Rectangle_702" data-name="Rectangle 702" width="87.592" height="28.806" rx="11.918" transform="translate(359.558 213.605)" fill="#13d2c2"/>
        <rect id="Rectangle_703" data-name="Rectangle 703" width="43.916" height="28.806" rx="11.918" transform="translate(375.162 193.372)" fill="#13d2c2"/>
      </g>
      <path id="Path_2555" data-name="Path 2555" d="M381.677,212.919s-4.7-12.9,9.2-15.015" fill="none" stroke="#13d2c2" stroke-linecap="round" stroke-width="4" style="mix-blend-mode: screen;isolation: isolate"/>
      <path id="Path_2556" data-name="Path 2556" d="M153.865,132.551s-4.7-12.9,9.2-15.015" fill="none" stroke="#13d2c2" stroke-linecap="round" stroke-width="4" style="mix-blend-mode: screen;isolation: isolate"/>
      <path id="Path_2557" data-name="Path 2557" d="M68.461,283.62s-4.7-12.9,9.2-15.015" transform="translate(156 3)" fill="none" stroke="#13d2c2" stroke-linecap="round" stroke-width="4" style="mix-blend-mode: screen;isolation: isolate"/>
    </g>
  </g>
</svg>
