<svg xmlns="http://www.w3.org/2000/svg" width="53.983" height="53.983" viewBox="0 0 53.983 53.983">
  <g id="Group_2060" data-name="Group 2060" transform="translate(-12.61 -12.611)">
    <path id="Path_2416" data-name="Path 2416" d="M38.385,64.253l-4.552,1.84a6.858,6.858,0,0,1-8.883-3.679l-1.918-4.52a3.249,3.249,0,0,0-1.721-1.721l-4.52-1.918a6.858,6.858,0,0,1-3.679-8.883l1.84-4.552a3.249,3.249,0,0,0,0-2.434l-1.84-4.552a6.858,6.858,0,0,1,3.679-8.883l4.52-1.918a3.249,3.249,0,0,0,1.721-1.721l1.918-4.52a6.858,6.858,0,0,1,8.883-3.679l4.552,1.84a3.249,3.249,0,0,0,2.434,0l4.552-1.84a6.858,6.858,0,0,1,8.883,3.679l1.918,4.52a3.249,3.249,0,0,0,1.721,1.721l4.52,1.918a6.858,6.858,0,0,1,3.679,8.883l-1.84,4.552a3.249,3.249,0,0,0,0,2.434l1.84,4.552a6.858,6.858,0,0,1-3.679,8.883l-4.52,1.918a3.249,3.249,0,0,0-1.721,1.721l-1.918,4.52a6.858,6.858,0,0,1-8.883,3.679l-4.552-1.84A3.249,3.249,0,0,0,38.385,64.253Zm3.787-3.347,4.552,1.84A3.249,3.249,0,0,0,50.931,61l1.918-4.52a6.858,6.858,0,0,1,3.634-3.634L61,50.931a3.249,3.249,0,0,0,1.743-4.208l-1.84-4.552a6.858,6.858,0,0,1,0-5.139l1.84-4.552A3.249,3.249,0,0,0,61,28.273l-4.52-1.918a6.858,6.858,0,0,1-3.634-3.634L50.931,18.2a3.249,3.249,0,0,0-4.208-1.743L42.172,18.3a6.858,6.858,0,0,1-5.139,0l-4.552-1.84A3.249,3.249,0,0,0,28.273,18.2l-1.918,4.52a6.858,6.858,0,0,1-3.634,3.634L18.2,28.273a3.249,3.249,0,0,0-1.743,4.208l1.84,4.552a6.858,6.858,0,0,1,0,5.139l-1.84,4.552A3.249,3.249,0,0,0,18.2,50.931l4.52,1.918a6.858,6.858,0,0,1,3.634,3.634L28.273,61a3.249,3.249,0,0,0,4.208,1.743l4.552-1.84A6.858,6.858,0,0,1,42.172,60.906Zm-6.037-16.79L48.9,31.355a2.166,2.166,0,0,1,3.063,3.063L37.666,48.71a2.166,2.166,0,0,1-3.063,0l-6.636-6.636a2.166,2.166,0,0,1,3.063-3.063Z" fill="#f2bf75"/>
  </g>
</svg>
