<svg xmlns="http://www.w3.org/2000/svg" width="64.108" height="73.963" viewBox="0 0 64.108 73.963">
  <path id="Union_21" data-name="Union 21" d="M5002.634-4082.18a7.4,7.4,0,0,1-6.146-7.29,7.4,7.4,0,0,1,6.146-7.289,7.4,7.4,0,0,1,8.223,4.828h12.8a7.371,7.371,0,0,0,7.048-5.292,7.307,7.307,0,0,1-2.125.347,7.4,7.4,0,0,1-7.4-7.4v-9.868a7.4,7.4,0,0,1,7.4-7.4h4.945a2.472,2.472,0,0,1,2.449,2.472v19.736a12.341,12.341,0,0,1-12.317,12.318h-12.8a7.4,7.4,0,0,1-6.97,4.935A7.44,7.44,0,0,1,5002.634-4082.18Zm-1.183-7.3a2.473,2.473,0,0,0,2.472,2.473,2.473,2.473,0,0,0,2.473-2.473,2.473,2.473,0,0,0-2.473-2.472A2.472,2.472,0,0,0,5001.452-4089.481Zm24.681-24.658v9.868a2.474,2.474,0,0,0,2.462,2.233,2.473,2.473,0,0,0,2.461-2.233l.024-12.342h-2.474A2.473,2.473,0,0,0,5026.132-4114.139Zm-54.263,9.868v-14.791a2.473,2.473,0,0,1,2.473-2.472h4.923a7.4,7.4,0,0,1,7.4,7.4v9.868a7.4,7.4,0,0,1-7.4,7.4A7.4,7.4,0,0,1,4971.87-4104.271Zm4.923,0a2.474,2.474,0,0,0,2.462,2.233,2.473,2.473,0,0,0,2.46-2.233v-9.868a2.473,2.473,0,0,0-2.473-2.474h-2.449Zm55.37-22.138a2.475,2.475,0,0,1-1.523-2.128,27.108,27.108,0,0,0-26.727-22.578,27.109,27.109,0,0,0-26.727,22.578,2.472,2.472,0,0,1-2.45,2.056h-.393a2.472,2.472,0,0,1-2.033-2.842,32.054,32.054,0,0,1,21.852-25.193,32.056,32.056,0,0,1,32.411,7.861,31.75,31.75,0,0,1,8.92,17.309,2.472,2.472,0,0,1-.75,2.506,2.474,2.474,0,0,1-1.637.619A2.473,2.473,0,0,1,5032.162-4126.409Zm-19.271-15.093a19.784,19.784,0,0,0-18.049,0,2.447,2.447,0,0,1-1.085.254,2.471,2.471,0,0,1-2.314-1.883,2.471,2.471,0,0,1,1.182-2.739,25.022,25.022,0,0,1,22.578,0,2.471,2.471,0,0,1,1.4,2.105,2.473,2.473,0,0,1-1.183,2.237,2.474,2.474,0,0,1-1.287.361A2.471,2.471,0,0,1,5012.891-4141.5Z" transform="translate(-4971.87 4156.037)" fill="#f2bf75"/>
</svg>
