<svg xmlns="http://www.w3.org/2000/svg" width="234.803" height="229.768" viewBox="0 0 234.803 229.768">
  <g id="under_maintenance_" data-name="under maintenance " transform="translate(-89.098 -216.544)">
    <g id="Group_2380" data-name="Group 2380" transform="translate(71.602 191.415)">
      <g id="shadow" transform="translate(17.496 229.34)">
        <path id="Path_2698" data-name="Path 2698" d="M201.117,956.467c4-.425,8-.887,11.992-1.348,13.21-1.523,26.423-2.478,39.659-3.409a163.272,163.272,0,0,1,28.246-.041c8.075.835,17.824,2.511,24.06,8.769,3.5,3.51,2.01,7.943-3.133,10.932-5.434,3.158-12.332,3.25-18.339,3.692-56.481,4.151-112.66-1.3-169.16-1.07-7.994.032-16.116.557-24.1.91-4.852.215-11.159,1.128-15.927-.192-3.012-.834-2.787-3.744-.494-5.252,4.185-2.752,10.491-3.064,15.253-3.376q18.684-1.223,37.352-2.7Q163.856,960.43,201.117,956.467Z" transform="translate(-72.172 -951.069)" opacity="0.08"/>
      </g>
      <g id="object" transform="translate(39.229 25.63)">
        <g id="Group_2301" data-name="Group 2301" transform="translate(146.954 76.624)">
          <g id="Group_2299" data-name="Group 2299" transform="translate(0.523)">
            <path id="Path_2699" data-name="Path 2699" d="M774.349,428.61l.625-4.92,2.1.208.314,3.476,1.032-.366-1.044,4.137-2.209.08Z" transform="translate(-774.349 -423.69)" fill="#ebceb1"/>
          </g>
          <g id="Group_2300" data-name="Group 2300" transform="translate(0 6.181)">
            <path id="Path_2700" data-name="Path 2700" d="M785.547,478.758c3.169.283,6.8.135,8.9-2.254,1.709-1.943,1.854-4.837,1.289-7.363a1.2,1.2,0,0,0-.4-.776,1.246,1.246,0,0,0-.8-.118l-8.464.653c-1.581.122-4.75,1-5.612-.232-.971-1.392-.977-4.837-1.31-6.484l-2.6-12.846-4.372.385q.064,5.914.127,11.828.046,4.228.091,8.457C772.479,477.51,779.406,478.21,785.547,478.758Z" transform="translate(-772.179 -449.338)" fill="#d1d9db"/>
          </g>
        </g>
        <path id="Path_2701" data-name="Path 2701" d="M821.874,528.022c2.586,1.967,3.688,5.494,4.329,8.76,2.637,13.444,1.292,27.312-.1,40.942-.156,1.525-.523,2.184-1.992,1.529-9.226-4.112-18.3-9.422-28.382-10.068,2.527-8.556,2.795-17.6,4.508-26.357a32.365,32.365,0,0,1,2.21-7.425,28.415,28.415,0,0,1,6.191-8.657c2.362-2.15,6.115-1.2,8.949-.479a13.992,13.992,0,0,1,3.424,1.191A7.243,7.243,0,0,1,821.874,528.022Z" transform="translate(-643.102 -424.285)" fill="#d1d9db"/>
        <g id="Group_2306" data-name="Group 2306" transform="translate(14.373 94.47)">
          <g id="Group_2303" data-name="Group 2303" transform="translate(40.91 14.976)">
            <g id="Group_2302" data-name="Group 2302">
              <path id="Path_2702" data-name="Path 2702" d="M392.385,560.332l2.567.724,2.055-1.162.467.3-.359.585,1.981-.486,1.485.706.36,2.137-1.085,1.978-2.194.146-2.335-1.136-3.559-.841Z" transform="translate(-391.768 -559.895)" fill="#ebceb1"/>
            </g>
          </g>
          <g id="Group_2305" data-name="Group 2305">
            <g id="Group_2304" data-name="Group 2304">
              <path id="Path_2703" data-name="Path 2703" d="M264.69,511.819l-25.727-6.305a12.22,12.22,0,0,1-2.719-1.668l-5.485-3.366c-1.25-.767-3.444-2.733-4.961-2.732-2.471,0-3.778,3.688-3.8,5.667-.055,6.074,5.619,8.677,9.849,11.934l4.08,2.111,28.565.57Z" transform="translate(-222.002 -497.748)" fill="#d1d9db"/>
            </g>
          </g>
        </g>
        <g id="Group_2310" data-name="Group 2310" transform="translate(7.525 68.189)">
          <g id="Group_2309" data-name="Group 2309" transform="translate(4.589 8.814)">
            <g id="Group_2308" data-name="Group 2308">
              <g id="Group_2307" data-name="Group 2307">
                <path id="Path_2704" data-name="Path 2704" d="M226.442,425.54c-3.279,1.094-6.778-1.3-9.942.282-2.057,1.028-3.456,3.617-3.793,6.232a7.116,7.116,0,0,0,.333,3.558,5.412,5.412,0,0,0,1.214,1.761,6.531,6.531,0,0,0,2.239,1.465,17.739,17.739,0,0,1-1.143,2.528l4.844.911.627-3.3a6.81,6.81,0,0,0,1.336-.575,10.3,10.3,0,0,0,4.708-8.178A20.708,20.708,0,0,0,226.442,425.54Z" transform="translate(-212.626 -425.263)" fill="#ebceb1"/>
              </g>
            </g>
          </g>
          <path id="Path_2705" data-name="Path 2705" d="M195.387,404.785c-.139-.236-.272-.476-.392-.723-1.454-3-2.234-6.523-.083-9.414a10.168,10.168,0,0,1,10.1-3.36c1.889.481,3.886,1.128,5.738.52a2.581,2.581,0,0,0,1.405-.983c.291-.455.366-1.025.667-1.474a1.8,1.8,0,0,1,3.037.393,6.151,6.151,0,0,0,.312,1.064c.405.715,1.393.746,2.208.853a1.058,1.058,0,0,1,.709.3c.3.372.014.961-.4,1.2-.575.329-1.58.237-1.943.883-.263.467.14,1.362.072,1.9a5.674,5.674,0,0,1-3.585,4.243c-1.648.615-3.123-.053-4.769-.474a14.872,14.872,0,0,0-1.419-.474,4.914,4.914,0,0,0-1.693.325,7.034,7.034,0,0,1-2.1.009,4.52,4.52,0,0,0-2.082.184,1.749,1.749,0,0,0-1.164,1.6c.048.85.9,1.512.888,2.364-.014.738-.67,1.289-.951,1.972-.217.529-.224,1.169-.62,1.581-.176.183-.414.3-.574.5-.209.258-.274.636-.552.816a.793.793,0,0,1-.981-.238,2.937,2.937,0,0,1-.453-1A14.058,14.058,0,0,0,195.387,404.785Z" transform="translate(-193.583 -388.688)" fill="#333"/>
        </g>
        <g id="Group_2322" data-name="Group 2322" transform="translate(0 92.686)">
          <path id="Path_2706" data-name="Path 2706" d="M183.122,490.4a3.692,3.692,0,0,0-2.154.212,3.451,3.451,0,0,0-1.232,1.476,85.28,85.28,0,0,0-10.064,49.116,148.739,148.739,0,0,1,29.615-2.314l-2.712-19.658c-.667-4.833-1.335-9.674-2.443-14.43a80.172,80.172,0,0,0-3.908-12.232C189.2,490.065,185.447,490.64,183.122,490.4Z" transform="translate(-167.601 -490.344)" fill="#d1d9db"/>
          <g id="Group_2315" data-name="Group 2315" transform="translate(8.658 46.991)">
            <g id="Group_2312" data-name="Group 2312" transform="translate(21.387 76.002)">
              <g id="Group_2311" data-name="Group 2311">
                <path id="Path_2707" data-name="Path 2707" d="M293.73,1002.925l1.9,1.779a2.371,2.371,0,0,1-.593,3.9c-.907.4-2.184.335-3.951-.874l-4.057-4.613.659-1.493,5.859-.885Z" transform="translate(-287.035 -1000.734)" fill="#1a1a1a"/>
              </g>
            </g>
            <g id="Group_2314" data-name="Group 2314">
              <g id="Group_2313" data-name="Group 2313">
                <path id="Path_2708" data-name="Path 2708" d="M222.383,685.344l9.433,38.54-2.779,37.706-9.308.8-2.148-34.01s-20.418-37.266-19.25-38.073S222.383,685.344,222.383,685.344Z" transform="translate(-198.284 -685.344)" fill="#3c6794"/>
              </g>
            </g>
          </g>
          <g id="Group_2320" data-name="Group 2320" transform="translate(0 46.694)">
            <g id="Group_2317" data-name="Group 2317" transform="translate(1.178 75.189)">
              <g id="Group_2316" data-name="Group 2316">
                <path id="Path_2709" data-name="Path 2709" d="M173.941,999.425l1.909,1.775a2.371,2.371,0,0,1-.585,3.9c-.906.4-2.183.339-3.953-.867l-4.066-4.605v-2.145l1.537-1.355,4.477.829Z" transform="translate(-167.246 -996.126)" fill="#1a1a1a"/>
              </g>
            </g>
            <g id="Group_2319" data-name="Group 2319">
              <g id="Group_2318" data-name="Group 2318">
                <path id="Path_2710" data-name="Path 2710" d="M188.668,686.848l-2.926,39.57-13.73,34.833-9.655-1.935,8.457-33.012s-7.916-41.749-6.556-42.156S188.668,686.848,188.668,686.848Z" transform="translate(-162.357 -684.111)" fill="#3c6794"/>
              </g>
            </g>
          </g>
          <g id="Group_2321" data-name="Group 2321" transform="translate(1.178 0.281)">
            <path id="Path_2711" data-name="Path 2711" d="M167.245,590.677l3.656-8.846,12.734-4.224-2.429-16.128,12.7-2.056,2.2,22.693,3.114,9.29-30.7,5.609Z" transform="translate(-167.245 -543.057)" fill="#3c6794"/>
            <path id="Path_2712" data-name="Path 2712" d="M208.641,503.608c.02-2.494-.108-5.333-2.013-6.944a2.4,2.4,0,0,0-1.517-.643c-1.146.007-1.924,1.127-2.5,2.121-.188-1.482-.3-3.119.572-4.335a3.948,3.948,0,0,1,5.129-.746,6.881,6.881,0,0,1,2.881,4.726,31.146,31.146,0,0,1,.2,5.69,78.538,78.538,0,0,0,.578,8.291,29.157,29.157,0,0,0-3.274.2C208.045,509.532,208.619,506.174,208.641,503.608Z" transform="translate(-193.992 -492.223)" fill="#3c6794"/>
            <path id="Path_2713" data-name="Path 2713" d="M251.2,500.312c-.276-2.4-.857-5.053-2.853-6.419-.495-.339-1.134-.711-1.1-1.309a1.08,1.08,0,0,1,.587-.821,2.576,2.576,0,0,1,3.123.822,7.136,7.136,0,0,1,1.231,3.253,91.9,91.9,0,0,1,1.591,13.887c.027.7-1.68.309-1.967-.007-.47-.517-.208-1.732-.211-2.354A64.273,64.273,0,0,0,251.2,500.312Z" transform="translate(-227.966 -491.508)" fill="#3c6794"/>
          </g>
        </g>
        <g id="Group_2331" data-name="Group 2331" transform="translate(150.39 86.017)">
          <g id="Group_2324" data-name="Group 2324" transform="translate(22.045 122.166)">
            <g id="Group_2323" data-name="Group 2323">
              <path id="Path_2714" data-name="Path 2714" d="M878.3,970.846l-.385,2.578.875,4.9,2.88-.273.542-7.26-.424-1.164Z" transform="translate(-877.918 -969.629)" fill="#514943"/>
            </g>
          </g>
          <g id="Group_2326" data-name="Group 2326" transform="translate(4.377 130.473)">
            <g id="Group_2325" data-name="Group 2325">
              <path id="Path_2715" data-name="Path 2715" d="M809.111,1004.1l-4.512,3.307.563,2.471,8.26-1.969-.672-3.57Z" transform="translate(-804.6 -1004.098)" fill="#514943"/>
            </g>
          </g>
          <g id="Group_2327" data-name="Group 2327" transform="translate(0 60.87)">
            <path id="Path_2716" data-name="Path 2716" d="M786.436,719.871l.147,33.92,7.561,31.836H800.3l-.385-36.928,3.7-27.911-2.713-5.522-13.677,1.553Z" transform="translate(-786.436 -715.267)" fill="#3c6794"/>
          </g>
          <g id="Group_2328" data-name="Group 2328" transform="translate(13.512 61.127)">
            <path id="Path_2717" data-name="Path 2717" d="M844.594,745.641l6.445,32.382,5.606-.653,1.534-25.289,2.881-27.659-2.9-8.091H842.506Z" transform="translate(-842.506 -716.329)" fill="#3c6794"/>
          </g>
          <g id="Group_2330" data-name="Group 2330" transform="translate(18.229)">
            <g id="Group_2329" data-name="Group 2329">
              <path id="Path_2718" data-name="Path 2718" d="M874.367,468.856c-.584-5.532-7.617-8.925-10.62-3.287a12.377,12.377,0,0,0-1.663,5.465,6.1,6.1,0,0,0,2.224,5.053l.027.018-.5,1.4a.447.447,0,0,0-.034.31.435.435,0,0,0,.278.208l1.633.619a1.868,1.868,0,0,0,.838.176c.628-.065,1.025-.729,1.184-1.35.038-.149.069-.3.1-.453C871.4,476.565,874.748,472.472,874.367,468.856Z" transform="translate(-862.083 -462.67)" fill="#eacdb0"/>
            </g>
          </g>
        </g>
        <g id="Group_2341" data-name="Group 2341" transform="translate(121.724)">
          <g id="Group_2340" data-name="Group 2340">
            <g id="Group_2338" data-name="Group 2338">
              <g id="Group_2333" data-name="Group 2333">
                <path id="Path_2720" data-name="Path 2720" d="M672.526,134.108a28.2,28.2,0,0,0-.377,5.614l-4.67,1.607L669,149.04l4.936-.292a28.591,28.591,0,0,0,2.482,5.046l-3.244,3.732,5.176,5.915,4.124-2.717a28.2,28.2,0,0,0,4.677,3.129l-.944,4.851,7.44,2.535,2.215-4.419a28.191,28.191,0,0,0,5.614.378l1.607,4.67,7.711-1.525-.292-4.936a28.605,28.605,0,0,0,5.046-2.482l3.731,3.245,5.915-5.176-2.717-4.124a28.214,28.214,0,0,0,3.128-4.677l4.851.943L733,145.7l-4.419-2.214a28.2,28.2,0,0,0,.378-5.614l4.67-1.608-1.525-7.71-4.936.292a28.568,28.568,0,0,0-2.482-5.046l3.244-3.732-5.176-5.915-4.124,2.717a28.206,28.206,0,0,0-4.677-3.129l.943-4.851-7.44-2.535-2.215,4.419a28.194,28.194,0,0,0-5.614-.378l-1.608-4.67-7.71,1.525.292,4.936a28.608,28.608,0,0,0-5.046,2.482l-3.732-3.244-5.915,5.176,2.717,4.124a28.2,28.2,0,0,0-3.128,4.677l-4.852-.944-2.535,7.44Zm49.354,9.951-14.682-5a6.663,6.663,0,0,0-2.8-5.687l5-14.682A21.97,21.97,0,0,1,721.88,144.059Zm-21.591,1.381a6.663,6.663,0,0,0,5.687-2.8l14.682,5a21.97,21.97,0,0,1-25.371,12.477Zm-.763-3.634a3.182,3.182,0,1,1,4.038-1.986A3.181,3.181,0,0,1,699.525,141.806Zm-20.3-8.276,14.682,5a6.664,6.664,0,0,0,2.8,5.687l-5,14.682A21.97,21.97,0,0,1,679.224,133.53Zm1.222-3.586a21.97,21.97,0,0,1,25.371-12.477l-5,14.682a6.663,6.663,0,0,0-5.687,2.8Z" transform="translate(-667.479 -105.722)" fill="rgba(242,191,117,0.25)" stroke="#f2bf75" stroke-linecap="round" stroke-linejoin="round" stroke-width="1"/>
              </g>
              <g id="Group_2332" data-name="Group 2332" transform="translate(24.055 24.055)">
                <path id="Path_2719" data-name="Path 2719" d="M767.785,211.655a9.015,9.015,0,1,0,11.441-5.626A9.016,9.016,0,0,0,767.785,211.655Zm5.522,1.881a3.182,3.182,0,1,1,1.986,4.038A3.182,3.182,0,0,1,773.307,213.536Z" transform="translate(-767.301 -205.544)" fill="#f2bf75"/>
              </g>
            </g>
          </g>
        </g>
        <g id="Group_2346" data-name="Group 2346" transform="translate(76.583 54.358)">
          <g id="Group_2343" data-name="Group 2343">
            <g id="Group_2342" data-name="Group 2342">
              <path id="Path_2725" data-name="Path 2725" d="M483.528,374.391l-3.369,1.689q.24,1.912.663,3.818t1.023,3.738l3.767.1a5.464,5.464,0,0,1,4.423,8.467l-2.082,3.162a39.826,39.826,0,0,0,5.243,5.689l3.315-1.8a5.464,5.464,0,0,1,8.064,5.121l-.221,3.767a39.805,39.805,0,0,0,7.378,2.328l1.976-3.229a5.464,5.464,0,0,1,9.544.4l1.69,3.369q1.912-.24,3.818-.663t3.738-1.023l.1-3.768a5.464,5.464,0,0,1,8.468-4.423l3.162,2.082a39.844,39.844,0,0,0,5.688-5.243l-1.8-3.315a5.464,5.464,0,0,1,5.121-8.064l3.767.221a39.8,39.8,0,0,0,2.327-7.378l-3.229-1.976a5.464,5.464,0,0,1,.4-9.544l3.369-1.69q-.24-1.912-.663-3.818t-1.023-3.738l-3.767-.1a5.464,5.464,0,0,1-4.423-8.467l2.082-3.162a39.822,39.822,0,0,0-5.244-5.689l-3.315,1.8a5.464,5.464,0,0,1-8.064-5.121l.222-3.767a39.808,39.808,0,0,0-7.378-2.327l-1.977,3.229a5.464,5.464,0,0,1-9.544-.4l-1.689-3.369q-1.912.24-3.818.663t-3.738,1.023l-.1,3.768a5.464,5.464,0,0,1-8.467,4.423l-3.162-2.082a39.823,39.823,0,0,0-5.689,5.244l1.8,3.315a5.464,5.464,0,0,1-5.121,8.064l-3.767-.222a39.813,39.813,0,0,0-2.328,7.378l3.229,1.977A5.464,5.464,0,0,1,483.528,374.391Zm33.292-7.446c-.13.1-.257.2-.38.317a5.313,5.313,0,0,0-.482.508l-15.933-2.4a20.846,20.846,0,0,1,10.692-12.837,2.274,2.274,0,0,1,3.231,1.542Zm16.736-7.782-11.013,7.35a5.256,5.256,0,0,0-1.425-.527l-2.872-12.869a2.275,2.275,0,0,1,2.274-2.769,20.825,20.825,0,0,1,13.291,5.229A2.271,2.271,0,0,1,533.556,359.163Zm-13.3,8.821a3.177,3.177,0,1,1-3.406,2.93A3.177,3.177,0,0,1,520.252,367.984Zm5.014,3.728a5.305,5.305,0,0,0-.086-1.665l10.927-7.293a2.268,2.268,0,0,1,3.382,1.07,21,21,0,0,1,.831,2.8,20.71,20.71,0,0,1-1.164,12.686,2.278,2.278,0,0,1-3.539.883ZM513.65,388.167l5.821-11.761a5.274,5.274,0,0,0,3.505-.878l10.122,8.289a2.274,2.274,0,0,1-.01,3.527,20.849,20.849,0,0,1-17.941,4.042A2.273,2.273,0,0,1,513.65,388.167ZM501.858,370.1l12.952,1.949a5.244,5.244,0,0,0,.861,2.107l-5.887,11.895a2.268,2.268,0,0,1-3.521.714,20.84,20.84,0,0,1-7.013-14.277A2.272,2.272,0,0,1,501.858,370.1Z" transform="translate(-480.159 -331.296)" fill="#eff7f1" stroke="#a6c4af" stroke-width="1"/>
            </g>
          </g>
        </g>
        <g id="Group_2354" data-name="Group 2354" transform="translate(66.391 4.944)">
          <g id="Group_2353" data-name="Group 2353" transform="translate(0)">
            <g id="Group_2351" data-name="Group 2351">
              <g id="Group_2347" data-name="Group 2347">
                <path id="Path_2727" data-name="Path 2727" d="M490.641,156.3a25.028,25.028,0,0,0,.231-3.017l-5.031-1.732-.927-5.193,4.116-3.371a26.452,26.452,0,0,0-2.89-5.408l-5.09,1.563-3.808-3.652,1.349-5.155a26.23,26.23,0,0,0-5.35-2.609l-3.225,4.245-5.224-.757-1.908-4.98a26.394,26.394,0,0,0-6.046,1.053l-.111,5.327-4.67,2.465-4.468-2.894a26.356,26.356,0,0,0-4.265,4.4l3.034,4.368-2.32,4.737-5.316.289a26.818,26.818,0,0,0-.632,3.141,28.7,28.7,0,0,0-.23,2.925l5.03,1.747.91,5.2-4.138,3.358a26.854,26.854,0,0,0,2.885,5.43l5.1-1.547,3.8,3.663-1.371,5.153a26.6,26.6,0,0,0,5.514,2.691l3.213-4.259,5.227.735,1.918,4.975a26.693,26.693,0,0,0,6.045-1.076l.1-5.327,4.659-2.485,4.475,2.882a26.39,26.39,0,0,0,4.257-4.416l-3.058-4.357,2.3-4.755,5.321-.3A26.939,26.939,0,0,0,490.641,156.3Zm-20.029,6.522a11.88,11.88,0,1,1,3.861-16.369A11.882,11.882,0,0,1,470.612,162.823Z" transform="translate(-437.861 -126.237)" fill="rgba(17,22,18,0.08)" stroke="#b4b5b4" stroke-linecap="square" stroke-linejoin="round" stroke-width="1"/>
              </g>
            </g>
          </g>
        </g>
        <g id="Group_2356" data-name="Group 2356" transform="translate(85.721 206.082)">
          <path id="Path_2732" data-name="Path 2732" d="M551.768,1012.271c.475-.227.906-.5.981-.794.082-.318-.179-.637-.5-.815-.916-.507-3.021-.259-4.083-.268-1.911-.016-3.822,0-5.732.061-.876.027-10.443.275-9.544,1.915.789,1.438,5.9,1.758,7.313,1.73a48.456,48.456,0,0,0,6.947-.492,19.739,19.739,0,0,0,3.433-.865C550.853,1012.647,551.33,1012.48,551.768,1012.271Z" transform="translate(-529.276 -998.43)" opacity="0.14"/>
          <g id="Group_2355" data-name="Group 2355">
            <circle id="Ellipse_353" data-name="Ellipse 353" cx="7.718" cy="7.718" r="7.718" fill="#435b6e"/>
            <path id="Path_2733" data-name="Path 2733" d="M529.912,982.187l-2.493-4.873,2.974-4.6,5.467.277,2.493,4.873-2.974,4.6Z" transform="translate(-525.168 -969.873)" fill="#2e414c"/>
            <circle id="Ellipse_354" data-name="Ellipse 354" cx="2.827" cy="2.827" r="2.827" transform="translate(4.891 4.891)" fill="#22323a"/>
          </g>
        </g>
        <g id="Group_2360" data-name="Group 2360" transform="translate(104.585 167.105)">
          <g id="Group_2357" data-name="Group 2357" transform="translate(0 6.946)">
            <path id="Path_2734" data-name="Path 2734" d="M599.343,843.532l8.147-15.54,6.778,4.148-10.056,14.372-2.681-.42a1.009,1.009,0,0,1-.667-.413Z" transform="translate(-598.624 -827.992)" fill="#2e414c"/>
            <path id="Path_2735" data-name="Path 2735" d="M602.34,877.567q3.353,1.212,6.9,2.352c1.01.324,1.637-1.24.587-1.568q-3.677-1.149-7.142-2.375C601.728,875.637,601.417,877.233,602.34,877.567Z" transform="translate(-600.478 -864.377)" fill="#435b6e"/>
            <path id="Path_2736" data-name="Path 2736" d="M596.89,888.787q3.128,1.174,6.421,2.285a.736.736,0,1,0,.493-1.387q-3.409-1.122-6.632-2.311C596.281,887.046,596.028,888.463,596.89,888.787Z" transform="translate(-596.359 -873.027)" fill="#435b6e"/>
            <path id="Path_2737" data-name="Path 2737" d="M614.575,851.834q3.872,1.184,8.028,2.258c1.19.307,2.213-1.887.964-2.193q-4.358-1.068-8.395-2.257C614.061,849.315,613.512,851.509,614.575,851.834Z" transform="translate(-609.752 -844.399)" fill="#435b6e"/>
            <path id="Path_2738" data-name="Path 2738" d="M608.552,864.745q3.614,1.25,7.45,2.415c1.095.332,1.847-1.454.706-1.788q-3.992-1.172-7.735-2.435C607.941,862.589,607.557,864.4,608.552,864.745Z" transform="translate(-605.174 -854.482)" fill="#435b6e"/>
          </g>
          <path id="Path_2739" data-name="Path 2739" d="M617.785,863.009l7.514-13.195,1.189,1.2-8.336,12Z" transform="translate(-612.621 -837.609)" fill="#fff" opacity="0.15"/>
          <g id="Group_2359" data-name="Group 2359" transform="translate(5.923)">
            <path id="Path_2740" data-name="Path 2740" d="M636.325,809.931c.1-2.657-1.961-5.527-4.582-7.132s-6.117-2.136-8.436-.836c-3.516,1.972-3.414,7.353,2.3,10.853S636.169,813.959,636.325,809.931Z" transform="translate(-620.937 -800.735)" fill="#5c7789"/>
            <g id="Group_2358" data-name="Group 2358" transform="translate(0.78)">
              <path id="Path_2741" data-name="Path 2741" d="M629.1,809.566c-5.719-3.5-6.145-8.352-2.879-9.914,2.153-1.03,5.551-.338,8.173,1.266s4.783,4.315,4.846,6.7C639.33,811.238,634.816,813.067,629.1,809.566Z" transform="translate(-624.173 -799.166)" fill="#435b6e"/>
              <path id="Path_2742" data-name="Path 2742" d="M639.7,803.892l4.086,1.355,2.863,3.148-.83,3.274-6.008-1.056-3-4.879Z" transform="translate(-633.768 -802.753)" fill="#2e414c"/>
              <path id="Path_2743" data-name="Path 2743" d="M650.284,813.524c-1.524-.933-2.109-2.343-1.417-3.039.6-.6,1.961-.452,3.119.257s1.911,1.857,1.649,2.661C653.33,814.337,651.807,814.457,650.284,813.524Z" transform="translate(-642.697 -807.474)" fill="#22323a"/>
            </g>
          </g>
        </g>
        <g id="Group_2364" data-name="Group 2364" transform="translate(118.988 103.945)">
          <g id="Group_2361" data-name="Group 2361" transform="translate(6.712 7.857)">
            <path id="Path_2744" data-name="Path 2744" d="M693.572,589.553l-9.592-16.425,6.026-3.456L699.6,586.1l-1.462,2.918a1.358,1.358,0,0,1-1.3.747Z" transform="translate(-683.98 -569.672)" fill="#2e414c"/>
            <path id="Path_2745" data-name="Path 2745" d="M692.565,585.943q2.979-2.813,5.848-5.756c.8-.823-.6-2.334-1.408-1.509q-2.869,2.943-5.848,5.756C690.323,585.221,691.732,586.729,692.565,585.943Z" transform="translate(-689.234 -576.326)" fill="#435b6e"/>
            <path id="Path_2746" data-name="Path 2746" d="M701.136,600.885q2.979-2.813,5.848-5.756c.8-.824-.6-2.334-1.408-1.509q-2.868,2.943-5.847,5.756C698.894,600.163,700.3,601.671,701.136,600.885Z" transform="translate(-695.74 -587.668)" fill="#435b6e"/>
            <path id="Path_2747" data-name="Path 2747" d="M709.706,615.828q2.98-2.813,5.848-5.756c.8-.824-.6-2.334-1.408-1.509q-2.868,2.943-5.848,5.756C707.465,615.106,708.874,616.614,709.706,615.828Z" transform="translate(-702.245 -599.009)" fill="#435b6e"/>
            <path id="Path_2748" data-name="Path 2748" d="M718.277,630.771q2.979-2.813,5.848-5.756c.8-.823-.6-2.334-1.408-1.509q-2.868,2.943-5.848,5.756C716.035,630.049,717.444,631.557,718.277,630.771Z" transform="translate(-708.75 -610.351)" fill="#435b6e"/>
          </g>
          <path id="Path_2749" data-name="Path 2749" d="M711.182,594.062l-.468.971-9.984-16.06,2.485-1.807Z" transform="translate(-689.982 -567.504)" fill="#fff" opacity="0.08"/>
          <g id="Group_2363" data-name="Group 2363">
            <path id="Path_2750" data-name="Path 2750" d="M671.852,539.622c-2.349-1.074-6-.28-8.792,1.483s-5.06,4.709-5.07,7.274c-.016,3.889,4.9,5.787,10.991,1.94S675.415,541.251,671.852,539.622Z" transform="translate(-657.542 -538.636)" fill="#5c7789"/>
            <g id="Group_2362" data-name="Group 2362">
              <path id="Path_2751" data-name="Path 2751" d="M666.574,547.2c-6.09,3.847-10.695,2.436-10.437-1.076.17-2.317,2.533-5.115,5.324-6.878s6.348-2.7,8.537-1.879C673.319,538.622,672.664,543.356,666.574,547.2Z" transform="translate(-656.127 -537.067)" fill="#435b6e"/>
              <path id="Path_2752" data-name="Path 2752" d="M668.2,548.956l3.315-3.172,4.31-1.41,2.535,1.956-4.027,5.01-5.944.891Z" transform="translate(-665.292 -542.613)" fill="#2e414c"/>
              <path id="Path_2753" data-name="Path 2753" d="M679.075,554.232c-1.623,1.025-3.2,1.03-3.473.15-.237-.757.594-1.929,1.828-2.709s2.657-1.031,3.249-.5C681.368,551.795,680.7,553.207,679.075,554.232Z" transform="translate(-670.879 -547.561)" fill="#22323a"/>
            </g>
          </g>
        </g>
        <g id="Group_2369" data-name="Group 2369" transform="translate(4.583 71.405)">
          <g id="Group_2365" data-name="Group 2365" transform="translate(89.367 20.717)">
            <rect id="Rectangle_738" data-name="Rectangle 738" width="13.716" height="5.229" rx="2.614" transform="matrix(-0.321, -0.947, 0.947, -0.321, 4.397, 14.669)" fill="#2e414c"/>
            <path id="Path_2754" data-name="Path 2754" d="M560.779,528.32q3.316-.059,6.632-.052c.626,0,.688.978.056.977q-3.316-.007-6.632.052C560.208,529.308,560.146,528.331,560.779,528.32Z" transform="translate(-558.38 -518.566)" fill="#435b6e"/>
            <path id="Path_2755" data-name="Path 2755" d="M556.689,516.235q3.316-.059,6.632-.051c.626,0,.688.978.056.977q-3.316-.008-6.632.051C556.118,517.223,556.057,516.246,556.689,516.235Z" transform="translate(-555.275 -509.393)" fill="#435b6e"/>
            <path id="Path_2756" data-name="Path 2756" d="M554.313,505.254q3.316-.059,6.632-.052c.626,0,.688.978.056.977q-3.316-.007-6.632.052C553.741,506.242,553.68,505.265,554.313,505.254Z" transform="translate(-553.472 -501.058)" fill="#435b6e"/>
          </g>
          <path id="Path_2757" data-name="Path 2757" d="M555.522,492.752q1.852-.261,3.713-.469c.915-.1,2.293-.515,3.2-.029.864.464,1.306,1.778,1.7,2.616a29.955,29.955,0,0,1,1.424,3.572,31.351,31.351,0,0,1,.874,3.323c.182.877.325,1.749-.406,2.349-1.585,1.3-4.406,1.127-6.369,1.1-1.169-.016-1.349-1.886-.172-1.87a14.8,14.8,0,0,0,4.791-.473c.58-.186.507-.2.382-.836-.094-.475-.208-.948-.331-1.417q-.325-1.235-.757-2.444t-.967-2.376a10.959,10.959,0,0,0-.643-1.309c-.347-.541-.355-.479-.9-.508a15.281,15.281,0,0,0-2.484.265q-1.446.17-2.886.375C554.543,494.783,554.377,492.913,555.522,492.752Z" transform="translate(-464.769 -470.337)" fill="#afbdc6"/>
          <path id="Path_2758" data-name="Path 2758" d="M535.291,497.326c.874-.247,1.763-.365,2.635-.621.135-.046.27-.089.4-.13,1.155-.351,1.859,1.382.7,1.793q-.451.16-.907.3c-.708.274-1.328.692-1.289,1.563a11.14,11.14,0,0,0,.934,3.432,15.708,15.708,0,0,0,1.707,3.177c.409.586.365.714,1.053.629.613-.076,1.224-.161,1.836-.241a.889.889,0,0,1,1.02.873.836.836,0,0,1-.257,1.172c-1.364.915-3.22,1.815-4.746.594a6.441,6.441,0,0,1-1.471-2.628l-1.372-3.177c-.646-1.5-2.118-3.661-1.68-5.36A1.9,1.9,0,0,1,535.291,497.326Z" transform="translate(-448.854 -473.757)" fill="#2e414c"/>
          <path id="Path_2759" data-name="Path 2759" d="M604.6,508.432c2.543-.267,5.017-.727,7.521-1.24a46.534,46.534,0,0,0,4.952-1.16c1.6-.515,3.193-1.077,4.813-1.54,1.211-.345,5-1.8,5.778-.225.47.952-.5,2.109-1.06,2.785-.837,1-1.714,2.019-2.611,2.955a45.187,45.187,0,0,1-9.05,7.289,27.369,27.369,0,0,1-8.445,3.588q-.518.11-1.042.192a.775.775,0,0,1-.438-.019.794.794,0,0,1-.35-.527,86.42,86.42,0,0,1-2.575-10.258,2.017,2.017,0,0,1,.056-1.322C602.491,508.3,603.975,508.5,604.6,508.432Z" transform="translate(-500.644 -479.087)" fill="#627a89"/>
          <g id="Group_2366" data-name="Group 2366" transform="translate(2.656)">
            <path id="Path_2760" data-name="Path 2760" d="M276.581,449.929a.8.8,0,0,0-.625,1.083l3.216,9.292a.911.911,0,0,0,.967.619l4.084-.593,3.017,8.831h0c-.1-.132-1.351-.142-1.786-.316a7.847,7.847,0,0,0-2.286-.492c-5.323-.532-10.977-.695-15.515,2.6-7.3,5.306-14.47,10.8-21.644,16.276-7.277,5.551-14.5,11.181-21.585,16.97l-.425.348c-3.506,2.868-6.98,5.775-10.464,8.67q-2.717,2.259-5.446,4.5c-1.958,1.6-3.172,3.283-5.935,2.42a14.463,14.463,0,0,1-6.55-4.511,13.168,13.168,0,0,1-2.647-5.607c-.473-2.222-1.329-4.987.955-6.44,1-.637,1.992-1.272,2.95-1.977,14.74-10.016,29.742-19.992,44.269-30.431q1.544-1.11,3.091-2.216c3.815-2.725,10.152-7.61,13.878-10.461,7.259-5.553,8.1-9.654,12.282-16.4,1.688-2.722,3.265-5.512,4.767-8.341l5.357,15.682Z" transform="translate(-192.398 -426.115)" fill="#435b6e"/>
            <path id="Path_2761" data-name="Path 2761" d="M547.765,402.144c5.492-1.038,19,5.694,22.554,7.177s1.241,4.283,1.241,4.283c-.637.1-1.272.2-1.908.3q-2.578.426-5.145.919-1.876.363-3.745.752c-.623.129-1.248.255-1.87.391-.5.109-.953.364-1.446.517-.548.17-1.1.339-1.629.555a10.371,10.371,0,0,0-2.936,1.724c-.289.258-.736.928-.578,1.367l8.654,24.069a.443.443,0,0,1-.408.593l-13.433.285s.62-.479.468-2.171a24.259,24.259,0,0,0-.6-3.433c-.281-1.18-.623-2.343-.974-3.5l3.4-.493a1.643,1.643,0,0,0,1.232-2.286l-3.076-8.016a.911.911,0,0,0-.94-.592l-3.962.492q-2.928-8.734-6.716-17.147-.454.877-.918,1.748l-.241-.705C536.919,406.307,542.274,403.182,547.765,402.144Z" transform="translate(-452.275 -402.036)" fill="#243e52"/>
            <path id="Path_2762" data-name="Path 2762" d="M575.353,542.871c.351,1.161.693,2.323.974,3.5a24.275,24.275,0,0,1,.6,3.433c.152,1.692-.466,2.17-.468,2.171l-3.017-8.831Z" transform="translate(-481.622 -508.933)" fill="#c1d0db"/>
            <path id="Path_2763" data-name="Path 2763" d="M543.418,443.651l-2.278.283-5.357-15.682q.463-.872.918-1.749Q540.484,434.9,543.418,443.651Z" transform="translate(-453.035 -420.608)" fill="#c1d0db"/>
          </g>
          <g id="Group_2367" data-name="Group 2367" transform="translate(0 47.404)">
            <path id="Path_2764" data-name="Path 2764" d="M238.874,612.4l-.394.3c-7.751,5.913-15.44,11.91-22.992,18.077l-.453.37c-3.734,3.055-7.435,6.151-11.146,9.235q-2.894,2.405-5.8,4.794c-2.086,1.71-3.378,3.5-6.322,2.578a15.4,15.4,0,0,1-6.977-4.805,14.028,14.028,0,0,1-2.82-5.973c-.5-2.367-1.416-5.312,1.017-6.86,1.068-.679,2.122-1.354,3.142-2.106,13.994-9.509,28.811-19.438,42.692-29.259Z" transform="translate(-181.375 -598.751)" fill="#f2bf75"/>
            <circle id="Ellipse_355" data-name="Ellipse 355" cx="3.92" cy="3.92" r="3.92" transform="matrix(0.664, -0.748, 0.748, 0.664, 5.279, 38.292)" fill="#fff"/>
          </g>
          <path id="Path_2765" data-name="Path 2765" d="M405.081,526.773l-3.063-4.157a1.75,1.75,0,0,1,.37-2.448c4.981-3.668,21.505-15.9,22.521-17.462.9-1.38,1.854-2.725,2.8-4.073.541-.771,2.315-4.294,3.161-4.534,1.9-.539,2.8,4.741,3.222,5.975.842,2.449,1.65,4.908,2.446,7.372a1.228,1.228,0,0,1-1.106,1.6,14.647,14.647,0,0,0-6.846,1.863c-2.782,1.8-16.523,12.643-21.01,16.195A1.75,1.75,0,0,1,405.081,526.773Z" transform="translate(-348.588 -471.885)" fill="#fff" opacity="0.08"/>
          <g id="Group_2368" data-name="Group 2368" transform="translate(6.743 81.284)">
            <path id="Path_2766" data-name="Path 2766" d="M211.05,740.158a4.17,4.17,0,1,1-.884,5.831A4.175,4.175,0,0,1,211.05,740.158Zm.261.355a3.73,3.73,0,1,0,5.215.79A3.733,3.733,0,0,0,211.311,740.512Z" transform="translate(-209.355 -739.346)" fill="#435b6e"/>
          </g>
        </g>
        <g id="Group_2374" data-name="Group 2374" transform="translate(7.525 99.969)">
          <g id="Group_2371" data-name="Group 2371" transform="translate(30.887 34.387)">
            <g id="Group_2370" data-name="Group 2370">
              <path id="Path_2767" data-name="Path 2767" d="M323.559,663.265l2.169,1.749,2.45-.273.325.482-.585.415,2.1.346,1.137,1.287-.531,2.2-1.854,1.455-2.167-.76-1.777-2.049-3.073-2.268Z" transform="translate(-321.755 -663.265)" fill="#ebceb1"/>
            </g>
          </g>
          <g id="Group_2373" data-name="Group 2373">
            <g id="Group_2372" data-name="Group 2372">
              <path id="Path_2768" data-name="Path 2768" d="M228.577,554.486l-19.615-19.508a12.755,12.755,0,0,1-1.533-2.958l-3.092-5.967c-.705-1.36-1.608-4.3-2.965-5.118-2.211-1.331-5.368,1.263-6.451,3.024-3.323,5.4.349,10.791,2.378,15.985l2.512,4.088,25.246,15.908Z" transform="translate(-193.583 -520.569)" fill="#d1d9db"/>
            </g>
          </g>
        </g>
        <g id="Group_2375" data-name="Group 2375" transform="translate(5.875 64.38)">
          <path id="Path_2769" data-name="Path 2769" d="M186.74,400.568a12.651,12.651,0,0,0,2.452,6.682,8.11,8.11,0,0,0,1.994-.885,38.973,38.973,0,0,0,8.1-5.657,22.762,22.762,0,0,0,5.3-7.994,12.5,12.5,0,0,0-7.859-2.191C191.919,390.811,186.555,395.265,186.74,400.568Z" transform="translate(-186.736 -386.256)" fill="#3c6794"/>
          <path id="Path_2770" data-name="Path 2770" d="M243.537,373.246a2.848,2.848,0,0,1,2.755-.006c.893.71.691,2.11.287,3.177a15.775,15.775,0,0,1-7.519,8.384c-1.484.755-4.287,1.387-4.961-.807-.36-1.173.5-3.386,1.027-4.491C236.567,376.486,240.587,374.385,243.537,373.246Z" transform="translate(-222.621 -372.881)" fill="#3c6794"/>
        </g>
        <path id="Path_2771" data-name="Path 2771" d="M815.8,544.067l-2.4.013q.127-1.928.254-3.857a42.906,42.906,0,0,1,.639-5.75,21.538,21.538,0,0,1,3.679-8.352,2.845,2.845,0,0,0-3.721-.359,5.235,5.235,0,0,0-1.53,2.557,47.4,47.4,0,0,0-2.394,10.916,27.7,27.7,0,0,0-.345,4.863l-8.163.043q.157-2.384.314-4.768a42.973,42.973,0,0,1,.639-5.75,21.522,21.522,0,0,1,1.89-5.426c.816-1.612,1.653-3.625,3.2-4.554a10.447,10.447,0,0,0-3.973.609,4.65,4.65,0,0,0-2.692,3.216,47.38,47.38,0,0,0-2.393,10.916c-.166,1.688-.62,4.025-.216,5.688.008.03.013.057.019.086l-2.092.011-6.8,27.2h28.836Z" transform="translate(-638.54 -422.926)" fill="#3c6794"/>
        <g id="Group_2378" data-name="Group 2378" transform="translate(129.419 109.087)">
          <g id="Group_2376" data-name="Group 2376" transform="translate(0 9.907)">
            <path id="Path_2772" data-name="Path 2772" d="M703.968,603.871l-4.556-1.958.78-1.962,3.427.658-.067-1.093,3.688,2.145-.532,2.145Z" transform="translate(-699.412 -599.515)" fill="#ebceb1"/>
          </g>
          <g id="Group_2377" data-name="Group 2377" transform="translate(5.994)">
            <path id="Path_2773" data-name="Path 2773" d="M768,558.975a4.411,4.411,0,0,0-1.2-.433,8.257,8.257,0,0,0-5.536,1.015c-2.671,1.437-4.907,3.723-7.4,5.451l-8.546,5.931-20.2-1.624-.836,4.308,24.009,6.614c3.654-2.808,7.213-5.566,11.016-8.125,3.409-2.294,7.553-4.065,9.716-7.726C770.249,562.32,769.907,560.014,768,558.975Z" transform="translate(-724.286 -558.405)" fill="#d1d9db"/>
          </g>
        </g>
        <path id="Path_2774" data-name="Path 2774" d="M844.5,435.083a28.062,28.062,0,0,0-1.934-3.2c-.914-1.063-2.475-1.617-2.929-2.943a3.485,3.485,0,0,1,1.929-4.125,6.281,6.281,0,0,1,2.891-.421,4.339,4.339,0,0,1,1.432.272,2.7,2.7,0,0,1,1.608,2.078,7.671,7.671,0,0,0,.2,1.947c.847,2.016,3.248,2.293,5.071,2.765,1.863.482,3.591.561,5.2,1.785a7.726,7.726,0,0,1,2.366,8.468,9.715,9.715,0,0,1-6.74,5.99c-1.7.446-.277-.842.151-1.255a7.748,7.748,0,0,0,1.973-2.963,4.4,4.4,0,0,0-.693-4.353,6.669,6.669,0,0,0-3.665-1.647,12.476,12.476,0,0,0-2.626-.466,7.856,7.856,0,0,1-1.714.044A3.856,3.856,0,0,1,844.5,435.083Z" transform="translate(-676.307 -347.591)" fill="#534741"/>
        <g id="Group_2379" data-name="Group 2379" transform="translate(172.897 80.856)">
          <path id="Path_2775" data-name="Path 2775" d="M916.845,490.538a2.434,2.434,0,0,0,2.109.951,1.677,1.677,0,0,0,1.112-1.118,4.05,4.05,0,0,0,.129-1.628,14.839,14.839,0,0,0-4.055-9.076,2.137,2.137,0,0,0-1.657-.857c-.894.108-1.492,1.314-1.858,2.032-.286.561.807,1.3,1.067,1.889a3.48,3.48,0,0,1,.194,2.305,2.363,2.363,0,0,0,.09,1.836A15.1,15.1,0,0,0,916.845,490.538Z" transform="translate(-904.688 -469.754)" fill="#3c6794"/>
          <path id="Path_2776" data-name="Path 2776" d="M883.016,446.454a27.882,27.882,0,0,1,2.861,3.169c1.649,2.2,2.459,4.7,3.7,7.109.666,1.286,1.48.344,2.285-.486a7.789,7.789,0,0,0,1.432-8.853,15.678,15.678,0,0,0-3.034-3.884,8.7,8.7,0,0,0-6.214-2.255c-1.014.02-3.75.406-4.18,1.568C879.48,443.877,882.332,445.784,883.016,446.454Z" transform="translate(-879.834 -441.253)" fill="#3c6794"/>
        </g>
      </g>
    </g>
  </g>
</svg>
