<svg xmlns="http://www.w3.org/2000/svg" width="30" height="30" viewBox="0 0 30 30">
  <g id="watchlist_icon" data-name="watchlist icon" transform="translate(-193 -181)">
    <rect id="Rectangle_539" data-name="Rectangle 539" width="30" height="30" transform="translate(193 181)" fill="none"/>
    <g id="Group_1742" data-name="Group 1742" transform="translate(-125.303 -218.604)">
      <circle id="Ellipse_332" data-name="Ellipse 332" cx="1" cy="1" r="1" transform="translate(340.701 417.781)" fill="#d8a45a"/>
      <path id="Path_2272" data-name="Path 2272" d="M333.123,408.438a5.777,5.777,0,1,0,5.777,5.778,5.785,5.785,0,0,0-5.777-5.778Zm4.241,5.775a4.24,4.24,0,1,1-4.241-4.239v0A4.24,4.24,0,0,1,337.364,414.213Z" fill="#d8a45a"/>
      <path id="Path_2273" data-name="Path 2273" d="M343.006,416.718a.769.769,0,1,0,1.238.913,19.614,19.614,0,0,0,1.4-2.181,2.533,2.533,0,0,0,.256-.737h-1.608A18.06,18.06,0,0,1,343.006,416.718Z" fill="#d8a45a"/>
      <path id="Path_2274" data-name="Path 2274" d="M320.611,415.457a19.164,19.164,0,0,0,4.013,5.032,12.634,12.634,0,0,0,8.507,3.334,12.471,12.471,0,0,0,7.39-2.446.769.769,0,0,0-.882-1.257,10.976,10.976,0,0,1-6.5,2.165c-6.31,0-9.918-5.294-11.176-7.57v0h-1.608A2.509,2.509,0,0,0,320.611,415.457Z" fill="#d8a45a"/>
      <path id="Path_2275" data-name="Path 2275" d="M332.451,412.5a.41.41,0,0,0-.411-.4.393.393,0,0,0-.227.07,2.419,2.419,0,1,0,3.36,3.359.4.4,0,0,0,.063-.3.408.408,0,0,0-.39-.333l-.158-.005A2.434,2.434,0,0,1,332.451,412.5Z" fill="#d8a45a"/>
      <path id="Path_2276" data-name="Path 2276" d="M345.629,412.971a19.526,19.526,0,0,0-4.032-5.03,12.413,12.413,0,0,0-16.937,0,19.58,19.58,0,0,0-4.04,5.025,2.541,2.541,0,0,0-.266,1.747h1.608a1.022,1.022,0,0,1,0-1c1.28-2.278,4.931-7.579,11.177-7.579s9.877,5.3,11.153,7.584a1.006,1.006,0,0,1,0,.991v0H345.9A2.523,2.523,0,0,0,345.629,412.971Z" fill="#0a5923"/>
    </g>
  </g>
</svg>
