<svg xmlns="http://www.w3.org/2000/svg" xmlns:xlink="http://www.w3.org/1999/xlink" width="412" height="154" viewBox="0 0 412 154">
  <defs>
    <clipPath id="clip-path">
      <rect id="Rectangle_733" data-name="Rectangle 733" width="412" height="154" transform="translate(0 47.55)" fill="none"/>
    </clipPath>
    <clipPath id="clip-path-2">
      <path id="Path_2682" data-name="Path 2682" d="M839.958,1009.276a1.041,1.041,0,0,0,1.365.551l3.112-1.323a1.041,1.041,0,0,0,.551-1.365l-.192-.451,2.6-1.1a2.673,2.673,0,0,0,1.414-3.505l-7.63-17.946a2.673,2.673,0,0,0-3.505-1.414l-2.6,1.1-.192-.451a1.041,1.041,0,0,0-1.365-.551l-3.112,1.323a1.041,1.041,0,0,0-.551,1.365l.192.451-1.47.625-.192-.451a1.041,1.041,0,0,0-1.365-.551l-3.112,1.323a1.041,1.041,0,0,0-.551,1.365l.192.451-18.29,7.776a2.673,2.673,0,0,0-1.414,3.505l7.63,17.946a2.673,2.673,0,0,0,3.505,1.414l18.29-7.776.192.451a1.041,1.041,0,0,0,1.365.551l3.112-1.323a1.041,1.041,0,0,0,.551-1.365l-.192-.451,1.47-.625Z" transform="translate(-803.629 -982.505)" fill="#e2f0fe"/>
    </clipPath>
    <clipPath id="clip-path-3">
      <path id="Path_2687" data-name="Path 2687" d="M1873.445,568.021l7.293,15.8a2.4,2.4,0,0,1-1.174,3.188l-46.883,21.641a2.4,2.4,0,0,1-3.188-1.174l-7.293-15.8a2.4,2.4,0,0,1,1.174-3.188l46.883-21.641A2.4,2.4,0,0,1,1873.445,568.021Z" transform="translate(-1821.978 -566.625)" fill="#e2f0fe"/>
    </clipPath>
  </defs>
  <g id="no_weak_network" data-name="no / weak network" transform="translate(0 -304)">
    <g id="Group_2296" data-name="Group 2296" transform="translate(0 256.45)">
      <g id="Group_2295" data-name="Group 2295" clip-path="url(#clip-path)">
        <circle id="Ellipse_352" data-name="Ellipse 352" cx="68.423" cy="68.423" r="68.423" transform="translate(137.577 56.33)" fill="rgba(242,191,117,0.17)" stroke="#f2bf75" stroke-width="1"/>
        <g id="Group_2286" data-name="Group 2286" transform="translate(-146.767 -33.932)">
          <path id="Path_2679" data-name="Path 2679" d="M-767.487-24.827l13.5-5.74-6.948-16.343-13.5,5.74-.341-.8a2.673,2.673,0,0,0-3.505-1.414l-2.6,1.1-.192-.451a1.041,1.041,0,0,0-1.365-.551l-3.112,1.323A1.041,1.041,0,0,0-786.1-40.6l.192.451-1.471.625-.192-.451a1.041,1.041,0,0,0-1.365-.551l-3.112,1.323a1.041,1.041,0,0,0-.551,1.365l.192.451-18.29,7.776a2.673,2.673,0,0,0-1.414,3.505l1.713,4.029-6.072,2.581,1.067,2.509C-830.57-10.451-847.634-3.275-864.184-2.8c-7.085.2-20.834-2.42-33.3-22.262a137.037,137.037,0,0,1-8.424-16.176c-.391-.86-.77-1.781-1.172-2.755-1.931-4.687-4.12-10-9.23-12.577-7.3-3.682-13.819.457-19.057,3.783-.637.4-1.265.8-1.885,1.182-1.671,1.021-3.391,2.129-5.055,3.2-8.761,5.643-17.821,11.478-27.651,10.505-8.868-.877-16.784-6.741-21.174-15.688-8.784-17.9-7.326-36.005,4.458-55.35,10.386-17.051,26.849-32.151,41.374-45.473,2.2-2.016,4.273-3.919,6.307-5.81,4.133-3.843,8.792-8.422,11.77-14.145,3.389-6.514,3.933-13.508,1.491-19.189-2.088-4.861-6.469-9.006-13.02-12.323A62.552,62.552,0,0,0-972.3-212.6c-10.113.785-20.809,3.986-31.79,9.515-19.633,9.885-37.172,25.327-53.2,40.541l-11.405,10.826,3.549,3.739,11.405-10.826c15.742-14.943,32.934-30.092,51.969-39.676,10.38-5.226,20.43-8.247,29.871-8.98a57.468,57.468,0,0,1,30.813,6.179c5.444,2.756,9.015,6.04,10.613,9.759,1.8,4.191,1.3,9.714-1.328,14.774-2.6,4.994-6.889,9.2-10.707,12.749-2.021,1.879-4.09,3.777-6.281,5.786-14.777,13.554-31.526,28.916-42.292,46.591-5.977,9.813-9.412,19.149-10.5,28.543a56.447,56.447,0,0,0,5.817,31.76,36.838,36.838,0,0,0,3.412,5.633,31.119,31.119,0,0,0,21.883,12.914c11.619,1.149,21.889-5.466,30.95-11.3,1.714-1.1,3.333-2.147,4.952-3.137.644-.394,1.3-.808,1.959-1.228C-927-52-923-54.168-918.637-51.969c3.4,1.713,5.12,5.894,6.786,9.937.4.974.816,1.98,1.245,2.925a141.719,141.719,0,0,0,8.753,16.786C-895.914-12.872-883.1,2.9-864.037,2.351c17.515-.5,35.064-7.877,50.655-14.588l1.076,2.532,6.072-2.581,1.757,4.133a2.673,2.673,0,0,0,3.505,1.414l18.29-7.776.192.451a1.041,1.041,0,0,0,1.365.551l3.112-1.323a1.041,1.041,0,0,0,.551-1.365l-.192-.451,1.47-.625.192.451a1.041,1.041,0,0,0,1.365.551l3.112-1.323a1.041,1.041,0,0,0,.551-1.365l-.192-.451,2.6-1.1a2.673,2.673,0,0,0,1.414-3.505Z" transform="translate(1068.695 217.5)" fill="#0a5923" opacity="0.06"/>
          <g id="Group_2285" data-name="Group 2285" transform="translate(0.124)">
            <g id="Group_2284" data-name="Group 2284" transform="translate(252.229 165.551)">
              <g id="Group_2283" data-name="Group 2283" transform="translate(4.779 0)">
                <g id="Group_2282" data-name="Group 2282">
                  <g id="Group_2280" data-name="Group 2280" transform="translate(0 3.311)">
                    <path id="Path_2680" data-name="Path 2680" d="M839.958,1009.276a1.041,1.041,0,0,0,1.365.551l3.112-1.323a1.041,1.041,0,0,0,.551-1.365l-.192-.451,2.6-1.1a2.673,2.673,0,0,0,1.414-3.505l-7.63-17.946a2.673,2.673,0,0,0-3.505-1.414l-2.6,1.1-.192-.451a1.041,1.041,0,0,0-1.365-.551l-3.112,1.323a1.041,1.041,0,0,0-.551,1.365l.192.451-1.47.625-.192-.451a1.041,1.041,0,0,0-1.365-.551l-3.112,1.323a1.041,1.041,0,0,0-.551,1.365l.192.451-18.29,7.776a2.673,2.673,0,0,0-1.414,3.505l7.63,17.946a2.673,2.673,0,0,0,3.505,1.414l18.29-7.776.192.451a1.041,1.041,0,0,0,1.365.551l3.112-1.323a1.041,1.041,0,0,0,.551-1.365l-.192-.451,1.47-.625Z" transform="translate(-803.629 -982.505)" fill="#cfddd2"/>
                    <g id="Group_2279" data-name="Group 2279" clip-path="url(#clip-path-2)">
                      <path id="Path_2681" data-name="Path 2681" d="M781.021,978.578l40.186-16.941-7.624-14.259-40.519,17.789,3.654,9.574,4.3,3.838" transform="translate(-777.261 -952.201)" fill="#86b2e8" opacity="0.14"/>
                    </g>
                  </g>
                  <rect id="Rectangle_725" data-name="Rectangle 725" width="17.759" height="14.671" transform="matrix(0.391, 0.92, -0.92, 0.391, 51.387, 0)" fill="#0a5923"/>
                  <g id="Group_2281" data-name="Group 2281" transform="translate(47.359 1.292)">
                    <rect id="Rectangle_726" data-name="Rectangle 726" width="2.652" height="3.642" transform="matrix(0.391, 0.92, -0.92, 0.391, 3.352, 0)" fill="#fff"/>
                    <rect id="Rectangle_727" data-name="Rectangle 727" width="2.652" height="3.642" transform="matrix(0.391, 0.92, -0.92, 0.391, 5.084, 4.075)" fill="#fff"/>
                    <rect id="Rectangle_728" data-name="Rectangle 728" width="2.652" height="3.642" transform="matrix(0.391, 0.92, -0.92, 0.391, 6.817, 8.15)" fill="#fff"/>
                    <rect id="Rectangle_729" data-name="Rectangle 729" width="2.652" height="3.642" transform="translate(8.549 12.225) rotate(66.966)" fill="#fff"/>
                  </g>
                </g>
                <rect id="Rectangle_730" data-name="Rectangle 730" width="24.846" height="1.598" transform="matrix(0.391, 0.92, -0.92, 0.391, 26.416, 6.766)" fill="#0a5923"/>
              </g>
              <rect id="Rectangle_731" data-name="Rectangle 731" width="10.632" height="7.101" transform="translate(6.535 24.973) rotate(66.967)" fill="#a6c4af"/>
            </g>
            <path id="Path_2683" data-name="Path 2683" d="M-991.451-79.967a36.832,36.832,0,0,1-3.412-5.633,56.446,56.446,0,0,1-5.817-31.76c1.088-9.394,4.522-18.73,10.5-28.543,10.766-17.675,27.515-33.037,42.292-46.591,2.191-2.009,4.26-3.907,6.281-5.786,3.818-3.55,8.109-7.755,10.707-12.749,2.633-5.06,3.13-10.584,1.328-14.774-1.6-3.719-5.169-7-10.613-9.759A57.47,57.47,0,0,0-971-241.741c-9.442.733-19.491,3.754-29.871,8.98-19.036,9.584-36.227,24.733-51.969,39.676l-11.405,10.826-3.549-3.739,11.405-10.826c16.029-15.215,33.567-30.657,53.2-40.541,10.981-5.529,21.677-8.73,31.79-9.515a62.552,62.552,0,0,1,33.541,6.72c6.551,3.317,10.933,7.462,13.02,12.323,2.442,5.681,1.9,12.675-1.491,19.189-2.978,5.722-7.637,10.3-11.77,14.145-2.034,1.891-4.109,3.795-6.306,5.81-14.525,13.323-30.988,28.423-41.374,45.473-11.784,19.345-13.242,37.45-4.458,55.35,4.39,8.947,12.306,14.811,21.174,15.688,9.831.972,18.89-4.863,27.651-10.505,1.664-1.072,3.384-2.18,5.055-3.2.62-.379,1.248-.778,1.885-1.182,5.238-3.326,11.757-7.465,19.057-3.783,5.111,2.578,7.3,7.89,9.23,12.577.4.974.781,1.895,1.172,2.755a137.017,137.017,0,0,0,8.424,16.176c12.47,19.842,26.22,22.464,33.3,22.262,16.994-.485,34.531-8.039,50-14.7l2.241-.964L-809-48.015l-2.237.963c-15.9,6.847-33.914,14.608-51.895,15.122-19.068.545-31.878-15.223-37.816-24.671A141.753,141.753,0,0,1-909.7-73.389c-.429-.945-.844-1.951-1.245-2.925-1.666-4.043-3.388-8.225-6.786-9.937-4.361-2.2-8.364-.03-13.973,3.532-.662.42-1.315.835-1.959,1.228-1.619.99-3.238,2.033-4.952,3.137-9.061,5.836-19.331,12.451-30.95,11.3A31.118,31.118,0,0,1-991.451-79.967Z" transform="translate(1067.793 247.074)" fill="#a6c4af"/>
          </g>
        </g>
        <g id="Group_2293" data-name="Group 2293" transform="translate(232.551 -1.277)">
          <path id="Path_2684" data-name="Path 2684" d="M1992.791,217.333c-8.272.047-19.062-5.512-24.521-18.036-6.736-15.452-3.233-32.086.151-48.171q.388-1.842.768-3.67l.193-.934c3.851-18.614,7.834-37.865,7.9-57.244a87.554,87.554,0,0,0-6.635-33.981c-5.163-12.066-13.006-20.964-22.68-25.73-9.074-4.471-19.263-4.906-27.256-1.163-7.121,3.334-11.946,9.487-13.955,17.794-3.319,13.729-.609,28.073,2.011,41.947.337,1.781.67,3.547.988,5.3q.257,1.421.523,2.866c3.666,20,7.822,42.66-5.519,59.345-4.083,5.106-8.655,7.765-13.977,8.131-13.913.955-29.8-14.118-42.562-26.23A146.159,146.159,0,0,0,1835.3,126.1c-23.028-16.706-43.635-22.115-62.9-16.493l-1.574-3.409-7.211,3.329-1.462-3.167a2.4,2.4,0,0,0-3.188-1.174l-18.438,8.511-.359-.778a1.244,1.244,0,0,0-1.65-.608l-18.2,8.4a1.244,1.244,0,0,0-.608,1.65l.359.778-7.992,3.689a2.4,2.4,0,0,0-1.174,3.188l2.4,5.2-18.273,8.487a2.929,2.929,0,0,0,2.455,5.319l18.283-8.467,2.429,5.262a2.4,2.4,0,0,0,3.188,1.174l7.992-3.689.359.778a1.244,1.244,0,0,0,1.65.608l18.2-8.4a1.244,1.244,0,0,0,.608-1.65l-.359-.778,18.438-8.511a2.4,2.4,0,0,0,1.174-3.188l-1.092-2.366-.37-.8,7.211-3.329-1.76-3.812c18.4-5.223,38.2.1,60.43,16.227a144.969,144.969,0,0,1,12.673,11.24c13.111,12.441,29.427,27.924,44.412,26.9,5.959-.409,11.247-3.451,15.719-9.043,14.036-17.555,9.775-40.8,6.014-61.312q-.264-1.442-.523-2.861c-.318-1.754-.653-3.526-.99-5.313-2.573-13.619-5.235-27.7-2.037-40.918,1.828-7.561,6.19-13.147,12.615-16.155,7.328-3.431,16.725-3,25.14,1.142,9.144,4.505,16.583,12.977,21.513,24.5a85.061,85.061,0,0,1,6.438,33.012c-.063,19.133-4.021,38.262-7.848,56.757l-.193.934q-.377,1.823-.766,3.662c-3.466,16.463-7.049,33.484,0,49.652a35.409,35.409,0,0,0,10.674,13.747,26.205,26.205,0,0,0,16.1,5.756Z" transform="translate(-1693.33 -21.044)" fill="#0a5923" opacity="0.06"/>
          <g id="Group_2292" data-name="Group 2292" transform="translate(0.313)">
            <g id="Group_2291" data-name="Group 2291" transform="translate(0 79.094)">
              <g id="Group_2290" data-name="Group 2290">
                <g id="Group_2288" data-name="Group 2288" transform="translate(17.355)">
                  <path id="Path_2685" data-name="Path 2685" d="M1873.445,568.021l7.293,15.8a2.4,2.4,0,0,1-1.174,3.188l-46.883,21.641a2.4,2.4,0,0,1-3.188-1.174l-7.293-15.8a2.4,2.4,0,0,1,1.174-3.188l46.883-21.641A2.4,2.4,0,0,1,1873.445,568.021Z" transform="translate(-1821.978 -566.625)" fill="#cfddd2"/>
                  <g id="Group_2287" data-name="Group 2287" clip-path="url(#clip-path-3)">
                    <path id="Path_2686" data-name="Path 2686" d="M1853.018,546.966l-55.448,24.956-4.5-13.842,19.679-14.676,37.69-10.34Z" transform="translate(-1797.038 -537.674)" fill="#0a5923" opacity="0.082"/>
                  </g>
                </g>
                <path id="Path_2688" data-name="Path 2688" d="M1907.454,620.012l10.024,21.716a1.244,1.244,0,0,1-.608,1.65l-18.2,8.4a1.244,1.244,0,0,1-1.65-.608L1887,629.453a1.243,1.243,0,0,1,.608-1.65l18.2-8.4A1.244,1.244,0,0,1,1907.454,620.012Z" transform="translate(-1860.617 -612.057)" fill="#0a5923"/>
                <g id="Group_2289" data-name="Group 2289" transform="translate(28.569 9.745)">
                  <path id="Path_2689" data-name="Path 2689" d="M1983.266,772.66h0a.894.894,0,0,1-.437,1.186l-15.813,7.3a.894.894,0,0,1-1.186-.437h0a.894.894,0,0,1,.437-1.186l15.813-7.3A.894.894,0,0,1,1983.266,772.66Z" transform="translate(-1957.217 -753.661)" fill="#e2f0fe"/>
                  <path id="Path_2690" data-name="Path 2690" d="M1970.843,745.748h0a.894.894,0,0,1-.437,1.186l-15.813,7.3a.894.894,0,0,1-1.186-.437h0a.894.894,0,0,1,.437-1.186l15.813-7.3A.894.894,0,0,1,1970.843,745.748Z" transform="translate(-1946.5 -730.445)" fill="#e2f0fe"/>
                  <path id="Path_2691" data-name="Path 2691" d="M1958.42,718.836h0a.894.894,0,0,1-.437,1.186l-15.813,7.3a.894.894,0,0,1-1.186-.437h0a.894.894,0,0,1,.437-1.186l15.813-7.3A.894.894,0,0,1,1958.42,718.836Z" transform="translate(-1935.784 -707.229)" fill="#e2f0fe"/>
                  <path id="Path_2692" data-name="Path 2692" d="M1946,691.924h0a.894.894,0,0,1-.437,1.186l-15.813,7.3a.894.894,0,0,1-1.186-.437h0a.894.894,0,0,1,.437-1.186l15.813-7.3A.894.894,0,0,1,1946,691.924Z" transform="translate(-1925.068 -684.012)" fill="#e2f0fe"/>
                  <path id="Path_2693" data-name="Path 2693" d="M1933.575,665.012h0a.894.894,0,0,1-.437,1.186l-15.812,7.3a.894.894,0,0,1-1.186-.437h0a.894.894,0,0,1,.437-1.186l15.813-7.3A.894.894,0,0,1,1933.575,665.012Z" transform="translate(-1914.351 -660.797)" fill="#e2f0fe"/>
                  <path id="Path_2694" data-name="Path 2694" d="M1921.153,638.1h0a.894.894,0,0,1-.437,1.186l-15.813,7.3a.894.894,0,0,1-1.186-.437h0a.894.894,0,0,1,.437-1.186l15.813-7.3A.894.894,0,0,1,1921.153,638.1Z" transform="translate(-1903.634 -637.581)" fill="#e2f0fe"/>
                </g>
                <path id="Path_2695" data-name="Path 2695" d="M1715.6,787.187l2.455,5.319-18.293,8.444a2.929,2.929,0,0,1-3.887-1.432h0a2.929,2.929,0,0,1,1.432-3.887Z" transform="translate(-1695.606 -756.897)" fill="#a6c4af"/>
              </g>
              <rect id="Rectangle_732" data-name="Rectangle 732" width="10.424" height="7.942" transform="translate(74.653 14.027) rotate(-114.778)" fill="#a6c4af"/>
            </g>
            <path id="Path_2696" data-name="Path 2696" d="M2253.521,75.212c19.968-6.838,41.343-1.7,65.349,15.718a146.21,146.21,0,0,1,12.92,11.445c12.764,12.112,28.649,27.185,42.562,26.23,5.322-.365,9.894-3.025,13.977-8.131,13.341-16.685,9.185-39.349,5.519-59.345q-.265-1.444-.523-2.866c-.317-1.748-.651-3.514-.987-5.3-2.621-13.873-5.331-28.217-2.011-41.947,2.009-8.307,6.834-14.461,13.955-17.794,7.993-3.742,18.182-3.307,27.256,1.163,9.675,4.767,17.517,13.664,22.68,25.73a87.55,87.55,0,0,1,6.635,33.981c-.064,19.379-4.047,38.631-7.9,57.244l-.193.934q-.378,1.828-.768,3.67c-3.384,16.086-6.888,32.719-.151,48.171,5.459,12.524,16.25,18.083,24.521,18.036l.013,2.444a26.205,26.205,0,0,1-16.1-5.756A35.41,35.41,0,0,1,2449.6,165.1c-7.049-16.168-3.466-33.188,0-49.652q.387-1.838.767-3.662l.193-.934c3.827-18.5,7.784-37.624,7.848-56.757a85.064,85.064,0,0,0-6.437-33.012c-4.93-11.523-12.37-19.994-21.513-24.5-8.415-4.146-17.812-4.573-25.14-1.142-6.425,3.008-10.787,8.594-12.615,16.155-3.2,13.218-.536,27.3,2.037,40.918.338,1.787.672,3.559.99,5.313q.258,1.418.523,2.861c3.761,20.51,8.023,43.757-6.013,61.312-4.471,5.591-9.76,8.634-15.719,9.043-14.984,1.029-31.3-14.454-44.412-26.9a144.935,144.935,0,0,0-12.673-11.24c-23.315-16.914-43.962-21.946-63.122-15.385Z" transform="translate(-2176.901 9.299)" fill="#a6c4af"/>
          </g>
        </g>
        <g id="Group_2294" data-name="Group 2294" transform="translate(199.538 82.834)">
          <path id="Path_2697" data-name="Path 2697" d="M1455.318,635.555a4.425,4.425,0,0,1,2.359-2.359,4.5,4.5,0,0,1,3.461,0,4.425,4.425,0,0,1,2.359,2.359,4.5,4.5,0,0,1,0,3.461,4.426,4.426,0,0,1-2.359,2.359,4.5,4.5,0,0,1-3.461,0,4.426,4.426,0,0,1-2.359-2.359,4.5,4.5,0,0,1,0-3.461Zm10.551-69.69a9.288,9.288,0,0,0-1.448-5.682q-1.449-1.894-5.014-1.894t-5.014,1.894a9.284,9.284,0,0,0-1.448,5.682v22.774l3.342,33.916v-.089a3.1,3.1,0,0,0,1.159,2.318,3.41,3.41,0,0,0,3.9.022,3.019,3.019,0,0,0,1.136-2.251l3.387-33.916Z" transform="translate(-1452.945 -558.289)" fill="#f2bf75"/>
        </g>
      </g>
    </g>
  </g>
</svg>
