<svg xmlns="http://www.w3.org/2000/svg" xmlns:xlink="http://www.w3.org/1999/xlink" width="410" height="170.887" viewBox="0 0 410 170.887">
  <defs>
    <linearGradient id="linear-gradient" x1="0.5" x2="0.5" y2="1" gradientUnits="objectBoundingBox">
      <stop offset="0" stop-color="#f9fbf8"/>
      <stop offset="1" stop-color="#64a97d"/>
    </linearGradient>
  </defs>
  <g id="Group_2399" data-name="Group 2399" transform="translate(-2 -617.288)">
    <g id="Group_1670" data-name="Group 1670" transform="translate(1634.119 -21407.615)" opacity="0.301">
      <g id="Group_1669" data-name="Group 1669" transform="translate(-1634.121 21984)">
        <g id="Group_594" data-name="Group 594" transform="translate(0 120)">
          <path id="Union_13" data-name="Union 13" d="M2471.94-21740.291v-10.486c.061,0,.126.01.192.01s.126-.01.187-.01v10.486Zm-27.74,0v-10.486c.06,0,.126.01.187.01s.126-.01.192-.01v10.486Zm-27.746,0v-10.486c.066,0,.132.01.192.01s.126-.01.192-.01v10.486Zm-26.428,0v-10.486c.066,0,.126.01.192.01s.126-.01.187-.01v10.486Zm-27.306,0v-10.486c.066,0,.132.01.192.01s.126-.01.192-.01v10.486Zm-27.3,0v-10.486c.066,0,.126.01.187.01s.132-.01.192-.01v10.486Zm-27.306,0v-10.486c.066,0,.126.01.192.01s.126-.01.187-.01v10.486Zm-27.3,0v-10.486c.061,0,.126.01.187.01s.126-.01.192-.01v10.486Zm-27.306,0v-10.486c.06,0,.126.01.192.01s.126-.01.187-.01v10.486Zm-27.306,0v-10.486c.066,0,.132.01.192.01s.126-.01.192-.01v10.486Zm-27.3,0v-10.486c.061,0,.126.01.187.01s.126-.01.192-.01v10.486Zm-27.306,0v-10.486c.066,0,.126.01.192.01s.126-.01.187-.01v10.486Zm-26.428,0v-10.486c.06,0,.126.01.187.01s.132-.01.192-.01v10.486Zm-27.74,0v-10.486c.06,0,.126.01.187.01s.126-.01.192-.01v10.486Zm-27.746,0v-10.486c.066,0,.126.01.192.01s.126-.01.187-.01v10.486Zm379.85-13.869a2.6,2.6,0,0,1,2.6-2.6,2.6,2.6,0,0,1,2.6,2.6,2.6,2.6,0,0,1-2.6,2.6A2.6,2.6,0,0,1,2469.529-21754.16Zm-27.74,0a2.6,2.6,0,0,1,2.6-2.6,2.6,2.6,0,0,1,2.6,2.6,2.6,2.6,0,0,1-2.6,2.6A2.6,2.6,0,0,1,2441.789-21754.16Zm-27.746,0a2.6,2.6,0,0,1,2.6-2.6,2.6,2.6,0,0,1,2.6,2.6,2.6,2.6,0,0,1-2.6,2.6A2.6,2.6,0,0,1,2414.044-21754.16Zm-26.428,0a2.6,2.6,0,0,1,2.6-2.6,2.6,2.6,0,0,1,2.6,2.6,2.6,2.6,0,0,1-2.6,2.6A2.6,2.6,0,0,1,2387.616-21754.16Zm-27.306,0a2.6,2.6,0,0,1,2.6-2.6,2.6,2.6,0,0,1,2.6,2.6,2.6,2.6,0,0,1-2.6,2.6A2.6,2.6,0,0,1,2360.31-21754.16Zm-27.3,0a2.6,2.6,0,0,1,2.6-2.6,2.6,2.6,0,0,1,2.6,2.6,2.6,2.6,0,0,1-2.6,2.6A2.6,2.6,0,0,1,2333.009-21754.16Zm-27.306,0a2.6,2.6,0,0,1,2.6-2.6,2.6,2.6,0,0,1,2.6,2.6,2.6,2.6,0,0,1-2.6,2.6A2.6,2.6,0,0,1,2305.7-21754.16Zm-27.3,0a2.6,2.6,0,0,1,2.6-2.6,2.6,2.6,0,0,1,2.6,2.6,2.6,2.6,0,0,1-2.6,2.6A2.6,2.6,0,0,1,2278.4-21754.16Zm-27.306,0a2.6,2.6,0,0,1,2.6-2.6,2.6,2.6,0,0,1,2.6,2.6,2.6,2.6,0,0,1-2.6,2.6A2.6,2.6,0,0,1,2251.1-21754.16Zm-27.306,0a2.6,2.6,0,0,1,2.6-2.6,2.6,2.6,0,0,1,2.6,2.6,2.6,2.6,0,0,1-2.6,2.6A2.6,2.6,0,0,1,2223.789-21754.16Zm-27.3,0a2.6,2.6,0,0,1,2.6-2.6,2.6,2.6,0,0,1,2.6,2.6,2.6,2.6,0,0,1-2.6,2.6A2.6,2.6,0,0,1,2196.489-21754.16Zm-27.306,0a2.6,2.6,0,0,1,2.6-2.6,2.6,2.6,0,0,1,2.6,2.6,2.6,2.6,0,0,1-2.6,2.6A2.6,2.6,0,0,1,2169.182-21754.16Zm-26.428,0a2.6,2.6,0,0,1,2.6-2.6,2.6,2.6,0,0,1,2.6,2.6,2.6,2.6,0,0,1-2.6,2.6A2.6,2.6,0,0,1,2142.754-21754.16Zm-27.745,0a2.6,2.6,0,0,1,2.6-2.6,2.6,2.6,0,0,1,2.6,2.6,2.6,2.6,0,0,1-2.6,2.6A2.6,2.6,0,0,1,2115.009-21754.16Zm-27.74,0a2.6,2.6,0,0,1,2.6-2.6,2.6,2.6,0,0,1,2.6,2.6,2.6,2.6,0,0,1-2.6,2.6A2.6,2.6,0,0,1,2087.269-21754.16Zm388.246.191c0-.066.005-.131.005-.191s-.005-.127-.005-.193H2486v.385Zm-17.258,0h-10.482c0-.066.005-.131.005-.191s-.005-.127-.005-.193h20.97c0,.066-.006.127-.006.193s.006.125.006.191Zm-27.74,0h-10.488c.005-.066.011-.131.011-.191s-.006-.127-.011-.193H2441c0,.066-.005.127-.005.193s.005.125.005.191Zm-27.74,0H2393.6c0-.066.005-.131.005-.191s-.005-.127-.005-.193h19.663c-.005.066-.011.127-.011.193s.006.125.011.191Zm-26.428,0h-10.054c.006-.066.011-.131.011-.191s-.005-.127-.011-.193h20.536c0,.066-.006.127-.006.193s.006.125.006.191Zm-27.306,0h-10.048c0-.066.006-.131.006-.191s-.006-.127-.006-.193h20.536c-.006.066-.011.127-.011.193s.005.125.011.191Zm-27.306,0h-10.048c0-.066.011-.131.011-.191s-.011-.127-.011-.193h20.536c0,.066-.005.127-.005.193s.005.125.005.191Zm-27.3,0h-10.048c0-.066.005-.131.005-.191s-.005-.127-.005-.193h20.536c-.005.066-.011.127-.011.193s.006.125.011.191Zm-27.306,0h-10.048c0-.066.011-.131.011-.191s-.011-.127-.011-.193h20.536c0,.066-.011.127-.011.193s.011.125.011.191Zm-27.306,0h-10.048c.005-.066.011-.131.011-.191s-.006-.127-.011-.193h20.536c0,.066-.005.127-.005.193s.005.125.005.191Zm-27.3,0h-10.048c0-.066.005-.131.005-.191s-.005-.127-.005-.193h20.536c-.005.066-.011.127-.011.193s.006.125.011.191Zm-27.306,0h-10.048c0-.066.011-.131.011-.191s-.011-.127-.011-.193H2195.7c0,.066-.006.127-.006.193s.006.125.006.191Zm-27.3,0h-9.175c0-.066.006-.131.006-.191s-.006-.127-.006-.193H2168.4c-.006.066-.011.127-.011.193s.005.125.011.191Zm-26.433,0h-10.488c.005-.066.011-.131.011-.191s-.006-.127-.011-.193h20.975c0,.066-.005.127-.005.193s.005.125.005.191Zm-27.74,0h-10.488c0-.066.011-.131.011-.191s-.011-.127-.011-.193h20.975c0,.066-.011.127-.011.193s.011.125.011.191Zm-27.74,0v-.385h10.488c-.006.066-.011.127-.011.193s.005.125.011.191Zm396.13-3.586c-.066,0-.132.006-.192.012v-20.975c.061,0,.126.01.192.01s.126-.01.187-.01v20.975C2472.258-21757.549,2472.192-21757.555,2472.132-21757.555Zm-27.745,0c-.061,0-.126.006-.187.012v-20.975c.06,0,.126.01.187.01s.126-.01.192-.01v20.975C2444.513-21757.549,2444.452-21757.555,2444.386-21757.555Zm-27.74,0c-.06,0-.126.006-.192.012v-20.975c.066,0,.132.01.192.01s.126-.01.192-.01v20.975C2416.773-21757.549,2416.707-21757.555,2416.646-21757.555Zm-26.428,0c-.066,0-.126.006-.192.012v-20.975c.066,0,.126.01.192.01s.126-.01.187-.01v20.975C2390.345-21757.549,2390.279-21757.555,2390.219-21757.555Zm-27.306,0c-.06,0-.126.006-.192.012v-20.975c.066,0,.132.01.192.01s.126-.01.192-.01v20.975C2363.039-21757.549,2362.978-21757.555,2362.912-21757.555Zm-27.306,0c-.061,0-.121.006-.187.012v-20.975c.066,0,.126.01.187.01s.132-.01.192-.01v20.975C2335.738-21757.549,2335.672-21757.555,2335.606-21757.555Zm-27.3,0c-.066,0-.126.006-.192.012v-20.975c.066,0,.126.01.192.01s.126-.01.187-.01v20.975C2308.432-21757.549,2308.366-21757.555,2308.305-21757.555Zm-27.306,0c-.06,0-.126.006-.187.012v-20.975c.061,0,.126.01.187.01s.126-.01.192-.01v20.975C2281.125-21757.549,2281.065-21757.555,2281-21757.555Zm-27.3,0c-.066,0-.132.006-.192.012v-20.975c.06,0,.126.01.192.01s.126-.01.187-.01v20.975C2253.824-21757.549,2253.759-21757.555,2253.7-21757.555Zm-27.306,0c-.061,0-.126.006-.192.012v-20.975c.066,0,.132.01.192.01s.126-.01.192-.01v20.975C2226.518-21757.549,2226.458-21757.555,2226.392-21757.555Zm-27.306,0c-.06,0-.126.006-.187.012v-20.975c.061,0,.126.01.187.01s.126-.01.192-.01v20.975C2199.212-21757.549,2199.152-21757.555,2199.086-21757.555Zm-27.3,0c-.066,0-.126.006-.192.012v-20.975c.066,0,.126.01.192.01s.126-.01.187-.01v20.975C2171.911-21757.549,2171.845-21757.555,2171.785-21757.555Zm-26.433,0c-.061,0-.126.006-.187.012v-20.975c.06,0,.126.01.187.01s.132-.01.192-.01v20.975C2145.483-21757.549,2145.417-21757.555,2145.352-21757.555Zm-27.74,0c-.06,0-.126.006-.187.012v-20.975c.06,0,.126.01.187.01s.126-.01.192-.01v20.975C2117.738-21757.549,2117.677-21757.555,2117.612-21757.555Zm-27.74,0c-.066,0-.126.006-.192.012v-20.975c.066,0,.126.01.192.01s.126-.01.187-.01v20.975C2090-21757.549,2089.938-21757.555,2089.872-21757.555Zm379.658-24.346a2.6,2.6,0,0,1,2.6-2.6,2.6,2.6,0,0,1,2.6,2.6,2.6,2.6,0,0,1-2.6,2.6A2.6,2.6,0,0,1,2469.529-21781.9Zm-27.74,0a2.6,2.6,0,0,1,2.6-2.6,2.6,2.6,0,0,1,2.6,2.6,2.6,2.6,0,0,1-2.6,2.6A2.6,2.6,0,0,1,2441.789-21781.9Zm-27.746,0a2.6,2.6,0,0,1,2.6-2.6,2.6,2.6,0,0,1,2.6,2.6,2.6,2.6,0,0,1-2.6,2.6A2.6,2.6,0,0,1,2414.044-21781.9Zm-26.428,0a2.6,2.6,0,0,1,2.6-2.6,2.6,2.6,0,0,1,2.6,2.6,2.6,2.6,0,0,1-2.6,2.6A2.6,2.6,0,0,1,2387.616-21781.9Zm-27.306,0a2.6,2.6,0,0,1,2.6-2.6,2.6,2.6,0,0,1,2.6,2.6,2.6,2.6,0,0,1-2.6,2.6A2.6,2.6,0,0,1,2360.31-21781.9Zm-27.3,0a2.6,2.6,0,0,1,2.6-2.6,2.6,2.6,0,0,1,2.6,2.6,2.6,2.6,0,0,1-2.6,2.6A2.6,2.6,0,0,1,2333.009-21781.9Zm-27.306,0a2.6,2.6,0,0,1,2.6-2.6,2.6,2.6,0,0,1,2.6,2.6,2.6,2.6,0,0,1-2.6,2.6A2.6,2.6,0,0,1,2305.7-21781.9Zm-27.3,0a2.6,2.6,0,0,1,2.6-2.6,2.6,2.6,0,0,1,2.6,2.6,2.6,2.6,0,0,1-2.6,2.6A2.6,2.6,0,0,1,2278.4-21781.9Zm-27.306,0a2.6,2.6,0,0,1,2.6-2.6,2.6,2.6,0,0,1,2.6,2.6,2.6,2.6,0,0,1-2.6,2.6A2.6,2.6,0,0,1,2251.1-21781.9Zm-27.306,0a2.6,2.6,0,0,1,2.6-2.6,2.6,2.6,0,0,1,2.6,2.6,2.6,2.6,0,0,1-2.6,2.6A2.6,2.6,0,0,1,2223.789-21781.9Zm-27.3,0a2.6,2.6,0,0,1,2.6-2.6,2.6,2.6,0,0,1,2.6,2.6,2.6,2.6,0,0,1-2.6,2.6A2.6,2.6,0,0,1,2196.489-21781.9Zm-27.306,0a2.6,2.6,0,0,1,2.6-2.6,2.6,2.6,0,0,1,2.6,2.6,2.6,2.6,0,0,1-2.6,2.6A2.6,2.6,0,0,1,2169.182-21781.9Zm-26.428,0a2.6,2.6,0,0,1,2.6-2.6,2.6,2.6,0,0,1,2.6,2.6,2.6,2.6,0,0,1-2.6,2.6A2.6,2.6,0,0,1,2142.754-21781.9Zm-27.745,0a2.6,2.6,0,0,1,2.6-2.6,2.6,2.6,0,0,1,2.6,2.6,2.6,2.6,0,0,1-2.6,2.6A2.6,2.6,0,0,1,2115.009-21781.9Zm-27.74,0a2.6,2.6,0,0,1,2.6-2.6,2.6,2.6,0,0,1,2.6,2.6,2.6,2.6,0,0,1-2.6,2.6A2.6,2.6,0,0,1,2087.269-21781.9Zm388.246.186c0-.064.005-.125.005-.186s-.005-.127-.005-.191H2486v.377Zm-17.258,0h-10.482c0-.064.005-.125.005-.186s-.005-.127-.005-.191h20.97c0,.064-.006.125-.006.191s.006.121.006.186Zm-27.74,0h-10.488c.005-.064.011-.125.011-.186s-.006-.127-.011-.191H2441c0,.064-.005.125-.005.191s.005.121.005.186Zm-27.74,0H2393.6c0-.064.005-.125.005-.186s-.005-.127-.005-.191h19.663c-.005.064-.011.125-.011.191s.006.121.011.186Zm-26.428,0h-10.054c.006-.064.011-.125.011-.186s-.005-.127-.011-.191h20.536c0,.064-.006.125-.006.191s.006.121.006.186Zm-27.306,0h-10.048c0-.064.006-.125.006-.186s-.006-.127-.006-.191h20.536c-.006.064-.011.125-.011.191s.005.121.011.186Zm-27.306,0h-10.048c0-.064.011-.125.011-.186s-.011-.127-.011-.191h20.536c0,.064-.005.125-.005.191s.005.121.005.186Zm-27.3,0h-10.048c0-.064.005-.125.005-.186s-.005-.127-.005-.191h20.536c-.005.064-.011.125-.011.191s.006.121.011.186Zm-27.306,0h-10.048c0-.064.011-.125.011-.186s-.011-.127-.011-.191h20.536c0,.064-.011.125-.011.191s.011.121.011.186Zm-27.306,0h-10.048c.005-.064.011-.125.011-.186s-.006-.127-.011-.191h20.536c0,.064-.005.125-.005.191s.005.121.005.186Zm-27.3,0h-10.048c0-.064.005-.125.005-.186s-.005-.127-.005-.191h20.536c-.005.064-.011.125-.011.191s.006.121.011.186Zm-27.306,0h-10.048c0-.064.011-.125.011-.186s-.011-.127-.011-.191H2195.7c0,.064-.006.125-.006.191s.006.121.006.186Zm-27.3,0h-9.175c0-.064.006-.125.006-.186s-.006-.127-.006-.191H2168.4c-.006.064-.011.125-.011.191s.005.121.011.186Zm-26.433,0h-10.488c.005-.064.011-.125.011-.186s-.006-.127-.011-.191h20.975c0,.064-.005.125-.005.191s.005.121.005.186Zm-27.74,0h-10.488c0-.064.011-.125.011-.186s-.011-.127-.011-.191h20.975c0,.064-.011.125-.011.191s.011.121.011.186Zm-27.74,0v-.377h10.488c-.006.064-.011.125-.011.191s.005.121.011.186Zm396.13-3.578c-.066,0-.132,0-.192,0v-20.975c.061.006.126.012.192.012s.126-.006.187-.012v20.975C2472.258-21785.289,2472.192-21785.293,2472.132-21785.293Zm-27.745,0c-.061,0-.126,0-.187,0v-20.975c.06.006.126.012.187.012s.126-.006.192-.012v20.975C2444.513-21785.289,2444.452-21785.293,2444.386-21785.293Zm-27.74,0c-.06,0-.126,0-.192,0v-20.975c.066.006.132.012.192.012s.126-.006.192-.012v20.975C2416.773-21785.289,2416.707-21785.293,2416.646-21785.293Zm-26.428,0c-.066,0-.126,0-.192,0v-20.975c.066.006.126.012.192.012s.126-.006.187-.012v20.975C2390.345-21785.289,2390.279-21785.293,2390.219-21785.293Zm-27.306,0c-.06,0-.126,0-.192,0v-20.975c.066.006.132.012.192.012s.126-.006.192-.012v20.975C2363.039-21785.289,2362.978-21785.293,2362.912-21785.293Zm-27.306,0c-.061,0-.121,0-.187,0v-20.975c.066.006.126.012.187.012s.132-.006.192-.012v20.975C2335.738-21785.289,2335.672-21785.293,2335.606-21785.293Zm-27.3,0c-.066,0-.126,0-.192,0v-20.975c.066.006.126.012.192.012s.126-.006.187-.012v20.975C2308.432-21785.289,2308.366-21785.293,2308.305-21785.293Zm-27.306,0c-.06,0-.126,0-.187,0v-20.975c.061.006.126.012.187.012s.126-.006.192-.012v20.975C2281.125-21785.289,2281.065-21785.293,2281-21785.293Zm-27.3,0c-.066,0-.132,0-.192,0v-20.975c.06.006.126.012.192.012s.126-.006.187-.012v20.975C2253.824-21785.289,2253.759-21785.293,2253.7-21785.293Zm-27.306,0c-.061,0-.126,0-.192,0v-20.975c.066.006.132.012.192.012s.126-.006.192-.012v20.975C2226.518-21785.289,2226.458-21785.293,2226.392-21785.293Zm-27.306,0c-.06,0-.126,0-.187,0v-20.975c.061.006.126.012.187.012s.126-.006.192-.012v20.975C2199.212-21785.289,2199.152-21785.293,2199.086-21785.293Zm-27.3,0c-.066,0-.126,0-.192,0v-20.975c.066.006.126.012.192.012s.126-.006.187-.012v20.975C2171.911-21785.289,2171.845-21785.293,2171.785-21785.293Zm-26.433,0c-.061,0-.126,0-.187,0v-20.975c.06.006.126.012.187.012s.132-.006.192-.012v20.975C2145.483-21785.289,2145.417-21785.293,2145.352-21785.293Zm-27.74,0c-.06,0-.126,0-.187,0v-20.975c.06.006.126.012.187.012s.126-.006.192-.012v20.975C2117.738-21785.289,2117.677-21785.293,2117.612-21785.293Zm-27.74,0c-.066,0-.126,0-.192,0v-20.975c.066.006.126.012.192.012s.126-.006.187-.012v20.975C2090-21785.289,2089.938-21785.293,2089.872-21785.293Zm379.658-24.354a2.6,2.6,0,0,1,2.6-2.6,2.6,2.6,0,0,1,2.6,2.6,2.6,2.6,0,0,1-2.6,2.6A2.6,2.6,0,0,1,2469.529-21809.646Zm-27.74,0a2.6,2.6,0,0,1,2.6-2.6,2.6,2.6,0,0,1,2.6,2.6,2.6,2.6,0,0,1-2.6,2.6A2.6,2.6,0,0,1,2441.789-21809.646Zm-27.746,0a2.6,2.6,0,0,1,2.6-2.6,2.6,2.6,0,0,1,2.6,2.6,2.6,2.6,0,0,1-2.6,2.6A2.6,2.6,0,0,1,2414.044-21809.646Zm-26.428,0a2.6,2.6,0,0,1,2.6-2.6,2.6,2.6,0,0,1,2.6,2.6,2.6,2.6,0,0,1-2.6,2.6A2.6,2.6,0,0,1,2387.616-21809.646Zm-27.306,0a2.6,2.6,0,0,1,2.6-2.6,2.6,2.6,0,0,1,2.6,2.6,2.6,2.6,0,0,1-2.6,2.6A2.6,2.6,0,0,1,2360.31-21809.646Zm-27.3,0a2.6,2.6,0,0,1,2.6-2.6,2.6,2.6,0,0,1,2.6,2.6,2.6,2.6,0,0,1-2.6,2.6A2.6,2.6,0,0,1,2333.009-21809.646Zm-27.306,0a2.6,2.6,0,0,1,2.6-2.6,2.6,2.6,0,0,1,2.6,2.6,2.6,2.6,0,0,1-2.6,2.6A2.6,2.6,0,0,1,2305.7-21809.646Zm-27.3,0a2.6,2.6,0,0,1,2.6-2.6,2.6,2.6,0,0,1,2.6,2.6,2.6,2.6,0,0,1-2.6,2.6A2.6,2.6,0,0,1,2278.4-21809.646Zm-27.306,0a2.6,2.6,0,0,1,2.6-2.6,2.6,2.6,0,0,1,2.6,2.6,2.6,2.6,0,0,1-2.6,2.6A2.6,2.6,0,0,1,2251.1-21809.646Zm-27.306,0a2.6,2.6,0,0,1,2.6-2.6,2.6,2.6,0,0,1,2.6,2.6,2.6,2.6,0,0,1-2.6,2.6A2.6,2.6,0,0,1,2223.789-21809.646Zm-27.3,0a2.6,2.6,0,0,1,2.6-2.6,2.6,2.6,0,0,1,2.6,2.6,2.6,2.6,0,0,1-2.6,2.6A2.6,2.6,0,0,1,2196.489-21809.646Zm-27.306,0a2.6,2.6,0,0,1,2.6-2.6,2.6,2.6,0,0,1,2.6,2.6,2.6,2.6,0,0,1-2.6,2.6A2.6,2.6,0,0,1,2169.182-21809.646Zm-26.428,0a2.6,2.6,0,0,1,2.6-2.6,2.6,2.6,0,0,1,2.6,2.6,2.6,2.6,0,0,1-2.6,2.6A2.6,2.6,0,0,1,2142.754-21809.646Zm-27.745,0a2.6,2.6,0,0,1,2.6-2.6,2.6,2.6,0,0,1,2.6,2.6,2.6,2.6,0,0,1-2.6,2.6A2.6,2.6,0,0,1,2115.009-21809.646Zm-27.74,0a2.6,2.6,0,0,1,2.6-2.6,2.6,2.6,0,0,1,2.6,2.6,2.6,2.6,0,0,1-2.6,2.6A2.6,2.6,0,0,1,2087.269-21809.646Zm388.246.193c0-.066.005-.127.005-.193s-.005-.125-.005-.191H2486v.385Zm-17.258,0h-10.482c0-.066.005-.127.005-.193s-.005-.125-.005-.191h20.97c0,.066-.006.131-.006.191s.006.127.006.193Zm-27.74,0h-10.488c.005-.066.011-.127.011-.193s-.006-.125-.011-.191H2441c0,.066-.005.131-.005.191s.005.127.005.193Zm-27.74,0H2393.6c0-.066.005-.127.005-.193s-.005-.125-.005-.191h19.663c-.005.066-.011.131-.011.191s.006.127.011.193Zm-26.428,0h-10.054c.006-.066.011-.127.011-.193s-.005-.125-.011-.191h20.536c0,.066-.006.131-.006.191s.006.127.006.193Zm-27.306,0h-10.048c0-.066.006-.127.006-.193s-.006-.125-.006-.191h20.536c-.006.066-.011.131-.011.191s.005.127.011.193Zm-27.306,0h-10.048c0-.066.011-.127.011-.193s-.011-.125-.011-.191h20.536c0,.066-.005.131-.005.191s.005.127.005.193Zm-27.3,0h-10.048c0-.066.005-.127.005-.193s-.005-.125-.005-.191h20.536c-.005.066-.011.131-.011.191s.006.127.011.193Zm-27.306,0h-10.048c0-.066.011-.127.011-.193s-.011-.125-.011-.191h20.536c0,.066-.011.131-.011.191s.011.127.011.193Zm-27.306,0h-10.048c.005-.066.011-.127.011-.193s-.006-.125-.011-.191h20.536c0,.066-.005.131-.005.191s.005.127.005.193Zm-27.3,0h-10.048c0-.066.005-.127.005-.193s-.005-.125-.005-.191h20.536c-.005.066-.011.131-.011.191s.006.127.011.193Zm-27.306,0h-10.048c0-.066.011-.127.011-.193s-.011-.125-.011-.191H2195.7c0,.066-.006.131-.006.191s.006.127.006.193Zm-27.3,0h-9.175c0-.066.006-.127.006-.193s-.006-.125-.006-.191H2168.4c-.006.066-.011.131-.011.191s.005.127.011.193Zm-26.433,0h-10.488c.005-.066.011-.127.011-.193s-.006-.125-.011-.191h20.975c0,.066-.005.131-.005.191s.005.127.005.193Zm-27.74,0h-10.488c0-.066.011-.127.011-.193s-.011-.125-.011-.191h20.975c0,.066-.011.131-.011.191s.011.127.011.193Zm-27.74,0v-.385h10.488c-.006.066-.011.131-.011.191s.005.127.011.193Zm396.13-3.586c-.066,0-.132.01-.192.01V-21834c.061.006.126.012.192.012s.126-.006.187-.012v20.975C2472.258-21813.029,2472.192-21813.039,2472.132-21813.039Zm-27.745,0c-.061,0-.126.01-.187.01V-21834c.06.006.126.012.187.012s.126-.006.192-.012v20.975C2444.513-21813.029,2444.452-21813.039,2444.386-21813.039Zm-27.74,0c-.06,0-.126.01-.192.01V-21834c.066.006.132.012.192.012s.126-.006.192-.012v20.975C2416.773-21813.029,2416.707-21813.039,2416.646-21813.039Zm-26.428,0c-.066,0-.126.01-.192.01V-21834c.066.006.126.012.192.012s.126-.006.187-.012v20.975C2390.345-21813.029,2390.279-21813.039,2390.219-21813.039Zm-27.306,0c-.06,0-.126.01-.192.01V-21834c.066.006.132.012.192.012s.126-.006.192-.012v20.975C2363.039-21813.029,2362.978-21813.039,2362.912-21813.039Zm-27.306,0c-.061,0-.121.01-.187.01V-21834c.066.006.126.012.187.012s.132-.006.192-.012v20.975C2335.738-21813.029,2335.672-21813.039,2335.606-21813.039Zm-27.3,0c-.066,0-.126.01-.192.01V-21834c.066.006.126.012.192.012s.126-.006.187-.012v20.975C2308.432-21813.029,2308.366-21813.039,2308.305-21813.039Zm-27.306,0c-.06,0-.126.01-.187.01V-21834c.061.006.126.012.187.012s.126-.006.192-.012v20.975C2281.125-21813.029,2281.065-21813.039,2281-21813.039Zm-27.3,0c-.066,0-.132.01-.192.01V-21834c.06.006.126.012.192.012s.126-.006.187-.012v20.975C2253.824-21813.029,2253.759-21813.039,2253.7-21813.039Zm-27.306,0c-.061,0-.126.01-.192.01V-21834c.066.006.132.012.192.012s.126-.006.192-.012v20.975C2226.518-21813.029,2226.458-21813.039,2226.392-21813.039Zm-27.306,0c-.06,0-.126.01-.187.01V-21834c.061.006.126.012.187.012s.126-.006.192-.012v20.975C2199.212-21813.029,2199.152-21813.039,2199.086-21813.039Zm-27.3,0c-.066,0-.126.01-.192.01V-21834c.066.006.126.012.192.012s.126-.006.187-.012v20.975C2171.911-21813.029,2171.845-21813.039,2171.785-21813.039Zm-26.433,0c-.061,0-.126.01-.187.01V-21834c.06.006.126.012.187.012s.132-.006.192-.012v20.975C2145.483-21813.029,2145.417-21813.039,2145.352-21813.039Zm-27.74,0c-.06,0-.126.01-.187.01V-21834c.06.006.126.012.187.012s.126-.006.192-.012v20.975C2117.738-21813.029,2117.677-21813.039,2117.612-21813.039Zm-27.74,0c-.066,0-.126.01-.192.01V-21834c.066.006.126.012.192.012s.126-.006.187-.012v20.975C2090-21813.029,2089.938-21813.039,2089.872-21813.039Zm379.658-24.348a2.6,2.6,0,0,1,2.6-2.6,2.6,2.6,0,0,1,2.6,2.6,2.6,2.6,0,0,1-2.6,2.6A2.605,2.605,0,0,1,2469.529-21837.387Zm-27.74,0a2.6,2.6,0,0,1,2.6-2.6,2.6,2.6,0,0,1,2.6,2.6,2.605,2.605,0,0,1-2.6,2.6A2.6,2.6,0,0,1,2441.789-21837.387Zm-27.746,0a2.6,2.6,0,0,1,2.6-2.6,2.6,2.6,0,0,1,2.6,2.6,2.605,2.605,0,0,1-2.6,2.6A2.605,2.605,0,0,1,2414.044-21837.387Zm-26.428,0a2.6,2.6,0,0,1,2.6-2.6,2.6,2.6,0,0,1,2.6,2.6,2.6,2.6,0,0,1-2.6,2.6A2.605,2.605,0,0,1,2387.616-21837.387Zm-27.306,0a2.6,2.6,0,0,1,2.6-2.6,2.6,2.6,0,0,1,2.6,2.6,2.605,2.605,0,0,1-2.6,2.6A2.605,2.605,0,0,1,2360.31-21837.387Zm-27.3,0a2.6,2.6,0,0,1,2.6-2.6,2.6,2.6,0,0,1,2.6,2.6,2.605,2.605,0,0,1-2.6,2.6A2.6,2.6,0,0,1,2333.009-21837.387Zm-27.306,0a2.6,2.6,0,0,1,2.6-2.6,2.6,2.6,0,0,1,2.6,2.6,2.609,2.609,0,0,1-2.6,2.6A2.605,2.605,0,0,1,2305.7-21837.387Zm-27.3,0a2.6,2.6,0,0,1,2.6-2.6,2.6,2.6,0,0,1,2.6,2.6,2.605,2.605,0,0,1-2.6,2.6A2.6,2.6,0,0,1,2278.4-21837.387Zm-27.306,0a2.6,2.6,0,0,1,2.6-2.6,2.6,2.6,0,0,1,2.6,2.6,2.6,2.6,0,0,1-2.6,2.6A2.605,2.605,0,0,1,2251.1-21837.387Zm-27.306,0a2.6,2.6,0,0,1,2.6-2.6,2.6,2.6,0,0,1,2.6,2.6,2.605,2.605,0,0,1-2.6,2.6A2.605,2.605,0,0,1,2223.789-21837.387Zm-27.3,0a2.6,2.6,0,0,1,2.6-2.6,2.6,2.6,0,0,1,2.6,2.6,2.605,2.605,0,0,1-2.6,2.6A2.6,2.6,0,0,1,2196.489-21837.387Zm-27.306,0a2.6,2.6,0,0,1,2.6-2.6,2.6,2.6,0,0,1,2.6,2.6,2.6,2.6,0,0,1-2.6,2.6A2.605,2.605,0,0,1,2169.182-21837.387Zm-26.428,0a2.6,2.6,0,0,1,2.6-2.6,2.6,2.6,0,0,1,2.6,2.6,2.605,2.605,0,0,1-2.6,2.6A2.6,2.6,0,0,1,2142.754-21837.387Zm-27.745,0a2.6,2.6,0,0,1,2.6-2.6,2.6,2.6,0,0,1,2.6,2.6,2.605,2.605,0,0,1-2.6,2.6A2.609,2.609,0,0,1,2115.009-21837.387Zm-27.74,0a2.6,2.6,0,0,1,2.6-2.6,2.6,2.6,0,0,1,2.6,2.6,2.609,2.609,0,0,1-2.6,2.6A2.605,2.605,0,0,1,2087.269-21837.387Zm388.246.188c0-.061.005-.121.005-.187s-.005-.125-.005-.191H2486v.379Zm-17.258,0h-10.482c0-.061.005-.121.005-.187s-.005-.125-.005-.191h20.97c0,.066-.006.131-.006.191s.006.127.006.188Zm-27.74,0h-10.488c.005-.061.011-.121.011-.187s-.006-.125-.011-.191H2441c0,.066-.005.131-.005.191s.005.127.005.188Zm-27.74,0H2393.6c0-.061.005-.121.005-.187s-.005-.125-.005-.191h19.663c-.005.066-.011.131-.011.191s.006.127.011.188Zm-26.428,0h-10.054c.006-.061.011-.121.011-.187s-.005-.125-.011-.191h20.536c0,.066-.006.131-.006.191s.006.127.006.188Zm-27.306,0h-10.048c0-.061.006-.121.006-.187s-.006-.125-.006-.191h20.536c-.006.066-.011.131-.011.191s.005.127.011.188Zm-27.306,0h-10.048c0-.061.011-.121.011-.187s-.011-.125-.011-.191h20.536c0,.066-.005.131-.005.191s.005.127.005.188Zm-27.3,0h-10.048c0-.061.005-.121.005-.187s-.005-.125-.005-.191h20.536c-.005.066-.011.131-.011.191s.006.127.011.188Zm-27.306,0h-10.048c0-.061.011-.121.011-.187s-.011-.125-.011-.191h20.536c0,.066-.011.131-.011.191s.011.127.011.188Zm-27.306,0h-10.048c.005-.061.011-.121.011-.187s-.006-.125-.011-.191h20.536c0,.066-.005.131-.005.191s.005.127.005.188Zm-27.3,0h-10.048c0-.061.005-.121.005-.187s-.005-.125-.005-.191h20.536c-.005.066-.011.131-.011.191s.006.127.011.188Zm-27.306,0h-10.048c0-.061.011-.121.011-.187s-.011-.125-.011-.191H2195.7c0,.066-.006.131-.006.191s.006.127.006.188Zm-27.3,0h-9.175c0-.061.006-.121.006-.187s-.006-.125-.006-.191H2168.4c-.006.066-.011.131-.011.191s.005.127.011.188Zm-26.433,0h-10.488c.005-.061.011-.121.011-.187s-.006-.125-.011-.191h20.975c0,.066-.005.131-.005.191s.005.127.005.188Zm-27.74,0h-10.488c0-.061.011-.121.011-.187s-.011-.125-.011-.191h20.975c0,.066-.011.131-.011.191s.011.127.011.188Zm-27.74,0v-.379h10.488c-.006.066-.011.131-.011.191s.005.127.011.188Zm396.13-3.58c-.066,0-.132.006-.192.006v-20.971c.061,0,.126.006.192.006s.126-.006.187-.006v20.971C2472.258-21840.773,2472.192-21840.779,2472.132-21840.779Zm-27.745,0c-.061,0-.126.006-.187.006v-20.971c.06,0,.126.006.187.006s.126-.006.192-.006v20.971C2444.513-21840.773,2444.452-21840.779,2444.386-21840.779Zm-27.74,0c-.06,0-.126.006-.192.006v-20.971c.066,0,.132.006.192.006s.126-.006.192-.006v20.971C2416.773-21840.773,2416.707-21840.779,2416.646-21840.779Zm-26.428,0c-.066,0-.126.006-.192.006v-20.971c.066,0,.126.006.192.006s.126-.006.187-.006v20.971C2390.345-21840.773,2390.279-21840.779,2390.219-21840.779Zm-27.306,0c-.06,0-.126.006-.192.006v-20.971c.066,0,.132.006.192.006s.126-.006.192-.006v20.971C2363.039-21840.773,2362.978-21840.779,2362.912-21840.779Zm-27.306,0c-.061,0-.121.006-.187.006v-20.971c.066,0,.126.006.187.006s.132-.006.192-.006v20.971C2335.738-21840.773,2335.672-21840.779,2335.606-21840.779Zm-27.3,0c-.066,0-.126.006-.192.006v-20.971c.066,0,.126.006.192.006s.126-.006.187-.006v20.971C2308.432-21840.773,2308.366-21840.779,2308.305-21840.779Zm-27.306,0c-.06,0-.126.006-.187.006v-20.971c.061,0,.126.006.187.006s.126-.006.192-.006v20.971C2281.125-21840.773,2281.065-21840.779,2281-21840.779Zm-27.3,0c-.066,0-.132.006-.192.006v-20.971c.06,0,.126.006.192.006s.126-.006.187-.006v20.971C2253.824-21840.773,2253.759-21840.779,2253.7-21840.779Zm-27.306,0c-.061,0-.126.006-.192.006v-20.971c.066,0,.132.006.192.006s.126-.006.192-.006v20.971C2226.518-21840.773,2226.458-21840.779,2226.392-21840.779Zm-27.306,0c-.06,0-.126.006-.187.006v-20.971c.061,0,.126.006.187.006s.126-.006.192-.006v20.971C2199.212-21840.773,2199.152-21840.779,2199.086-21840.779Zm-27.3,0c-.066,0-.126.006-.192.006v-20.971c.066,0,.126.006.192.006s.126-.006.187-.006v20.971C2171.911-21840.773,2171.845-21840.779,2171.785-21840.779Zm-26.433,0c-.061,0-.126.006-.187.006v-20.971c.06,0,.126.006.187.006s.132-.006.192-.006v20.971C2145.483-21840.773,2145.417-21840.779,2145.352-21840.779Zm-27.74,0c-.06,0-.126.006-.187.006v-20.971c.06,0,.126.006.187.006s.126-.006.192-.006v20.971C2117.738-21840.773,2117.677-21840.779,2117.612-21840.779Zm-27.74,0c-.066,0-.126.006-.192.006v-20.971c.066,0,.126.006.192.006s.126-.006.187-.006v20.971C2090-21840.773,2089.938-21840.779,2089.872-21840.779Zm379.658-24.348a2.6,2.6,0,0,1,2.6-2.6,2.6,2.6,0,0,1,2.6,2.6,2.6,2.6,0,0,1-2.6,2.6A2.6,2.6,0,0,1,2469.529-21865.127Zm-27.74,0a2.6,2.6,0,0,1,2.6-2.6,2.6,2.6,0,0,1,2.6,2.6,2.6,2.6,0,0,1-2.6,2.6A2.6,2.6,0,0,1,2441.789-21865.127Zm-27.746,0a2.6,2.6,0,0,1,2.6-2.6,2.6,2.6,0,0,1,2.6,2.6,2.6,2.6,0,0,1-2.6,2.6A2.6,2.6,0,0,1,2414.044-21865.127Zm-26.428,0a2.6,2.6,0,0,1,2.6-2.6,2.6,2.6,0,0,1,2.6,2.6,2.6,2.6,0,0,1-2.6,2.6A2.6,2.6,0,0,1,2387.616-21865.127Zm-27.306,0a2.6,2.6,0,0,1,2.6-2.6,2.6,2.6,0,0,1,2.6,2.6,2.6,2.6,0,0,1-2.6,2.6A2.6,2.6,0,0,1,2360.31-21865.127Zm-27.3,0a2.6,2.6,0,0,1,2.6-2.6,2.6,2.6,0,0,1,2.6,2.6,2.6,2.6,0,0,1-2.6,2.6A2.6,2.6,0,0,1,2333.009-21865.127Zm-27.306,0a2.6,2.6,0,0,1,2.6-2.6,2.6,2.6,0,0,1,2.6,2.6,2.6,2.6,0,0,1-2.6,2.6A2.6,2.6,0,0,1,2305.7-21865.127Zm-27.3,0a2.6,2.6,0,0,1,2.6-2.6,2.6,2.6,0,0,1,2.6,2.6,2.6,2.6,0,0,1-2.6,2.6A2.6,2.6,0,0,1,2278.4-21865.127Zm-27.306,0a2.6,2.6,0,0,1,2.6-2.6,2.6,2.6,0,0,1,2.6,2.6,2.6,2.6,0,0,1-2.6,2.6A2.6,2.6,0,0,1,2251.1-21865.127Zm-27.306,0a2.6,2.6,0,0,1,2.6-2.6,2.6,2.6,0,0,1,2.6,2.6,2.6,2.6,0,0,1-2.6,2.6A2.6,2.6,0,0,1,2223.789-21865.127Zm-27.3,0a2.6,2.6,0,0,1,2.6-2.6,2.6,2.6,0,0,1,2.6,2.6,2.6,2.6,0,0,1-2.6,2.6A2.6,2.6,0,0,1,2196.489-21865.127Zm-27.306,0a2.6,2.6,0,0,1,2.6-2.6,2.6,2.6,0,0,1,2.6,2.6,2.6,2.6,0,0,1-2.6,2.6A2.6,2.6,0,0,1,2169.182-21865.127Zm-26.428,0a2.6,2.6,0,0,1,2.6-2.6,2.6,2.6,0,0,1,2.6,2.6,2.6,2.6,0,0,1-2.6,2.6A2.6,2.6,0,0,1,2142.754-21865.127Zm-27.745,0a2.6,2.6,0,0,1,2.6-2.6,2.6,2.6,0,0,1,2.6,2.6,2.6,2.6,0,0,1-2.6,2.6A2.6,2.6,0,0,1,2115.009-21865.127Zm-27.74,0a2.6,2.6,0,0,1,2.6-2.6,2.6,2.6,0,0,1,2.6,2.6,2.6,2.6,0,0,1-2.6,2.6A2.6,2.6,0,0,1,2087.269-21865.127Zm388.246.188c0-.066.005-.127.005-.187s-.005-.131-.005-.191H2486v.379Zm-17.258,0h-10.482c0-.066.005-.127.005-.187s-.005-.131-.005-.191h20.97c0,.061-.006.127-.006.191s.006.121.006.188Zm-27.74,0h-10.488c.005-.066.011-.127.011-.187s-.006-.131-.011-.191H2441c0,.061-.005.127-.005.191s.005.121.005.188Zm-27.74,0H2393.6c0-.066.005-.127.005-.187s-.005-.131-.005-.191h19.663c-.005.061-.011.127-.011.191s.006.121.011.188Zm-26.428,0h-10.054c.006-.066.011-.127.011-.187s-.005-.131-.011-.191h20.536c0,.061-.006.127-.006.191s.006.121.006.188Zm-27.306,0h-10.048c0-.066.006-.127.006-.187s-.006-.131-.006-.191h20.536c-.006.061-.011.127-.011.191s.005.121.011.188Zm-27.306,0h-10.048c0-.066.011-.127.011-.187s-.011-.131-.011-.191h20.536c0,.061-.005.127-.005.191s.005.121.005.188Zm-27.3,0h-10.048c0-.066.005-.127.005-.187s-.005-.131-.005-.191h20.536c-.005.061-.011.127-.011.191s.006.121.011.188Zm-27.306,0h-10.048c0-.066.011-.127.011-.187s-.011-.131-.011-.191h20.536c0,.061-.011.127-.011.191s.011.121.011.188Zm-27.306,0h-10.048c.005-.066.011-.127.011-.187s-.006-.131-.011-.191h20.536c0,.061-.005.127-.005.191s.005.121.005.188Zm-27.3,0h-10.048c0-.066.005-.127.005-.187s-.005-.131-.005-.191h20.536c-.005.061-.011.127-.011.191s.006.121.011.188Zm-27.306,0h-10.048c0-.066.011-.127.011-.187s-.011-.131-.011-.191H2195.7c0,.061-.006.127-.006.191s.006.121.006.188Zm-27.3,0h-9.175c0-.066.006-.127.006-.187s-.006-.131-.006-.191H2168.4c-.006.061-.011.127-.011.191s.005.121.011.188Zm-26.433,0h-10.488c.005-.066.011-.127.011-.187s-.006-.131-.011-.191h20.975c0,.061-.005.127-.005.191s.005.121.005.188Zm-27.74,0h-10.488c0-.066.011-.127.011-.187s-.011-.131-.011-.191h20.975c0,.061-.011.127-.011.191s.011.121.011.188Zm-27.74,0v-.379h10.488c-.006.061-.011.127-.011.191s.005.121.011.188Zm396.13-3.58c-.066,0-.132.006-.192.006V-21879h.379v10.488C2472.258-21868.514,2472.192-21868.52,2472.132-21868.52Zm-27.745,0c-.061,0-.126.006-.187.006V-21879h.379v10.488C2444.513-21868.514,2444.452-21868.52,2444.386-21868.52Zm-27.74,0c-.06,0-.126.006-.192.006V-21879h.385v10.488C2416.773-21868.514,2416.707-21868.52,2416.646-21868.52Zm-26.428,0c-.066,0-.126.006-.192.006V-21879h.379v10.488C2390.345-21868.514,2390.279-21868.52,2390.219-21868.52Zm-27.306,0c-.06,0-.126.006-.192.006V-21879h.384v10.488C2363.039-21868.514,2362.978-21868.52,2362.912-21868.52Zm-27.306,0c-.061,0-.121.006-.187.006V-21879h.379v10.488C2335.738-21868.514,2335.672-21868.52,2335.606-21868.52Zm-27.3,0c-.066,0-.126.006-.192.006V-21879h.379v10.488C2308.432-21868.514,2308.366-21868.52,2308.305-21868.52Zm-27.306,0c-.06,0-.126.006-.187.006V-21879h.379v10.488C2281.125-21868.514,2281.065-21868.52,2281-21868.52Zm-27.3,0c-.066,0-.132.006-.192.006V-21879h.379v10.488C2253.824-21868.514,2253.759-21868.52,2253.7-21868.52Zm-27.306,0c-.061,0-.126.006-.192.006V-21879h.385v10.488C2226.518-21868.514,2226.458-21868.52,2226.392-21868.52Zm-27.306,0c-.06,0-.126.006-.187.006V-21879h.379v10.488C2199.212-21868.514,2199.152-21868.52,2199.086-21868.52Zm-27.3,0c-.066,0-.126.006-.192.006V-21879h.379v10.488C2171.911-21868.514,2171.845-21868.52,2171.785-21868.52Zm-26.433,0c-.061,0-.126.006-.187.006V-21879h.379v10.488C2145.483-21868.514,2145.417-21868.52,2145.352-21868.52Zm-27.74,0c-.06,0-.126.006-.187.006V-21879h.379v10.488C2117.738-21868.514,2117.677-21868.52,2117.612-21868.52Zm-27.74,0c-.066,0-.126.006-.192.006V-21879h.379v10.488C2090-21868.514,2089.938-21868.52,2089.872-21868.52Z" transform="translate(-2074 21799.906)" fill="url(#linear-gradient)"/>
        </g>
      </g>
    </g>
    <g id="Group_1674" data-name="Group 1674" transform="translate(1518.854 -21509.09)" opacity="0.639">
      <path id="Path_2242" data-name="Path 2242" d="M113.457,89.517c.619,0,.695.225,1.225,0s2.1-1.257,2.628-1.4.871.046.089.482a12.489,12.489,0,0,0-2.071,1.307,19.694,19.694,0,0,0,2.2-.942c1.125-.529,1.023-.294,1.312-.858l.442-.859s1.781,1.824,1.946,1.9.228-.013.316-.235.278-.542.531-.436.037.541.188.6.4-.012.872-.164.228-.493.228-.493-.05-.014.492-.06a11.124,11.124,0,0,1,2.754.776c.505.2,2.034.366,2.464.506s.593-.247,1.188.071,1.036.741.593.964-1.554.389-.986.531a8.682,8.682,0,0,0,2.249.294c.821-.024,2.3-.329,2.752-.329s.733.283,1.163,1,.77,1,.935,1.059-.164-.341-.076-.694a2.758,2.758,0,0,0-.19-1.282c-.1-.235,0-.353-.2-.695s-.529-.283.076-.576,1.023-.729,1.756-.635.935,1.024,1.566,1.092a13.488,13.488,0,0,0,1.832.4c1.085.082.631.013,1.844.095s.771-.131,1.023-.753.532-.742.821-.718,1.314.164,1.314.294-.43.8-.215,1.129a5.1,5.1,0,0,0,1.089.87s-.19-.753-.19-.835-.063-.67.064-.776.847.059,1.3-.824-.3-.836-.3-.836-.278.014-.139-.352.947-.587.947-.587.051.164-.051-.131-.63-.234-1.2-.27-.958-.117-1.06-.6a13.867,13.867,0,0,1-.139-2.188c0-.694.556-.447.657-.835a10.01,10.01,0,0,0-.164-2.67c-.139-.388.2-1.224.279-1.777s.643-.306.643-.306c-.1-.189.163-.718.922-.942a6.7,6.7,0,0,1,2.2.012s-.127.013-.481.47-.126,1.273-.658,1.848-1.881.389-1.881.389.416.953.24,1.257a3.738,3.738,0,0,0-.29.931s1.187.329,1.25,1.082.656.881.8,1.576-.581,1.271-.43,1.376.2.153.632.176,1.01.105,1.01.105a.726.726,0,0,0-.025.73c.215.378.051.613.075,1.012s.265.741.366.671a6.045,6.045,0,0,0,.671-1.552c.1-.46.176-.707.378-.707a2.228,2.228,0,0,1,.96.847c.078.224.127.531-.251,1.141s-.342.894-.013,1.131a4.871,4.871,0,0,0,.935.447c.593.281.481.257.846.152s-.152-1.034-.114-1.059.872-.117.683-.588-.381-.705.012-.941.67-.423.67-.423a4.587,4.587,0,0,1-.492-1.106c-.277-.789.239-.576,1.327-.495s1.135.459,1.718.753.214.4.4.871-.48.541-.48.541-.442.082-.342.446a6.545,6.545,0,0,0,.62,1.366c.316.565-.088.953-.581,1.412a2.369,2.369,0,0,1-1.654.6c-.583.012-.834.247-.871.082a.527.527,0,0,0-.631-.247c-.319.071-1.038.353-.785.447s.923.071.645.588-.519.518-1.075.459-1.073-.059-1.428-.083l-2.1-.129a11.929,11.929,0,0,0,2.112,1.012,4.554,4.554,0,0,0,1.92.117s-.38.705-.835,1.458-.885.425-1.263.471-.607.353-1.314.446-2.186-.2-1.96-.093.329.293.733.353a1.725,1.725,0,0,1,1.011.423c.353.294-.228.366-.694.447a.987.987,0,0,0-.81.459c-.215.3-1.011,1.435-1.264,1.788a3.883,3.883,0,0,0-.58,1.634c-.1.695-.695,1.53-.43,1.706s1.263.2,1.68.459.886,1.53,1.2,2.012.569.847.922.47,1.049-.281,1.706-.046a9.99,9.99,0,0,1,2.414,1.575c.416.412,1.148.342,1.969.46s.914.426.914.426.855.044.5.409-.455.012-.1.623a2.764,2.764,0,0,1,.241,1.848c-.1.411,1.132.2,1.651.51s.547,1.55.813,1.4.707-.424.758-.753a6.344,6.344,0,0,0-.064-1.33,5.584,5.584,0,0,0-.467-2.011c-.278-.412.5-.577.374-.754s-.1-.528.434-.671.569-.01.858-.235.342-1.27.392-1.646a4.128,4.128,0,0,0-.213-1.494,9.785,9.785,0,0,0-.834-1.494c-.191-.212-.43-.271.089-.929s.213-.518.138-.718-.189-.694-.29-1.141.214-.942.024-1.576-.392-.493-.353-.636a5.754,5.754,0,0,1,2.122-.012,5.043,5.043,0,0,0,1.49-.094,3.079,3.079,0,0,1,1.2.565c.492.316.682.235.935.623s.391.6.908.577a2.776,2.776,0,0,1,1.076.224s-.367.212-.3.906a10.426,10.426,0,0,1-.064,1.481c.012.283.153.294.39.33s.886.61,1.554.847.846.164,1.06-.376.268-.495.533-.529.353.059.466-.059-.2-.353-.126-.729a2.641,2.641,0,0,1,.747-1.154c.3-.283.517.284.783.8s1.187,2.2,1.453,2.752.606.588.29,1.107-.467.739.025.974.936.649.9,1.036-.141.4.024.507.758-.213,1.187-.024a4.181,4.181,0,0,1,1.251.671c.3.306.279.411-.152.564a7.5,7.5,0,0,0-1.075.436c-.215.13-.555.378-.543.577s-.088.529.254.27a4.582,4.582,0,0,1,1.3-.635c.4-.117.1-.013.468-.059a3.652,3.652,0,0,1,1.226.317c.5.142.366.459.239.753a.9.9,0,0,0-.037.907c.2.329-.088.623-.532,1.023a2.259,2.259,0,0,1-1.488.554,2.734,2.734,0,0,0-1.567,1c-.505.47-.758.353-1.491.388s-.442-.364-.669-.281a3.07,3.07,0,0,1-.985.378,20.143,20.143,0,0,0-2.655.247c-.606.175-.416.587-.568.928s-.393.2-.847.353a3.927,3.927,0,0,0-1.528,1.742,5.724,5.724,0,0,1-1.251,1.481,3.983,3.983,0,0,0,1.263-.942,19.365,19.365,0,0,1,2.363-1.834,4.177,4.177,0,0,1,1.717-.742c.241.072.836.531.836.766s-.178.423-.607.822-1,0-.96.164a1.105,1.105,0,0,0,.67.623c.329.082.314.484.314.683s-.189.459.569,1.095a2.313,2.313,0,0,0,1.846.646c.555-.035.264.189.492.166s.277-.459.353-.812a1.459,1.459,0,0,1,.4-.835c.2-.154.353-.436.417.107a1.771,1.771,0,0,1-.52,1.446c-.288.164-.225.376-.225.541s-.329.177-1.113.613-1.036.54-1.175.482-.43.071-.807.411-.783.8-1.061.788-.518-.129-.139-.517.506-.929.884-1.118a1.531,1.531,0,0,1,.872-.164c.315,0,.164-.189.416-.375s-.19-.131-.62-.2-.1-.447-.1-.447l-.444.235a5.61,5.61,0,0,1-.846.378c-.176.022-.138.14-.189.211a2.582,2.582,0,0,1-.682.118s-.329.67-.822.764-.149.058-.505.211-.288-.176-.366-.082a2.355,2.355,0,0,1-.529.471c-.393.294-.621.388-.9,1.459a2.6,2.6,0,0,0,.038,1.623c-.013.164-.493-.107-.631.023a2.255,2.255,0,0,1-.873.648,4.916,4.916,0,0,0-1.427.529c-.19.2-.2.482-.291.893a8.955,8.955,0,0,1-.581,1.377.664.664,0,0,0-.227-.671c-.342-.283-.29-.541-.29-.541a1.749,1.749,0,0,0,.051.788,2.245,2.245,0,0,1,.265,1.235,2.1,2.1,0,0,1-.593,1.129c-.268.154.061-.294.061-.646s-.176-.376-.291-.551a1.69,1.69,0,0,1,.088-1.225c.2-.6-.189-.234-.417.166a1.624,1.624,0,0,0-.037,1.624c.354.482-.227.434.013,1.128s-.29,1.036-.191,1.142.38-.046.506.293-.251.189-.378.284-.065.222.012.411.228.07.164.13a1.362,1.362,0,0,1-.569.4c-.328.105-.354-.06-.556.176s-.352.447-.568.717-.366.177-.594.365-.315.342-.594.577a6.883,6.883,0,0,0-1.25,1.059c-.342.459-.254.576-.418,1.318s.418,2.035.784,3.259.518.881.467,1.27a2.1,2.1,0,0,1-.481,1.129c-.263.271-.415-.189-.781-.46s-.078-.458-.43-1.022a1.99,1.99,0,0,1-.367-1.178,5.208,5.208,0,0,0-.29-1.446c-.19-.449-.6-1.014-1.2-.789s-.454.117-.783.022-1.2-.446-1.642-.211-1.843-.071-2.135,0-.506.095-.506.3-.125.233.393.375.442.294.405.518-.419-.118-.621-.2-.392.164-.745.164-.417-.341-.733-.387a2.7,2.7,0,0,1-.746-.118,2.7,2.7,0,0,0-1.061-.294,10.219,10.219,0,0,0-2.362,1.411,3.943,3.943,0,0,0-1.288,1.341c-.152.389-.166.424.353,1s.278.483.177.812-.4.729-.77,1.576-.152,1.258.288,2.07a7.618,7.618,0,0,0,1.19,1.741c.354.341.6.707.909.835a1.2,1.2,0,0,1,.505.317c.139.142.1.2.583.072a5.455,5.455,0,0,1,1.173-.319,1.246,1.246,0,0,1,.847.189c.189.176.214.072.214-.024a2.379,2.379,0,0,1,.2-.541,5.062,5.062,0,0,0,.58-1.093c.075-.353.075-1.06.519-1.106a11.6,11.6,0,0,1,2.248-.212c.858.058.48.483.254.929s-.319.495-.319.835.1.342-.174.542-.1-.118-.215.082a1.776,1.776,0,0,1-.468.436c.05-.046.176.339.176.528s-.037.283-.037.742-.9.929-.9.929a1.761,1.761,0,0,0,.809.189,3.692,3.692,0,0,1,1.566.235c.505.234,1.465-.189,2.174.164s.455.564.5.894a10.228,10.228,0,0,1,.078,1.717c-.052.259-.381.988-.557,1.507s.505.893,1.139,1.317a5.292,5.292,0,0,0,1.516.705c.325.094.932-.495,2.046-.423a1.749,1.749,0,0,1,1.49,1.011,4.777,4.777,0,0,1,.632-1.389c.506-.8.529-1.034,1.212-1.294s.91-.3,2.022-.659.908-.093,1.488-.046a16.129,16.129,0,0,1,3.261.564c1.339.4,3.387.518,4.169.847s1.137,1.249,1.946,2,1.819,1.435,2.248,1.788,2.831.683,3.361.894a2.634,2.634,0,0,1,1.314,1.6c.05.518.58.776,1.312,1.082s.96.66,1.442,1.6.327,1.2.983,1.435,5.207,1.458,6.342,1.905a29.665,29.665,0,0,1,2.956,1.788c.38.141,1.062-.119,1.366.046s-.177,1.059.2,1.695.4.682.177,1.153-1.137,1.6-1.49,2.165a4.071,4.071,0,0,1-1.542,1.154c-.43.234-.81,0-.43.47s.025.87-.3,1.294.025.375-.076,1.742,0,2.846-.152,3.434-1.034-.518-2.047.753-1.287,2.234-1.894,2.376a8.09,8.09,0,0,0-2.5,1.294,3.054,3.054,0,0,0-.886,1.271c-.3.658-.6,2-.934,2.824a6.768,6.768,0,0,1-2.071,2.4,28.761,28.761,0,0,0-2.529,3.107c-.782.87-.58.681-.744.847-.419.419-2.143-.678-1.7-.07.329.446-.185,0,.093.422s.481.588-.125,1.341-1.307.6-1.786.723-1.2-.495-1.246-.188a2.064,2.064,0,0,1-.708,1.253c-.378.189-1.389.471-1.363.588.478,2.23,1.458,2.461.42,2.359-2.849-.278-.817-.954-2.8,3.192-.3.637-.6.307-.555,1.06s0,1.317.405,1.788.125.446-.557,1.082a5.32,5.32,0,0,0-1.363,1.506c-.632.965-1.239.917-1.012,1.647s.279,1.812.658,2.893,1.162.893,2.4,1.647,1.39.352,2,.541-.43.236-1.517.424a6.811,6.811,0,0,1-2.551.236,13.339,13.339,0,0,1-3.159-1.648,6.488,6.488,0,0,1-1.945-2.022c-.353-.777-.606-1.553-1.06-2.612s-.129-1.718.075-4.047a36.858,36.858,0,0,1,.682-5.387c.327-1.249,1.339-6.8,1.616-8.236s1.567-7.271,1.668-8.188a21.84,21.84,0,0,1,.379-2.541,14.534,14.534,0,0,0,.076-2.87c0-.093-.076-.163-.356-1.034a2.593,2.593,0,0,0-1.362-1.6c-.631-.378-1.289-.848-1.794-1.2a7.675,7.675,0,0,1-1.617-1.481,13.668,13.668,0,0,1-1.238-2.472,33.067,33.067,0,0,0-2.047-3.645,7.108,7.108,0,0,1-1.339-2.636c-.429-1.341.379-1.365.531-2.117a11.257,11.257,0,0,1,1.213-2.563c.556-1.06,1.289-1.366,1.719-2.306s.1-.942-.051-1.859.051-.776-.229-1.271-.427-1.1-.681-1.27-.63-.284-.858-.023-.631,1.01-.884,1.058-.354-.236-.505-.4-.885-.164-1.037-.329-.531-.189-.782-.3a11.479,11.479,0,0,1-1.517-.871,2.013,2.013,0,0,1-.631-1.412c0-.61-.529-.848-1.717-1.693a7.07,7.07,0,0,0-3.134-1.319,6.167,6.167,0,0,1-2.5-1.646c-.48-.281-.429-.588-1.491-.47a7.251,7.251,0,0,1-3.159-.8,23.151,23.151,0,0,1-2.855-.964c-.6-.4-1.666-.542-2.121-1.506s-.38-.59-.2-1.435-1.036-1.553-1.769-2.353-1.289-.917-1.667-1.907-.935-.942-1.668-1.647a5.4,5.4,0,0,1-1.061-2.4c-.3-.8-2.324-1.953-2.324-1.953s.529,1.341.756,1.882a20.457,20.457,0,0,0,1.366,2.8c.6.964,1.137,1.2,1.692,2.164s.025,1.553-.177,1.177-1.011-.542-1.011-.988a2.225,2.225,0,0,0-.379-1.082c-.175-.353-.959-.754-1.718-1.367s-1.288-.893-.809-.893,1.163.447,1.036.164-.985-1.153-1.389-1.764a13.211,13.211,0,0,1-.936-2.329,4.079,4.079,0,0,0-2.628-2.094c-.731-.071-.934-.423-1.186-1.176a13.7,13.7,0,0,0-.631-2.142c-.329-.587-1.744-2.563-1.769-3.317s-.43-2.941.075-4.164a12.581,12.581,0,0,0,.3-4.494c-.075-.54-.987-1.575-.987-1.976s.533-.164.937-.049,1.261.471,1.261.471A10.879,10.879,0,0,0,123.1,117a5.808,5.808,0,0,0-2.122-1.083,2.352,2.352,0,0,1-1.491-.752c-.278-.448-.581-1.036-.784-1.413s-1.062-.822-1.261-1.223-.153-1.176-.43-1.575a.968.968,0,0,0-1.139-.471c-.456.164-.6-.235-.959-.825a2.583,2.583,0,0,0-1.364-.939,3.951,3.951,0,0,1-1.061-1.365,8.713,8.713,0,0,0-1.693-1.907,43.85,43.85,0,0,0-4.42-1.553,7.742,7.742,0,0,1-1.542.072c-.3-.095-1.34-.989-1.868-1.177s-.912.212-1.163.8a7.558,7.558,0,0,1-2.174,2.046c-.681.449-1.238.5-1.188.261a4.411,4.411,0,0,1,.255-1.178c.226-.564.353-.729,1.06-1.082s.681-.376.405-.353-.482-.046.075-.375.783-.378.758-.66-1.213.378-1.971.989a6.9,6.9,0,0,0-1.868,2.116c-.658,1.084.075.682-.481,1.389s-2.451,2.142-3.006,2.683a15.209,15.209,0,0,1-3.791,2.024,4.393,4.393,0,0,0-1.769.777c-.455.375-1.59.492-1.213.235s1.087-.849,1.567-1.131a20.311,20.311,0,0,1,2.148-.941A6.941,6.941,0,0,0,92.576,109a12.4,12.4,0,0,0,1.237-1.835c.353-.566.43-.825-.3-.59a3.1,3.1,0,0,1-1.87,0c-.379-.14-1.366.447-1.719.189s.025-.8-.2-1.059-1.01-.094-1.515-.19-1.213-.492-1.213-1.2-.505-1.317-.228-1.858.685-.683,1.137-.988a6.57,6.57,0,0,1,1.97-.707,1.479,1.479,0,0,0,.834-.493c.228-.235-.531-1.084-.531-1.084s.126-.093.43-.281.076-.587-.455-.518-1.668.613-2.376.8-1.666.072-1.641-.234.177-.495-.075-.73-.455-.495-.2-.61,1.82-.989,1.82-.989a2.279,2.279,0,0,0,1.162.682c.607.071,1.894-1.059,1.894-1.059-.807-.495-.63-.635-.63-.635a5.9,5.9,0,0,1-1.618-.212,1.341,1.341,0,0,1-.48-.893c-.075-.33-1.363-.59-1.01-1.132s1.01-.729,1.44-1.27a5.114,5.114,0,0,1,2.047-2.117,28.892,28.892,0,0,0,3.386-1.553c.657-.471.96-.022,1.214.046s1.819-.068,2.424-.068.708.681.909.846,5.534.329,5.534.329a47.978,47.978,0,0,1,5.431.33c.909.259,2.551.942,2.551.942C112.927,90.73,112.839,89.517,113.457,89.517Zm60.753-27.292a3.5,3.5,0,0,1-2.273,2.4,48.287,48.287,0,0,0-5.307,2.071c-.152.093.2,1.128.657,1.646s.884.871,1.288,1.389,1.112.47,1.668,1.011.959.352,2.476.376,1.112.141,2.8.236,3.462.235,4.044.753a16.235,16.235,0,0,1,1.945,3.765c.531,1.222,1.465,3.247,1.465,3.436s-.581,1.67-.581,1.9a2.212,2.212,0,0,0,.581.965c.277.329.126.588.075.893a3.2,3.2,0,0,0,.353,1.178c.052.093.809-.753,1.289-.894s1.668.848,1.668,1.529c0,1.546.422,1.02-2.1,2.847a4.58,4.58,0,0,0-.4,2.987c.251.9.858,1.953,1.338,3.225a32.809,32.809,0,0,0,2.349,3.882c.455.824.583,1.953,1.592,2.212s1.973.612,2.7.775,1.213.4,1.566-.281,1.061-3.27,1.644-5.153-.052-2.446,1.312-2.869,3.538-1.271,4.118-1.53.481-2.117,1.77-2.73a14.772,14.772,0,0,1,2.728-.964,17.191,17.191,0,0,0,4.3-2.094c1.263-.894,1.616-.423,2.071-1.248s-.455-2.024-.555-3.247.4-1.294.656-2.4a3.67,3.67,0,0,1,1.365-2.588c.987-.753,1.515-1.176,1.34-1.882a12.163,12.163,0,0,1-.682-2.541c0-.777.176-.328-.228-1.411a2.278,2.278,0,0,1-.027-2.236c.381-1.012,1.391-.752,1.316-1.2s-1.618-1.129-1.642-2.377a2.441,2.441,0,0,1,.531-1.929c.251-.307,2.83-2.353,3.006-2.541s-.05-.705,1.214-1.318,1.692-1.01,2.172-1.2,1.239-.164-.227-.59a5.819,5.819,0,0,0-2.753-.492c-.96.117-1.288.658-3.007.824a15.236,15.236,0,0,0-3.665.965s.583-.518.076-1.014,1.315-2.117,1.619-2.306-2.377-.846-3.767-1.1-4.118-1.083-5.684-.966a35.886,35.886,0,0,0-4.649.353c-.783.258-.681,1.271-1.566,1.318s-2.526-.518-3.79-.33a24.642,24.642,0,0,0-3.512,1.106c-.228.047.784.659,1.441.8s1.515,1.506,1.515,1.506-1.768-.588-3.563-1.083a9.353,9.353,0,0,0-4.624.212,11.684,11.684,0,0,1-3.158.682c-1.466.072-3.132,1.271-3.966,1.835s-3.436,2.071-4.093,2.424-.4.517.3.707S174.209,62.225,174.209,62.225Zm-37.444,19.45c.2.862.2,2.1-.271,1.568s-.858-1.616-1.616-1.177-1.583.315-1.448.22-.017-.565-.407-.705-.622.079-1.025.314-1.684.549-1.163.14.353-.627.168-1.1-1.516.329-2.224.833a8.264,8.264,0,0,0-1.549,1.786c-.422.518-.118.849.521,1.036s1.669.315.808.629-1.516.532-1.077.8a3.3,3.3,0,0,0,1.954.219,5.439,5.439,0,0,1,2.612.032,7.612,7.612,0,0,0,1.936.314,3.859,3.859,0,0,1-1.263.424c-.81.14-2.292,0-3.051.14s-1.952.344-1.649.627a3.106,3.106,0,0,0,1.583,1.052c1.044.329,1.23.016,1.852.171s.288.863.455.973a9.659,9.659,0,0,0,2.527-.313c1.179-.22.741-.409,1.668-.644s.959-.941,1.5-1.1.152.361.791.518.286.205.976.314.556.378,1.23.329,1.465-.5,1.365-.58a.584.584,0,0,1-.133-.6c.066-.314-.676.061-.944.22s-.253-.425.319-.707,1.081,0,1.415,0,.035-.973-.572-1.129-.876-.534-1.786-1.034-.438-.723-.707-1.38-.843-2.606-1.349-2.95-1.044-.251-1.548-.6A3.42,3.42,0,0,0,136.765,81.675Zm-13.981-1.333c.22.627.253.235-.185.924s-.185.942-.489,1.459-1.111,1.209-.858,1.553,1.061.548,1.4.815.673.815,1.279.612a6.6,6.6,0,0,0,1.23-.565c.423-.219.775-.47.758-1.019s-.034-.814.137-.768.437.3.571-.064a3.319,3.319,0,0,1,.658-1.113c.285-.281,1.111-.565,1.5-.894a8.972,8.972,0,0,0,1.23-.972c.186-.284-.338-.5-.657-.628s-.689-.627-1.432-.627-1.146.564-1.112.313-.505-.376-.807-.486a2.61,2.61,0,0,0-1.551-.171,10.857,10.857,0,0,0-2.122.392C121.672,79.29,122.565,79.713,122.784,80.342Zm21.93,7.514c-.1.139-.539.281-.807.594s.572.142.841.236.471.36.69.44a4.023,4.023,0,0,0,1.887-.111c.489-.235.539-.314.489-.423a7.4,7.4,0,0,0-1.719-1.428c-.708-.376-.724-.39-.876-.3S144.816,87.714,144.715,87.856Zm-3.184-7.341c-.456.228-.789.5-.016.894a12.846,12.846,0,0,1,1.55,1.051c.522.329.741,1.271,1.836.848s1.534-.925,1.686-1.366-.153-.533-.422-.942-.337-.58-.893-.518-.742.064-.742.064a3.106,3.106,0,0,1,.978-.769c.606-.3.1-.5.387-.784s-.724-.423-1.162-.314-.455-.031-1.179-.063-1.87.628-1.82.862.591.142,1.1.425.657.25.151,1.051-.774-.188-.943-.315S142,80.279,141.531,80.515ZM138.3,79.071c-.756.072-1.011.6-.724.674s.471-.079.925.408.859.754,1.044-.046S139.46,78.96,138.3,79.071ZM126.135,73c-.844.675-1.01,1.208-1.666,1.632s-.507.784-.287,1.018.876-.015,1.179-.171.555-.549.74-.313.961-.8,1.265-1.147a2.611,2.611,0,0,1,.859-.689c.085.016-.29.408-.153.737s.74.346,1.28-.219.051-1.083.473-1.521.774-.378-.05-.77a1.2,1.2,0,0,0-1.517.253A5.515,5.515,0,0,0,126.135,73Zm5.137,1.067a3.56,3.56,0,0,0-1.481.439,2.845,2.845,0,0,0-1.314,1.726c-.186.486.083.486.81.769a1.586,1.586,0,0,0,1.969-.753c.236-.675.524.156.388.5s.506.031.81-.126a4.864,4.864,0,0,1,1.279-.219,4.6,4.6,0,0,1-1.534.878,11.229,11.229,0,0,1-1.651.439c-.219.032.2.361,1.128.55s1.483-.565,2.815-1.068,1.263-.6,1.7-.469.91-.22,1.449-.346.758.08.995-.722.656-1.568-.1-1.616-.81-.046-.91.817-.169.33-.169.33-.505-.754-.807-1.147a13.434,13.434,0,0,0-.859-1.333c-.336-.329-.489.141-1.011.723s-.1.8.422,1.051.893.894.641,1.066-.54-.031-1.5.079-.927-.3-1.2-.423.454-.393-.575-.815S131.612,74.051,131.273,74.067Zm-3.116.817a5.426,5.426,0,0,0-1.49,1.136c-.211.321.212.266.632.251S127.8,75.488,128.157,74.884ZM130.82,72.8c-.346.155-.346.275.218.336s.894-.186.775-.423S131.1,72.68,130.82,72.8Zm2.871-2.979a3.877,3.877,0,0,0-1.526.634,1.488,1.488,0,0,0,.178.919c.168.321.228.368,1.169.117s1.593-.737,1.28-.824a6.422,6.422,0,0,0-.781-.265c-.279-.041.243-.189.866-.385S135.712,69.487,133.691,69.826Zm-3.191.493c-.266.122-.364.124.193.337s1.154.2,1.077.024A.927.927,0,0,0,130.5,70.319Zm2.172-1.545a1.52,1.52,0,0,0-.766.737c-.118.149.6-.109.924-.188s.405.116.726-.166.951.009,1.524-.118.665-.5.539-.829S134.18,68.177,132.672,68.774Zm5.709,1.42c-.155.074-.1.321.035.612s.169.219.454.329a2.2,2.2,0,0,1,.641.408c.068.071.109.094.227-.188s-.059-.236-.379-.613S138.787,70,138.381,70.194Zm1.946,2.463a.994.994,0,0,0-.843.211c-.16.079.085.258.195.6s.017.448.657.495.834-.071.884-.478S140.731,72.765,140.327,72.657Zm2.485.737c-.4-.291-.59-.526-.994-.361s-.067.368-.067.48.489-.016.5.251.16.375-.43.407-.751.008-.978.181.439-.023.642.243.547.3,1.111.212,1.331-.212,1.331-.212a4.49,4.49,0,0,0-.581.666c-.168.275-.235.667.059.862s.328-.2,1.146-.219a1.2,1.2,0,0,0,1.061-.438.772.772,0,0,1-.16-.59,1.613,1.613,0,0,0-.009-.5,3.312,3.312,0,0,1,.4.33s-.058-.243-.176-.683-.024-.471-.152-1.066-.1-.723-.716-.707-1.037.228-1.543.228-.724.094-.352.283.422.415.6.627a1.387,1.387,0,0,1,.152.7C143.662,74.06,142.812,73.393,142.812,73.393Zm-3.074,2.234-.027.012a.735.735,0,0,0-.361.609c-.016.2.338.086.9-.11S140.539,75.371,139.738,75.628Zm7.951-1.066a4.132,4.132,0,0,0-1.112.9c-.269.3-.032.344.666.7s1.448.423,1.776.054S148.867,73.918,147.688,74.562Zm3.25-2.737c-.9.089-.619.222-1.655-.117a9.7,9.7,0,0,0-2.69-.378c-.354,0-.189.164.177.766s.467.811,1.225.622,1.376-.316,1.932.482.847,1.049.392,1.342-.241.763.025,1.377.871.586,1.718.586,6.2-.081,7.037-.234a5.4,5.4,0,0,0,2.021-1.177c.442-.317.682-.812.076-1.177a4.679,4.679,0,0,0-2.149-.705c-.683,0-1.263.353-2.3.459s-.807.6-1.742.624-.482.436-1.631-.036-2-1.06-1.45-1.142.983-.152.68-.41S151.772,71.742,150.938,71.825Zm-10.712-4.376c.555.188.695.329.075.493s-1.1.6-.48.518a6.564,6.564,0,0,1,1.945.189c.8.129.732.046,1.087.493a1.069,1.069,0,0,0,1.278.319c.542-.131.617-.166.265-.555s-.72-1.1-1.2-1.388-.884-.682-1.365-.634-.593.058-1.011-.506-.744-.3-1.352-.142-.8.586-1.036.777C137.953,67.4,139.672,67.26,140.226,67.449Zm7.278-5.765c-.658.824-1.188,1.517-.445,1.6s1.075-.059,1.126.178-.126.4-1.238.4-.77.248-.152.976.683.482,1.63.459,1.263-.366,2.047-.163,1.023.4.316.61-2.377.612-2,.965a6.534,6.534,0,0,0,2.085,1.282c.531.082.644-.353,1.794-.225s.872.248,1-.07.759-1.128.884-1.424.444-.483,1.075-.623.834-.342.24-.554-1.263-.306-1.2-.47.43-.647.176-.9-.656-.235-.986-.364-.694-.729-1.112-.988a9.619,9.619,0,0,1-1.288-.671c-.505-.387-1.314-1.334-2.324-1.281C148.452,60.46,148.16,60.86,147.5,61.684Zm-1.29,6.883c-.253.129-.884.152-.416.54s.341.4.934.177a4.744,4.744,0,0,0,1.53-.942c.074-.164-.594-.482-1.049-.623a12.3,12.3,0,0,0-1.719-.766C144.116,66.578,146.466,68.436,146.214,68.567Zm30.909-12.239c-1.045-.283-4.783-1.005-6-.723s-1.146-.627-2.83-.407-4.278.094-5.086.219.4.471.842.753-2.088-.313-4.01.22-3.166.815-1.11,1.6a13.016,13.016,0,0,1,2.325,1,28.627,28.627,0,0,1-3.74-.91c-1.112-.438-.505-.408-2.595.188s-4.109.912-4.008,1.538,1.685,1.475,2.728,1.693a9.861,9.861,0,0,0,3.37-.376c.168-.063-.842.848-.842.848s1.077-.22,2.29-.535,2.156-.657,3.3-1.066a9.945,9.945,0,0,0,1.347-.534,17.875,17.875,0,0,1-3.368,2.071,15.109,15.109,0,0,1-4.009.91c-.842.031-.709.564.134,1a12.585,12.585,0,0,1,1.92,1.692,1.323,1.323,0,0,1,.505.817,2.337,2.337,0,0,0-2.763,0c-1.449,1.034-1.247,1.568-.876,1.695s1.651.25,1.886.689,1.92-.408,1.92-.408-.841,1.067-1.651,1.067-.774-.69-1.954-.565-1.112.409-.6.815.909.535.032.943S153,71.1,152.969,71.6s1.146.5,1.886.5,1.449-.065,2.8-.095,1.178-.47,1.683-.47,1.011.156.81.658.2.189,1.684-.344.806-1.351.708-1.632-.641-.376-.978-.533,1.011-1.538.809-2.007,1.651-.095,2.492-1.193.54-1.914-.066-2.1,1.113-.063,1.651-.378a7.714,7.714,0,0,0,2.19-1.285c.47-.6.639-.817-.505-.69s1.648-.5,3-1.382,2.9-1.912,3.234-2.164.642-.126-.943-.031-3.47-.125-2.424-.25,4.143-.5,4.952-1.1A9.679,9.679,0,0,1,177.122,56.328ZM158.258,78.1c-1.685-.158-4.142-.564-4.649.878a45.105,45.105,0,0,0-1.347,5.24c-.067.6,2.021,1.473,3.47,1.536s3.807.158,3.335-.188-.067-.533,1.28-.47,1.483-.283,1.483-.565.236.345,1.179.847,1.753,1.915,2.595,2.73,2.728,1.914,2.358,2.541.4,2.824-2.5,3.326-3.065.156-3.03.815.167.941,1.312.941,2.729-.941,3.269-.25a3.46,3.46,0,0,0,1.753,1.1c.47.156-.573.438-.843.533s.573.188,2.224.972,3.637.879,2.66.315-1.447-1.6-1.886-1.946-.034-.063.742.126a4.893,4.893,0,0,1,1.817,1.1c.337.283.506-.093.741-1.192s-.1-1.1-1.415-1.975-1.717-1.568-1.852-2.2.674-.753,1.011-1.193,1.281.785,1.92,1.506,1.178,1.977,1.684,1.068a11.488,11.488,0,0,0,.975-3.421c0-.469-.5.031-2.66-1.036a17.709,17.709,0,0,0-3.469-1.473c-.2,0,.572-.408,1.516-.878s1.346-.408-.675-2.322-2.595-2.321-3.908-2.446-1.684-1.506-2.627-1.976-3.133.564-3.774.722-.438.407-1.246-.753S158.258,78.1,158.258,78.1Zm1.515,0c-.837.1.506,1.631,1.583,1.7a5.17,5.17,0,0,0,2.224-.535A7.537,7.537,0,0,0,159.773,78.1Zm-3.781,15.56a8,8,0,0,0-.531,1.931,3.469,3.469,0,0,1-.278,1.128c-.125.4.4-.071.759.518s.2.753.833.071A1.974,1.974,0,0,1,159,96.671c.885.281,1.567.4,1.264-.14s-.708-.5-1.314-1.224a3.559,3.559,0,0,0-1.819-1.2C156.371,93.824,156.295,92.929,155.992,93.658Zm6.357,54.97a2.74,2.74,0,0,0-2.291-1.731,3.841,3.841,0,0,0-2.8.51c-.606.2.565.3,1.345,0a1.476,1.476,0,0,1,1.48.074c.1.141-.263.226-.4.076s-.159.366.723.683,1.095.469,1.184.847a2.368,2.368,0,0,0,.281.9c.2.316.276.449-.094.587s-.24.119.032.288a3.608,3.608,0,0,0,1.593.513c.769.066,1.024.209.489-.5S162.431,148.8,162.349,148.628Zm2.448,3.446a1.227,1.227,0,0,1,.272,1.164c-.029.251-.489.057-1.336-.167s-.717-.115.019.283,1.212.3,1.179.828.675.049.987-.257.291-.035,1.6.162,1.575.433,1.368-.14.6-.527-.563-1.073S164.311,151.576,164.8,152.074Zm-3.721.327c-.492-.544-1.106-.623-1.112-.16s.167.436.62.562S161.391,152.747,161.076,152.4Zm9.489,2.361c-.534-.184-.644.219-.288.554s.9.219,1.44.193S171.5,155.082,170.565,154.762Zm-6.146-65.656c-.709.3-1.125.506-.506,1.318s.987,1.317,1.224.73S165.618,88.6,164.419,89.106Zm-5.672,8.709c-1.067.173-1.415.2-1.247.8s.456.5,1.179.139S159.908,97.628,158.747,97.815Zm2.223.91c-.182.056-.235.47,0,.846s.69-.124.893-.579S161.644,98.521,160.969,98.726ZM149.313,69.77c-1.01.034-2.527.392-1.685.407a24,24,0,0,0,2.9.111c1.365-.079,1.5-.174,1.532-.832S151.168,69.708,149.313,69.77ZM143,64.233c-1.031.32-.776.533.436,1.067s1.248.281,1.113-.723S143.6,64.045,143,64.233Zm72,26.254c-1.275.357-1.7.144-1.946.791s-.741.3-1.031.38-.7,1.886-.9,1.617a4.88,4.88,0,0,1-.57-1.036c-.293-.621.1-.511-.464-1.165s-1.67-.579-1.749-.312.766.493.48.8a14.548,14.548,0,0,1-1.235.893c-.261.219.5.124.976.012s.805.359,1,.692-.218.659-.425.821.695.124,1.054.19.549.371.3.777,1.07.058,1.8.016.919.5,2.021.154a6.681,6.681,0,0,0,2.631-1.064c1-.742.927-.569,1.593-1.049s.507-.627.535-1.157.44.149.283-.653-.979-.584-1.552-.646-.555-.513-.843-.656S216.293,90.126,215,90.488ZM300.277,159.6a2.512,2.512,0,0,0-.135.831c0,.424-.05.88-.016,1.3s.059.722.294.817a.784.784,0,0,0,.784.008c.388-.181.749-.5.556-.989a13.291,13.291,0,0,0-.767-1.513C300.783,159.694,300.379,159.238,300.277,159.6Zm-.308-.583c.041.181.1.142.184.268s.176.015.059-.149-.1-.184-.1-.184-.149-.051-.149.1m36.38,25.008c-.006.019-.028.028-.042.044-.692.7-1.32.5-2.509.873-1.212.375-3.309,1.6-3.462,2.141s0,.612-.151.54a1.824,1.824,0,0,1-.405-.4,2.572,2.572,0,0,0-.253,1.248,7.661,7.661,0,0,1,.329,1.693c-.025.754-.3,1.2-.278,1.718s.884,1.506,1.112,2.12a3.456,3.456,0,0,1,.5,1.552c.126,1.1.708,1.717.126,2.305s-1.01.47-.3,1.082a2.118,2.118,0,0,0,2.424.612c1.137-.4.835-.753,1.72-.942a10.835,10.835,0,0,1,1.819-.423c.756-.046,1.288.023,1.567-.517s.075-.518.833-.9.682-.471,1.188-.564.833.259,1.515-.283.176-.588,1.692-.588a7.231,7.231,0,0,1,2.7.4,4.239,4.239,0,0,1,1.693,1.036c.228.353.531.777.63.777s.229.023.583-.329a15.2,15.2,0,0,1,1.363-1.059,2.518,2.518,0,0,1-.277,1.034,1.329,1.329,0,0,0-.229.825c0,.14.583-.448.659-.471s.151,1.036.227,1.129.3.046.531.353a3.887,3.887,0,0,1,.759,1.129,2.7,2.7,0,0,0,1.793,1.27,5.047,5.047,0,0,0,1.593-.023c.454-.071.48-.613.959-.4s-.024.658,1.112.565a3.037,3.037,0,0,0,1.895-.778c.454-.3.505.425,1.087-.375s.681-.612.783-1.576a3.566,3.566,0,0,1,.63-2.071c.557-.917.685-.471,1.063-1.81a13.143,13.143,0,0,0,.809-3.718,5.014,5.014,0,0,0-.228-1.624c-.253-1.246-.075-1.105-.885-1.622s-1.009-.379-1.213-1.107.051-.942-.329-.942-.708.164-.934-.329a3.1,3.1,0,0,0-.631-1.153c-.43-.471-.833-.376-1.617-.729s-.381-.447-.381-1.06.044-1.261-.579-1.545-.252.156-.252-.847,0-.863-.505-1.034-.675-.156-1-.77-.74-1.615-.892-2.021-.336.046-.54.344a3.165,3.165,0,0,0-.489,1.568c0,.612.27.958.27,1.773a3.866,3.866,0,0,1-.926,2.1c-.353.471-.641.046-.944-.079s-.371-.581-1.01-.894a11.261,11.261,0,0,1-2.358-1.082c-.54-.487-.169-.5,0-1a2.566,2.566,0,0,1,.809-1.239c.4-.329.286-.455-.219-.738a4.449,4.449,0,0,0-2.072-.3c-.859,0-1.365-.061-1.315.425s.556.673-.166.533-1.349-.205-1.669.14a2.336,2.336,0,0,0-.572,1.287c-.186.737.051.783-.253.783a11.345,11.345,0,0,1-1.9-.751c-.4-.174-.622-.158-1.093.281a25.93,25.93,0,0,1-2.713,2.211C336.919,182.2,336.952,182.124,336.339,184.055Zm-22.477-21.206c-.358-.05-.556-.142-.119.422a6.777,6.777,0,0,0,.978,1.068c.422.392.573-.284.893.469s.2.769.522,1.051.59.363.673.644a1.965,1.965,0,0,0,.556,1.036c.372.314.372.266.59.878s.556,1.051.725,1.568,1.128,1,1.616,1.632,1.316,1.537,1.45,1.286.488,0,.74-.094.337-.455.505-1.333a1.426,1.426,0,0,0-.388-1.491c-.235-.2-.673-.25-.79-.439s-.32-.831-.607-1.036-.354.016-.354-.486.337-.454-.083-.736a2.257,2.257,0,0,1-.608-.628c-.133-.141-1.042-.361-1.28-.613s-1.228-.707-1.7-1.177a6.189,6.189,0,0,1-1.144-1.191C315.882,163.334,315.41,163.05,313.861,162.849Zm9.8,10.117c-.4,0-.606-.236-.876.25s-.235.486.185.486.337.22.319.283-.2-.048.658.3a2.112,2.112,0,0,0,1.7.078c.235-.125.32.314,1.5.5s1.8-.108,2.559.08.575-.095.035-.5-.489-.189-1.029-.58a3.689,3.689,0,0,0-1.649-.471c-.354-.064.3.376-.775.234s-.69.1-1.247-.265-.556-.423-.927-.486S323.664,172.966,323.664,172.966Zm8.556,1.725c-.3.094-.927.268-.639.391s.065.205.959.126a3.822,3.822,0,0,0,1.785-.376c.118-.189-.151-.063-.522-.174s-.337.079-.842.142A1.092,1.092,0,0,1,332.221,174.69Zm3.133-.064c-.6.074-.522.205-.051.346a2.432,2.432,0,0,0,1.264.109,5.833,5.833,0,0,1,1.061-.3c.657-.11.876-.094,1.4-.158l.524-.063s-.051-.109-.405-.093-.6.031-.959.031-.96.313-1.213.3-.74-.173-.859-.095S336,174.549,335.354,174.627Zm3.37.769a.091.091,0,0,0-.022.015c-.417.286-.434.365-.4.591a.426.426,0,0,1-.045.329,1.792,1.792,0,0,0,1.081-.5,1.769,1.769,0,0,1,.965-.636,3.649,3.649,0,0,0,1.024-.693,3,3,0,0,1-.795.046,1.493,1.493,0,0,0-.961.329C339.441,174.99,339.7,175.02,338.724,175.4Zm-3.521.248c-.439-.315-.864-.27-.9-.078s-.38.183.239.412,1.208.531,1.163.217S335.392,175.778,335.2,175.644Zm-4.025-13.079c-.254.361.235.266-.135.581s-.656.171-1.025.642a5.368,5.368,0,0,1-1.163.973c-.236.174-.995.375-1.332.832a.449.449,0,0,0,.119.705s-.2.094-.742-.11-.572-.454-.572-.454-.388-.016-.606.564-.338.642.049.989-.268.359-.184.6.085.675.32.722.286-.22.573.141.051,1.38.42,1.427.639-.11.96.031a1.155,1.155,0,0,0,.976.125,1.446,1.446,0,0,1,1.1.125,3.584,3.584,0,0,0,1.4.361c.389-.031.454.064.522-.487s.017-1.067.489-1.49.489-.424.521-.817a2.209,2.209,0,0,1,.322-1.207c.284-.409.454.235.606-.079s.3-.313.218-.47-.521-.158-.689-.455.051-.455-.153-1.067-.319-.376-.032-.722.521-.408.555-.674.151-.283.506-.533-.057-.133-.393-.385-.967-1.192-1.36-1.184C332.229,161.252,331.428,162.2,331.177,162.565Zm49.771,33.3c-.162-.119-.3-.031.071.408s.4.313.638.329.439.879.572,1.1a3.78,3.78,0,0,0,.388.485,4.742,4.742,0,0,1,.017,1.366c-.117.423-.371.61-.454,1s.387.283.69.408.252.126.134.47-.471.5-.471.565.69.454,1.045.031a6.313,6.313,0,0,0,1.062-1.5c.149-.456-.271-.253.218-.581s.42-.174.674-.58.521-.832.235-1.052-.6.268-.861.361a.88.88,0,0,1-.807-.064c-.353-.171-.422-.171-.555-.486a1.793,1.793,0,0,0-.3-.486s-.1.534-.353.363-.186-.363-.371-.66a5.91,5.91,0,0,1-.3-.61c-.117-.22-.017-.644-.606-.707S381.1,195.976,380.948,195.866Zm.1,5.694a6.341,6.341,0,0,0-.892.988,4.293,4.293,0,0,0-.623,1.114,3.224,3.224,0,0,1-1.432,1.113c-.81.424-1.113.6-1.382.988s-1.23,1.615-1.347,1.757.454.283,1.045.283,1.515.533,2.02-.016a19.706,19.706,0,0,0,1.331-2.321,5.908,5.908,0,0,1,1.128-1.1c.505-.454,1.348-1.3,1.348-1.631a3.036,3.036,0,0,0-.219-.862.636.636,0,0,1-.624.313C380.966,202.14,381.051,201.56,381.051,201.56Zm-3.972,6.026c-.592-.314-.708.27-.8.868s.256.09.77-.18S377.3,207.7,377.079,207.585Zm-20.031-4.113c-.666-.221-.555.41-.454.879a3.454,3.454,0,0,0,.489,1.238,1.6,1.6,0,0,0,1.567.363c.369-.174.638-.753,1.01-1.3a2.364,2.364,0,0,0,.471-1.5c-.067-.33-.539.3-.843.439a1.691,1.691,0,0,1-1.279.345A4.833,4.833,0,0,1,357.048,203.472ZM348.661,169.8c-.539.125-.809-.346-1.246-1.256s-.775-1.034-1.887-.628-.943.315-.2.6a9.67,9.67,0,0,0,.943.376c.1,0,1.179.158.943.314s-1.246.313-.607.753a19.155,19.155,0,0,0,2.056.973c1.684.847,1.954.22,2.494,1.317s.537.91.1,1.193-1.01.564-.774.6a15.555,15.555,0,0,0,1.819.189c1.146.063.067.722,1.347.722a2.236,2.236,0,0,0,2.122-1c.506-.6.607-.283,1.684-.031s1.45,1.192,2.8,1.568,1.919.878,1.077.094a27.9,27.9,0,0,0-2.291-2.259c-1.146-.908-1.213-1-1.549-1.693a5.816,5.816,0,0,0-2.83-2.04,28.7,28.7,0,0,0-3.6-1.036C349.468,168.1,349.2,169.67,348.661,169.8ZM339.8,166.66c-.5.352-.566.137-.944-.1s-.272.488-1.112.1-1.152-.587-2.056.079-.336.937-.358,1.406a9.517,9.517,0,0,1-1.029,2.285c-.271.489-.27.665-.061.978s.5.195.629.351a4.3,4.3,0,0,1-.147,1.8c-.147.411.358.489.881.371s.064-.155.064-.585.251-.626.251-1.428v-1.17s.147-.079.336.193.462,1.037.691,1.428.462.682.819.409.692-.586.692-.586-.692-.214-.692-.449a1.19,1.19,0,0,0-.19-1.21c-.482-.782-.733-.821-.124-.861s.587-.645.943-.82a1.791,1.791,0,0,1,.861-.117.94.94,0,0,0-.9-.215,6.892,6.892,0,0,0-1.49.489c-.461.254-.861.411-.944-.059a3.217,3.217,0,0,1-.083-1.231c.063-.644.8-.156,1.342-.312s.547-.117,1.741-.039,1.28-.2,1.637-.683a4.979,4.979,0,0,0,.565-1.056S340.3,166.308,339.8,166.66Zm2.832-1.71c.107-.2-.876.673-1.06.847s0,.423.132.675a7.242,7.242,0,0,1,.153,1.3c.051.188.556.36.556.36a1.823,1.823,0,0,1,.168-.846c.185-.268,0-.6,0-1.082S342.311,165.53,342.631,164.95Zm-1.937,5.15c-.774-.3-1.062-.1-1.062.3s-.086.606.738.606S342.124,170.644,340.694,170.1Zm1.539-.263c-.19.06-.39.667-.281,1.029s.239.123.672.042.367-.424.909-.464a5.786,5.786,0,0,1,1.669.383s.239-.283-.627-.827A2.2,2.2,0,0,0,342.233,169.837Zm-15.41-19.953s-.775.022-.893.022-.388.3-.581.418-.193.28-.058.586.361.322.74.424.244-.163.524-.266a.725.725,0,0,0,.412-.579.874.874,0,0,1,.312-.409c.066-.078-.219-.345-.219-.37A1.619,1.619,0,0,0,326.823,149.884Zm9.122,1.09c-.3-.226-.473.565-.557.972s-.185.675-.034.973.085.393.085.393l-.439-.33a2.825,2.825,0,0,0-.117.705c0,.33-.136.471.371.707s.674.109.74.471.067.517.405.58a1.348,1.348,0,0,1,.858.424c.134.219.067-.583.3-.535a1.372,1.372,0,0,1,.674.613.58.58,0,0,0,.419.281s-.387-.643-.218-.722.218-.14-.22-.408a2.358,2.358,0,0,0-1.127-.251c-.336-.046-.336.236-.59-.423a1.929,1.929,0,0,1-.05-1.208c0-.14.184.22.387-.235a2.39,2.39,0,0,0,.218-1.254c-.032-.439.3-.613.051-.628A3.84,3.84,0,0,1,335.945,150.974Zm4.007,8.429c.051.317-.3-.089-.436.094s-.2.146-.416.235a4.533,4.533,0,0,0-.732.571s-.007-.312.006-.382-.159-.436-.316-.189a1.437,1.437,0,0,1-.664.581,1.018,1.018,0,0,0-.617.754c-.045.317.214.306.214.306a2.014,2.014,0,0,0,.373-.47c.233-.365.277-.353.7-.407s.392-.047.526.182.031.578.043.831-.012.557.422.705.229.013.627-.023.393-.024.335-.225a3.369,3.369,0,0,1-.2-.61c-.025-.235.229-.336.31-.382s.133.235.254.528.169.283.22.059a3.348,3.348,0,0,0,.139-1.036,3.949,3.949,0,0,1-.075-.734.918.918,0,0,0-.309-.6c-.115-.083-.506-.429-.506-.429S339.9,159.086,339.951,159.4Zm-1.938-1.92s.009-.2-.357-.558-.375-.463-.934-.561-1.115.05-.88.649.3.686.777.758a.966.966,0,0,0,.756-.184s.036.1-.409.375-.5.814-.148,1.023.341.526.541.366.348-.71.758-1.093.436-.438.489-.846a3.255,3.255,0,0,0,.009-.734Zm.954-1.149c-.051.039-.343-.03-.039.264s.581.359.543.576-.013.259-.182.235-.222-.065-.3-.071-.087.141-.037.277.037-.017.182.211a1.118,1.118,0,0,1,.153.571c.044.265.158.135.158.135s-.038-.635-.019-.763-.051-.442.163-.343.158.478.284.125a1.62,1.62,0,0,0,.008-.947c-.064-.284-.286-.3-.544-.3A1.922,1.922,0,0,0,338.968,156.333Zm-4.358,1.087c-.126.031-.2.154-.279.584a1.585,1.585,0,0,1-.575.9,8.6,8.6,0,0,0-1,1.066c-.039.134-.045.052.481-.2s.941-.576,1-.91-.061-.129.4-.346.226-.29.246-.631S334.841,157.361,334.61,157.42ZM362.5,170.266c-.057.437.125.568-.279.887a2.487,2.487,0,0,1-1.289.393c-.43.071-.116-.071-.647-.087s-.667.024-.422.291.184.525.967.493a6.794,6.794,0,0,0,1.939-.61c.505-.158.463-.565.505-.753S362.557,169.8,362.5,170.266Zm2.188.942c.217.308.134.261.412.667a1.735,1.735,0,0,0,1.045.588c.328.109,0-.118-.243-.446a3.832,3.832,0,0,0-.624-.84C364.914,170.848,364.308,170.668,364.687,171.207Zm-28.448-26.375c-1.08.686-1.566.635-1.136,1.506s.7,1.239.758,1.4.277-.11.571-.8a15.89,15.89,0,0,0,.447-1.866C337,144.8,336.608,144.6,336.239,144.832Zm18.486-33.841c.119.455.235,1.161-.034,1.238s-.455.581-.521,1.1a2.394,2.394,0,0,0,.083,1.583c.287.407.083.438.083.784a6.229,6.229,0,0,1-.067,1.741,2.1,2.1,0,0,0-.2,1.192,10.193,10.193,0,0,1,0,1.443c0,.784-.05,1.411-.016,1.725s.2-.156.319-.266a.7.7,0,0,1,.826.095l.254.266s.4.173-.152-1.019-.657-.942-.505-2.025.235-1.1.807-1.208.875.675.944.753-.051-.266-.254-.877a5.267,5.267,0,0,1-.454-1.585,2.454,2.454,0,0,0-.607-1.631c-.3-.219-.151-.581-.016-.879a2.475,2.475,0,0,0,.119-1.271,13.491,13.491,0,0,0-.3-1.521c-.086-.283-.423.171-.423.171Zm-.505,12.016a1.5,1.5,0,0,1-.168,1.049c-.236.393-.068.486-.2,1.036s-.792,0-.792.111a1.148,1.148,0,0,1-.27.642c-.168.141-.742.173-.573.722a7.8,7.8,0,0,0,.473,1.128,2.738,2.738,0,0,1,.437-.344c.1-.031.372-.109.372-.109s-.051-.158-.422-.33a.506.506,0,0,1-.286-.643c.051-.111.521.031.825,0s.557-.189.928.109a2.461,2.461,0,0,0,.909.409,2.79,2.79,0,0,1,.234-.753c.169-.313.658-.174,1.147-.313s.858-.22.692-.425-.153-.659-.255-1-.42-.015-.673.11a.946.946,0,0,1-.91-.188,6.756,6.756,0,0,1-1.161-1.381S354.185,122.662,354.219,123.007Zm-1.508,5.144a1.1,1.1,0,0,0-.328.952c.037.459.429-.035-.076,1.376s-.759,1.729-1.251,2.1a1.211,1.211,0,0,1-1.136.27c-.19-.093.051-.412.19-.506s-.431-.13-.671-.094-.013.307-.038.529-.492.824-.441,1.095.05.353-.253.447-.505-.225-.594-.271a7.118,7.118,0,0,0-1.136.164,1.126,1.126,0,0,0-1,.718c-.253.436-.847.505-1.275.67s-.265.777-.733.989-.468.6-.505.917.29.094.341.071.051-.447.342-.4.328.058.176.388-.239.493-.39.776.05.412.277.695.444-.083.922-.588.519-.624.481-1.2-.229-.588-.581-.752-.431,0-.038-.448.569-.012.834-.211a6.47,6.47,0,0,1,1.529-.342c.619-.153,1.214-.352,1.238-.153s.215.871.239,1.011.432-.2.847-.352.027-.222-.013-.493a.466.466,0,0,1,.19-.425s.215.448.884.131.722-.448.9-.4.291.225.568.049.33-.013.279.13.809-.271,1-.4.089-.013.013-.507-.316-.528-.176-1.164a5.621,5.621,0,0,0,.139-1.095c.037-.4.189-.458.29-.482s.1-.554.316-.834.163-.412.163-1.06-.353-.531-.376-.988a3.411,3.411,0,0,1,.086-.906s-.719.271-.793.436l-.079.164S352.952,128.033,352.711,128.152ZM348,135.221a13.471,13.471,0,0,0-1.715.345c-.442.142-.537.337-.468.78a9.308,9.308,0,0,0,.3,1.114c.061.23.3,0,.72-.22s.389-.868.789-.868.25.461.788-.186.13-.7.146-1.026S348,135.221,348,135.221Zm47.2-34.841c-.8-.155-1.029-.328-1.1-.039s-.161.386.345.565.758-.133,1.23.22a1.013,1.013,0,0,0,.967.29.782.782,0,0,0,.506-.227A11.428,11.428,0,0,0,395.2,100.38Zm-9.123-12.568c-.293.082-.532-.2-.455.518s.239.8,1.161.67a11.365,11.365,0,0,1,1.492-.129A3.979,3.979,0,0,0,389.8,88.6a2.215,2.215,0,0,0-.6-.682c-.431-.329-1,.225-1.973.059A10.7,10.7,0,0,0,386.077,87.812Zm-28.463-10.6c.013.276,1.264,1.046,1.718,1.271s.807.129,1.769.023,1.037-.517,1.149-.752-.454-.153-1.1-.283-1.176.117-1.4,0,.342-.235-.227-.447-.708.07-.834-.023-.152-.3-.43-.317S357.6,76.955,357.613,77.212Zm-4.953,1.611c-.436.175-.4.33.088.741s.33.317.115.612,0-.012.708.306,1,.9,1.44,1.024a1.049,1.049,0,0,0,.746-.035,4.014,4.014,0,0,0-.569-1.036c-.417-.564-1.315-.729-1.479-1.223S353.28,78.577,352.66,78.823Zm4.51-2.3s-.643-.389-1.617-1a4.653,4.653,0,0,0-1.668-.824c-.33-.046-.277.342-.4.646s-.214.247-.72,0a7.981,7.981,0,0,0-1.528-.741c-.519-.117-.833.306-1.427.894s-.253.754.468,1.623,1.036.919,1.616.577.417-.564.834-.4a6.185,6.185,0,0,0,1.909-.164c.05,0-.089.8.542.588a3.841,3.841,0,0,0,1.5-.635C356.967,76.765,357.171,76.52,357.171,76.52Zm-43.748-16.8c-.184.155-1.263.063-1.82.939s-.942.268-1.229.8a11.266,11.266,0,0,0-.522,1.176s.507.6,1.046.55a2.39,2.39,0,0,1,2,.909c.522.72.91.72,2.173.924s.69.378,1.348.315,1.565.078,1.365-.251a1.422,1.422,0,0,1-.269-1.177c.083-.643.672-.612-.019-1.036a1.448,1.448,0,0,0-1.144-.156c.035-.079.623-.314.388-.33s-1.4-.078-1.534-.736.319-.708.555-.755.169-.124-.506-.61a18.433,18.433,0,0,0-1.581-.988C313.254,59.512,313.608,59.558,313.422,59.716Zm6.334,4.751a2.162,2.162,0,0,0-1.178,1,7.666,7.666,0,0,1-1.214,1.348c-.353.283-.253.363.321.566s1.582-.361,1.87-.378.505.425,1.414.314,2.29-.283,1.617-.769a14.14,14.14,0,0,1-1.179-.847,3.258,3.258,0,0,0-1.684-.643s1.534-.518,1.163-.548S319.756,64.467,319.756,64.467Zm-38.941-7.733c-.881.317-.573.471-1.147.927s-.186.579,1.046.281a7.709,7.709,0,0,0,2.087-.783C283.592,56.8,282.128,56.264,280.815,56.734Zm1.953,2.212c-.828.367-.607.753-.387,1.067s.824-.189.991.158.22.2,1-.315.489-.36.186-.909S284.183,58.32,282.768,58.947Zm-4.6-.227c-.531.253-.531.224-.027.459a2.99,2.99,0,0,0,2.363.01c.631-.41.583-.328-.215-.446A3.807,3.807,0,0,0,278.166,58.72Zm-7.808.952a12.023,12.023,0,0,1,2.238-.035c.656.071.415.635-.8.766s.115.317.973.281.3-.741,1.024-.988,1.175-.095,2.033-.4-.492-.6-1.491-.576a19.747,19.747,0,0,1-2.172.023,10.072,10.072,0,0,0-2.4.47C267.97,59.519,269.537,59.743,270.357,59.672Zm6.441.224c-.722,0-2.463.4-1,.541s1.353.236,1.959.013S277.559,59.9,276.8,59.9Zm5.106.307a3.271,3.271,0,0,0-1.845-.166c-.8.035-1.111.529-.592.741a2.081,2.081,0,0,0,1.3.059c.429-.071.4-.2.126-.306S282.51,60.4,281.9,60.2Zm4.321-1.271c-.789.1-.834.235-.91.493s.113.2.949.094A4.315,4.315,0,0,0,288.031,59c.543-.294-.113-1.011-.113-1.141s-.769.389-.985.576S287.158,58.814,286.225,58.932Zm-61.867,45.125c-.4,1.1-1.053,1.6-.277,1.3s1.549-1.249,1.51-.439-.8.692-.558,1.485.06.726,1.352,1.012.239.186.557.946.535.995.2,1.215-1.331-.692-1.39-.3.138.675.376,1.215-.159.844-.913,1.2-.1.575.476.541,2.026-.3,1.787.2-.932-.085-1.428.76-2.327,1.57-1.373,1.52.815-.3,3.657-.709.872-.035,2.741-.609,1.272-.726.239-.556.676-1.015.438-2.109-.913-.051-1.352-.745-.378-.894.458-.642.755-.168-.855-1.2-.616-.827-1.351-1.688a2.567,2.567,0,0,0-1.987-.76,2.533,2.533,0,0,0,.854-.945c.317-.624.378-.575.715-1.333s-.337-.692-1.191-.507-1.134.271-.954-.067a3.524,3.524,0,0,1,.7-.894c.4-.423.475-.642-.259-.473a5.368,5.368,0,0,0-1.469.439C224.1,102.351,224.757,102.959,224.358,104.056Zm-2.006,2.583c-1.3.512-.934.846-.715,1.03s.615-.169-.6.524-1.232,1.451-.6,1.6.557-.371-.118.9-1.133,2.127.239,1.806,1.748-1.03,2.4-1.113.775-.608.775-1.4-.437-.81.08-1.468.556-1.351-.459-1.67S223.166,106.318,222.352,106.639Zm16.318,17.716c-.069.177.086.659-.439.987s.254.629.422.943.388-1.067.336-1.727S238.889,123.79,238.67,124.356Zm-.253,2.6a1.4,1.4,0,0,0-1.011,1.349c-.1.642.692.124.489.688s-.016.863.876.331.388-1.019.522-1.695S239.547,126.426,238.418,126.96Zm13.2,6.931c-.753-.073-1.087.4.2.542a7.154,7.154,0,0,0,2.35.047c.478-.118.074-.024-.558-.447S252.583,133.986,251.623,133.891Zm7.175.4c-1.038-.224-.756,1.036.3.848s.656.071,1.137-.707S259.885,134.527,258.8,134.292Zm-25.8-5.843c-.843.108-.908.393-.253.565s.572-.031.943-.3S233.365,128.4,232.994,128.449Zm-51.028-15.357a7.221,7.221,0,0,0-1.845,2.329,5.574,5.574,0,0,1-1.365,1.907c-.707.73-.352.564,1.845.988s2.021.753,2.527.613.606.28.606.73.48.186.707-.518a4.074,4.074,0,0,0-.68-2.706c-.456-.731-.558-.731-1.265-.542s-.481-.164-.732-.729-.658-.118-.051-.965S182.47,112.694,181.965,113.092Zm-67.248-1.5a3.753,3.753,0,0,0,1.3,2.29c.556.392.439.174.186-.659s-.051-.831-.169-1.365S114.717,111.336,114.717,111.588Zm3.689,3.828a6.483,6.483,0,0,0,1.362,1.3,4.8,4.8,0,0,0,1.786.815c.81.236,1.162-.079.641-.548s-.085-.425-1.027-.645-1.144-.14-1.617-.438S118.085,115.086,118.406,115.416Zm-20.538-7.8c-.607-.138-.846-.164-1.264.164s-.529.612-.3.978.088.164.617-.2.28-.412.949-.577.532-.389.532-.389A.734.734,0,0,1,97.868,107.611Zm-.214-.811c-.409.246-.544.447-.089.352s.392-.352.682-.294.393-.058.393-.058A1.175,1.175,0,0,0,97.654,106.8Zm-11.661-1.872c-.555.271-1.082-.046-.738.159a2.091,2.091,0,0,0,1.173.359c.367-.041.608-.046.475-.224a.573.573,0,0,1-.177-.405C86.713,104.569,86.55,104.659,85.993,104.928ZM272.46,181.592c-.642,1.412-1.99.722-3.067,1.757s-.909.722-.1,2.165-.672,1.286-1.045,2.979.438,1.381.876,2.824.641,1,1.45.815a4.7,4.7,0,0,0,1.38-.564,20.172,20.172,0,0,1,.674-3.105,23.536,23.536,0,0,0,1.01-4.424c.1-1.224.2-2.1.474-1.726s.3.376.3-.22a4.789,4.789,0,0,0-.842-2.665C272.659,178.736,273.1,180.181,272.46,181.592Zm.944-96.5c-.883.2-1.3.741-.659.952s.581.1,1.644-.281S274.274,84.894,273.4,85.095Zm16.5-16.031c-.3-.47-.571.158-3.671,1.507s-3.066.188-5.963,2.478-2.258,2.007-2.427,3.389-.841.783-1.111,2.037-1.751,1.319-1.011,2.354a5.486,5.486,0,0,0,3.266,2.071c1.551.439,1.989-.031,1.653-.189a5.266,5.266,0,0,1-1.28-4.11c.235-2.1,1.01-1.788,1.684-2.573a21,21,0,0,1,3.571-3.514,41.905,41.905,0,0,1,5.569-2.122c.043-.015.1-.012.124-.042C291.492,69.033,290.212,69.535,289.909,69.064Zm-8.353,14.1c-.367.052-.54.064.136.722s1.263,1.161,1.042.283S281.892,83.119,281.556,83.165Zm11.064-6.383c-.491-.229-.756-.471-.875-.095s.556.879,1.213,1S293.093,77,292.62,76.781ZM176.65,116.261a5.288,5.288,0,0,0-1.969-.674c-.488,0,.1.517.876.941S177.089,116.482,176.65,116.261Zm-1.784,3.154c.041-.622-.414.714.142,1.011s.844.375,1.2.015.065-.133-.423-.219S174.832,119.932,174.866,119.416ZM395.562,97.8a3.8,3.8,0,0,1-1.592-.166,2.454,2.454,0,0,1-.328,1.083.694.694,0,0,0-.078.73s-.908-.4-1.439-.588-1.011-.023-1.315-.825-1.212-.658-1.919-.658-.505-.917-.505-.917l-.43.023c-.431.024-.354,1.059-.909,1.388a9.345,9.345,0,0,1-2.3.542,4.5,4.5,0,0,1,1.34,1.458,6.345,6.345,0,0,0,.657,1.294s-.1.307-1.442.047-1.261.259-2.7.846a20.111,20.111,0,0,0-3.487,1.813c-.405.329-.43.141-1.692-.164a1.733,1.733,0,0,0-1.845.518c-.328.164-.2-.753-.2-.753a2.46,2.46,0,0,0-1.011.283c-5.759,2.926-1.787,2.771-1.969,3.363l-.608,2.284c-.847,2.522-1.433,1.2-2.146,3.2-2.274,6.352-3.59-.98-3.59-2.658,0-1.037-.226-2.376.431-2.683,5.653-2.633.531-.365,5.837-4,1.719-1.177.783-1.882,1.162-2.211a2.285,2.285,0,0,1,.986-.425l-.935-.093c-.936-.094-.961.118-1.695.917s-1.312.942-1.162.329.177-1.246-.378-.916a4.886,4.886,0,0,1-1.819.493,5.086,5.086,0,0,0-3.083,1.882c-.935,1.177-.4,1.036-.1,1.317s-1.492.211-2.349.142-.407-.235.1-.4-.758-.306-1.87-.541-.682.189-1.338.446-.632-.234-.96-.306-1.794-.163-2.83-.283-.96.071-1.238.424-2.2,2.049-3.032,3.013-1.87,1.177-2.8,2.07-1.086.847-.329.989.859.068.986.775.481.941,1.289.941.58.212.732-.4-.2-1.316.481-.776a3.331,3.331,0,0,1,1.44,1.718c.2.777-.051,1.341-.4,2.636a28.963,28.963,0,0,1-.961,4.093c-.48.941-.858,1.647-1.389,2.682a16.314,16.314,0,0,1-3.688,3.883c-.581.234-.96.258-1.238-.259s-.481-.424-1.138.164a3.25,3.25,0,0,0-1.212,1.882c-.254.942-.81.942-1.391,1.647s-.732.542-.3,1.341a8.061,8.061,0,0,1,1.213,2.423,5.048,5.048,0,0,1-.63,2.4c-.279.493-1.592.729-1.567.493a18.658,18.658,0,0,0,0-2.094c-.051-.682-.557-.682-.38-.894s.91-.564.38-1.06-.91-.069-1.136-.657.1-1.06-.024-1.271-.507-.447-1.29-.518-.96.705-1.139.022.079-.752-.276-1.034-.658-.094-1.566.682a4.345,4.345,0,0,1-1.845.941c-.758.331-.758.518-.581.777s.809,1.388,1.339,1.506.91-.236,1.718-.236.961.118.759.424-.759.613-1.742,1.6-.685.8-.354,1.2a7.023,7.023,0,0,1,1.162,1.67c.354.776,0,1.058-.05,1.5a2.057,2.057,0,0,0,.53,1.837c.657.7.2.47.125.729s-1.187,2.281-1.692,3.294-.506,1.105-2.148,2.259a6.8,6.8,0,0,1-3.259,1.434,10.881,10.881,0,0,0-2.1.613c-.454.189-.278.564-.327.8s-.481.024-.407-.329.027-.613-.2-.705a1.433,1.433,0,0,0-1.667.328c-.733.707-1.619.754-1.922,1.649s-.251.588.078.964a17.025,17.025,0,0,1,2.3,2.728,5.313,5.313,0,0,1,.481,2.331c.024.894-1.821,2.541-2.628,3.082s-.986,1.059-.859.211-.353-1.34-.935-1.976a7.069,7.069,0,0,0-2.679-1.224c-.327-.07.127-.586-.1-.564s-.756-.117-.68.707-.531.564-.657,1.389-.279,1.669.251,1.6.43.73.834,1.624.251.4,1.264,1.222.758.682.986,1.507a5.4,5.4,0,0,0,.658,2.047c.5.753.53.917-.3.493a4.771,4.771,0,0,1-1.844-1.458,14.038,14.038,0,0,1-.732-2.494c-.2-.659-1.566-1.435-2.021-1.907s-.177-.846.05-1.929a7.79,7.79,0,0,0-.177-2.776,19.292,19.292,0,0,0-.859-3.13c-.253-.623-.152-.541-.543,0s-.693.871-1.073.871-.935-.059-.885-.307.43-1.187.317-1.541a4.437,4.437,0,0,0-1-1.882,4.056,4.056,0,0,1-1.478-1.882c-.341-.928-.43-.658-1.087-.176a6.844,6.844,0,0,1-2.881.6c-.72.059-.126.412-.3.764s-1.023.811-2.728,2.589-1.963,1.835-2.4,2.024-.718.129-.7.857a10.939,10.939,0,0,1-.006,1.778,3.791,3.791,0,0,1-.464,1.332,7.874,7.874,0,0,0-.444,1.561,2.238,2.238,0,0,1-1,1.246c-.555.4-.555.329-.809-.258s-1.566-2.847-2.627-4.963a6.049,6.049,0,0,1-.91-3.108c-.1-.612-.12-4.283-.075-4.564.027-.156-.513.431-.665.729s-.144.66-.749.715-.733.063-1.305-.51-.835-.893-.734-.878a3.151,3.151,0,0,0,1.139-.251c.379-.189.251-.393.251-.393s-.411.046-.9.071-.27-.11-.917-.368-.792-.283-.9-.572-.269-.7-.363-.919-.168-.235-.277-.508-.42.046-1.12.063-.54.046-1.382.376a3.438,3.438,0,0,1-1.92.181,6.077,6.077,0,0,1-2.1-.6,5.551,5.551,0,0,0-1.263-.2c-.708-.1-.555-.462-.733-.761s-.47-.37-1.4-.3a2.954,2.954,0,0,1-1.48-.118c-.522-.14-.565-.329-1-.769s-.294-.093-.581-.322a2.436,2.436,0,0,1-.8-1.151c-.228-.612-.177-.746-.439-1.027s-.243-.212-1.062-.212-.444.054-.546.11a5.432,5.432,0,0,0-.581.7c-.227.281.184.675.513,1.06s.042.344.565.924.344.526.716,1.333.606,1.012.689,1.256.161-.095.246-.315a3.579,3.579,0,0,0-.034-1,5.011,5.011,0,0,1,.3.91c.144.579.043.587.144.958s0,.32.631.32a6.279,6.279,0,0,0,1.719-.14c.7-.164,1-.8,1.33-.989s.33-.847.548-.776.009.776.211,1.238.253.3.741.5.622.322,1.119.51.16.212.43.707.254.219.514.392.16.047-.025.636a1.979,1.979,0,0,1-.657,1.074c-.439.478-.439.33-.505.314s-.2-.352-.2-.352a3.706,3.706,0,0,0-.32,1.239c-.042.666.219.422-.581.744a6.374,6.374,0,0,0-1.592.723c-.31.266-.31.62-.488.791s-.423.016-.96.2a1.817,1.817,0,0,0-.843.495c-.454.345-.051.314-.63.533a12.928,12.928,0,0,1-2.165.785c-.532.054-.422.195-.556.39s-.145.3-.818.4a8.494,8.494,0,0,0-1.929.4c-.414.2-1.019.658-1.456.571s-.321-.1-.463-.493a4.72,4.72,0,0,1-.287-1.318,6.162,6.162,0,0,0-.666-2.243c-.37-.62-.363-.659-.766-1.31a5.481,5.481,0,0,0-1.027-1.451c-.353-.25-.529-.266-.7-.454s-.067-.832-.243-1.381a4.411,4.411,0,0,0-.556-1.388,6.72,6.72,0,0,1-1.027-1.309c-.361-.652-.387-.723-.908-1.726s-.71-1.131-1.054-1.8-.118-.542-.244-.943-.455.651-.715.856-.4.1-.607-.495-.388-1.121-.548-.885-.286.469-.068,1.106.322.5.607,1.1,1.069,2.12,1.389,2.746a4.351,4.351,0,0,1,.49,1.27,2.57,2.57,0,0,0,.857,1.458c.4.393.33.189.507.832a8.033,8.033,0,0,1,.135,1.79c.024.39.243.6.715.987s.235.251.454.667a9.371,9.371,0,0,1,.566,1.411,1.242,1.242,0,0,0,.646.871,6.31,6.31,0,0,0,.843.338c.371.133.242.226.5.548s.742.565,1.046,1.076.1.359.082.854-.175.266.044.526a6.609,6.609,0,0,0,1.236.893c.641.424.129.126.7.11a5.649,5.649,0,0,0,1.307-.3c.613-.134,1.406-.361,2.164-.542s1.5-.3,1.887-.424.4.3.1.958-.437,1.207-.689,1.741-.346.58-.532,1.012-1.433,2.195-1.691,2.752a6.849,6.849,0,0,1-.952,1.468,20.512,20.512,0,0,1-2.122,1.748c-.556.447-.414.447-.826.973s-1.667,1.984-2.006,2.5a10.852,10.852,0,0,0-.782,1.215c-.251.51-.967,1.23-1.01,1.6s-.446.416-.144.738.463.376.573.783-.338.871-.05,1.617.083.212.514.807a2.793,2.793,0,0,1,.453,1.844,9.575,9.575,0,0,1-.05,2.3,10.65,10.65,0,0,1-.513,1.443c-.193.51-1.256.856-1.88,1.129s-.6.164-.884.51a11.513,11.513,0,0,0-1.389,1.6c-.28.534-.489.478-.379.817s.343.776.631,1.4.085.579.016,1.121-.059.455-.134,1.113-.85.674-1.735,1.019-.564.174-.666.651a19.319,19.319,0,0,0-.075,1.984c-.034.565-.3.337-.783,1.036s-.673,1.029-1.187,1.867A3.062,3.062,0,0,1,255.9,198.5c-.647.525-1.162.658-1.447,1.263s-.616.2-2.005.651a3.69,3.69,0,0,1-1.7.376c-1.323.149-1.8.251-2.494.376s-.608-.038-1.037-.508-.5-.433-.688-.825-.051-.486-.111-1.193a1.874,1.874,0,0,0-.378-1.169,6.754,6.754,0,0,1-.532-1.207,5.7,5.7,0,0,0-.734-1.363c-.319-.471-.411-.322-.705-.628a1.535,1.535,0,0,1-.372-1c-.066-.431-.168-1.45-.31-2.526s-.017-.5-.186-.956-.371-1-.657-1.608a8.654,8.654,0,0,0-.623-1.193,7.178,7.178,0,0,1-.674-1.293c-.278-.652-.319-.363-.336-.613s.142-.705.16-1.144.161-.949.268-1.624-.149-.666.137-1.129a7.417,7.417,0,0,0,.767-1.412,2.5,2.5,0,0,0,.159-1.215,2.209,2.209,0,0,0-.269-1.169c-.2-.556-.278-1.208-.522-2.1a5.384,5.384,0,0,1-.271-1.208,8.3,8.3,0,0,0-.37-1.593c-.168-.469-.251-.281-.622-.587s-.126-.174-.446-.511-.262-.447-.573-.815a4.548,4.548,0,0,1-.608-.8c-.25-.416-.115-.164-.082-.864s.235-2.031.363-2.8.152-.729-.144-1.051-.506-.784-.733-.862-.775.078-1.574.061-.767-.195-1.111-.6-.8-.957-.963-1.106-.437-.141-1.8-.039-.54.126-1.451.268-1.263.619-1.961.863-.9.18-2.13-.064a3.443,3.443,0,0,0-2.468.55,1.193,1.193,0,0,1-1.381-.173,8.887,8.887,0,0,0-1.424-.919c-.7-.345-.539-.533-1.229-.87s-.464-.353-1.037-.894-.614-1.09-1.01-1.655a18.822,18.822,0,0,0-1.264-1.953,19.57,19.57,0,0,1-1.314-2.156c-.262-.363-.462-.394-.455-.565s.514-1.184.725-1.71.269-.455.361-.784a4.354,4.354,0,0,0-.328-1.8c-.2-.519-.43-1.608-.588-2.117s.082-.518.277-.807a17.307,17.307,0,0,0,1.136-1.787c.481-.9.751-1.334,1-1.751a12.955,12.955,0,0,1,1.214-2.037,12.028,12.028,0,0,1,1.758-1.247c.412-.211.751-.329.818-.518s.243-1.741.363-2.392-.042-1.011.43-1.263,1.23-.722,1.626-.942.454-.549.656-1.026.287-1.082.591-1.28.219.087.614.353a1.618,1.618,0,0,0,.649.33c.185.047.353-.151.818-.156a1.147,1.147,0,0,1,.791.2c.276.148.125.149.919-.337a12.519,12.519,0,0,1,2.459-1.169,10.708,10.708,0,0,1,2.222-.651c.481-.056.236.007.776.22s.564.3.673.147.463-.6.69-.579.489.11,1.07.212a1.475,1.475,0,0,0,1.062-.079c.234-.126.537-.376.6-.376a9.764,9.764,0,0,1,.961.322c.4.148.412.171.329.273a2.086,2.086,0,0,0-.395.651c-.195.439-.1.2.082.667s.321.439.236.776-.463.651-.741.98-.21.385.473.77a9.632,9.632,0,0,0,1.288.665,9.35,9.35,0,0,0,1.692.486c.893.266.783.3,1.095.66s.329.705.868.892a11.258,11.258,0,0,1,1.424.385,2.774,2.774,0,0,0,.987.558c.419.078.418.133.622-.174s.37-.579.3-.738-.3-.4-.255-.548a10.358,10.358,0,0,1,.514-.924c.111-.181.389-.229,1.054-.261s1.128-.125,1.238.266.083.213.6.425.565.211.995.376.211.4.43.383a2.612,2.612,0,0,1,.976.071,7.272,7.272,0,0,0,1.927.5,1.985,1.985,0,0,0,1.206-.261c.117-.053.673-.736,1-.265s.756.478,1.581.431.834-.171,1.019-.385a5.692,5.692,0,0,0,.843-1.56c.159-.549.6-1.748.715-2.29a3.24,3.24,0,0,0-.05-1.286,1.778,1.778,0,0,1,.161-.9c.125-.36-.4-.141-.608-.071s-.269-.11-.462-.166-.4-.1-.54.261-.076.541-.85.5-.631-.087-.885-.361a2.181,2.181,0,0,0-1.027-.447c-.345-.1-.378-.087-.4.133s-.032.368-.285.455a2.193,2.193,0,0,1-1.307-.243,3.14,3.14,0,0,1-1.095-.8c-.473-.462-.4-.462-.6-1.176a3.115,3.115,0,0,1-.109-1.537c.082-.212.219-.275-.144-.164s-.607.171-.363-.368.47-.565.725-.637a6.863,6.863,0,0,1,1.119-.109,2.711,2.711,0,0,0,1.019-.345c.169-.071.515-.189.337-.235s-.707-.1-.615-.251.152-.14.438-.171.733-.049,1.113-.071.6.046.732-.181a1.845,1.845,0,0,1,.58-.745c.3-.181.615-.087,1.391-.118s.654.156.908.337.422.094.751.158.126.258.378.36.717.205,1.28.385.195.1.884.1a4.751,4.751,0,0,0,1.215-.087,2.448,2.448,0,0,0,1.162-.572c.387-.273.117-.871-.026-1.333s-.751-.76-1.029-.972-.875-.887-1.194-1.161a5.47,5.47,0,0,0-1.046-.549c-.353-.2-.985-.519-1.044-.777s.136-.265.658-.392.354-.235.453-.511.144-.266.573-.423-.5-.486-.623-.666.286-.126.716-.228a.584.584,0,0,0,.522-.486c.06-.181.041-.266-.463-.258a9.774,9.774,0,0,0-2,.447c-.851.226-.462.235-.976.635s-.548.227-.48.447.1.431.622.707.3.281.447.322.5.093.337.141-.3.3-.54.3-.338.243-.741.47a2.134,2.134,0,0,1-.876.307c-.294.046-.505-.048-.463-.55s-.152-.163-.463-.28a1.154,1.154,0,0,1-.43-.253,3.563,3.563,0,0,0,.624-.306,1.2,1.2,0,0,0,.606-.7c.151-.385-.337-.174-.69-.22s-.254-.079-.6-.125a.653.653,0,0,1-.481-.321,1.067,1.067,0,0,0,.455.03c.294-.03.228-.109.336-.189s.2-.148.11-.148-.446.039-.689.023a2.625,2.625,0,0,0-.742,0c-.354.054-.211.188-.463.352a.905.905,0,0,0-.395.464c-.134.242-.178.2-.27.36a2.166,2.166,0,0,0-.085.815.794.794,0,0,1-.228.572c-.16.22-.16.126-.43.258s-.091.228-.125.495-.126.37-.153.715-.16.36-.37.6-.329.242-.345.493a3.005,3.005,0,0,0,0,.847c.059.486.193.361.573.856s.58.306.445.556-.109.158-.573.1-.537.016-.873.338-.407.5-.583.62-.117-.236-.184-.4-.843-.219-1.374-.378a6.362,6.362,0,0,0-.809-.25,1.5,1.5,0,0,0-.9.276c-.556.3-.43.482-.392.881s.48.482.353,1.422.468.507.72,1.083.026.529-.126.6-.3.564-.417,1.036.012.529-.126.506-.3.082-.569-.307-.48-.022-.518-.246-.367-.6-.24-1.118.328-.565-.127-.835-.339-.307-.555-.859a3.1,3.1,0,0,0-.681-1.164c-.418-.506-.381-.365-.266-.871a2.125,2.125,0,0,0-.051-1.517,8.459,8.459,0,0,0-2.16-1.788c-.859-.458-1.036-.105-1.415-.835s-.554-1.494-1.186-1.941-.315-.482-.922-.258-.62.319-.569.493a1.511,1.511,0,0,1,.1.9c-.089.481-.214.329.418.7s.366.3.682.988a3.468,3.468,0,0,0,.62,1.106,1.441,1.441,0,0,0,.973.672c.63.14.529-.036.693.117s-.442.211-.328.283a5.855,5.855,0,0,0,.783.6,4.154,4.154,0,0,1,1.214.929c.139.259.606,1.235-.076.517s-.694-.387-.884.107.175.871.152,1.236-.342.224-.557.517-.328.648-.581.836-.176-.212-.314-.212-.19.176-.367.517,0,.483.075.942.2.495-.291.471-.379-.483-.833-.789-.719-.2-1.1-.437.164-.293,1.112-.41,1.061-.212,1.352-.434.189-.284.505-.73,0-.624-.215-1.166a1.978,1.978,0,0,0-.758-.893,7.706,7.706,0,0,1-.732-.729,1.771,1.771,0,0,0-1.049-.471c-.48-.118-.392-.554-.657-.682a9.135,9.135,0,0,1-1.137-1.07c-.6-.564-.378-.989-.656-1.481s-.556-.871-1.163-.871-1.061.423-1.668,1.011-.48.87-1.187.424-.959-.4-1.466.023a1.852,1.852,0,0,0-.6,1.693c0,.847-.607.495-1.087.729s-.909.825-1.641,2.214.05.729-.1,1.2.051.848-.63,1.458-.38-.07-.783.425a1.975,1.975,0,0,1-1.921.776c-.961-.118-.683.258-1.29.4s-.934.353-.783-.33.025-.587-1.136-.541-1.567.353-1.466.189a4.018,4.018,0,0,0,.28-1.106c.127-.658.3-.871.127-.871s-.558.1-.279-1.082a4.124,4.124,0,0,0,.251-2.07c-.126-.682.05-1.6-.1-2s.3-.8.1-1.012-.43-.492-.277-.492a10.58,10.58,0,0,1,1.592.164,14.157,14.157,0,0,0,2.122-.072c.48.047,1.491.259,2.5.424s.986-.141.885-1.623.075-2.164-.228-2.471-.63-.283-.959-.682-.076-.988-.783-1.2-1.493-.046-1.112-.188.531-.189.127-.493-.508-.635-.2-.683,1.162-.046,1.162-.046.076.424.532.235,1.036-.375.91-.682-.354-.682-.28-.682a1.532,1.532,0,0,0,1.213.424c.961,0,.885-.141.81-.541s.632-.376,1.112-.707-.177-.705-.075-1.011.657-.5,1.641-.564.809-.236.708-.353.025-.613.1-1.248-.075-.847.43-1.153.353-.188,1.39-.284.4-.328.58-.375,1.414-.353,1.642-.448.2-.069,0-.518a6.077,6.077,0,0,1-.707-2.774c-.228-2.071-.177-2.071,1.085-2.448s.987-.258.884.894-.656,1.153-.783,2a2.945,2.945,0,0,0,.506,2.26c.532.894.481.446,1.617.446s.884.281,1.641.541.505-.47,1.239-.73.58.166,2.3-.094c.656-.1.879-.122.93-.126-.052,0-.241.006-.046-.109.405-.235.506-.659,1.088-.73s.985.166.959-.73-.353-.752-.253-1.435.126-.375.177-.917-.074-.635.657-.824.228.659,1.111.847.759.33.912-.352.631-1.576.2-1.529-.529-.023-.959-.659-.681-.776-.4-.776a14.609,14.609,0,0,1,2.549-.212c1.339.046,1.72.164,1.794.023s-.227-.281.228-.564,1.946.14,1.718-.118a3.917,3.917,0,0,0-2.424-.47c-.885.14-3.033.4-3.361.375a2.342,2.342,0,0,1-1.087-.422c-.151-.166-.632-.283-.632-1.06s.279-1.082-.176-1.835.833-1.389,1.718-2.188.658-1.459,1.187-1.506.734-.329.481-.59a5.63,5.63,0,0,0-1.642-1.245c-.455-.094-1.136-.613-1.844.612s.05,1.34.177,1.976-.986,1.106-1.82,1.693-1.136.448-1.39,1.953-.506,1.554.43,2.07,1.112.777.683,1.223-1.34.425-1.9,1.484-.328,1.575-.556,2.047-.934.681-1.137,1.153-.2,1.364-1.06,1.224-.379-1.295-.759-1.885-.682-1.081-1.136-1.809-.1-1.435-.532-1.813a2.1,2.1,0,0,1-.531-1.129l-.151.353a3.9,3.9,0,0,1-.935,1.624,2.553,2.553,0,0,1-2.78.87c-.631-.258-.531-.87-.531-1.647a23.35,23.35,0,0,1-.025-3.035c.127-1.224.482-1.129,1.821-1.93s1.363-.753,1.692-1.271a11.28,11.28,0,0,1,1.843-1.718,12.342,12.342,0,0,0,2.022-3.529c.506-1.27,1.439-2.047,2.349-3.41a10.19,10.19,0,0,1,4.6-3.434c2.071-.871,1.719-.966,2.2-1.649s.685-.281,1.492-.446.682,0-.126.8-1.161,1.648-.48,1.012,1.212-1.389,2.274-1.34.631,0,1.668.47,1.213.517.634.893a2.949,2.949,0,0,1-1.568.284,1.633,1.633,0,0,0,1.288.894c.96.117,1.491-.754,2.122-.425s.81.564-.051.495-1.111.47-.05.847a8.86,8.86,0,0,0,2.552.612c1.389.189,2,1.2,3.057,1.647s2.3.071,1.947,1.037.277,1.905-1.567,2.353-1.8-.142-3.335-.613a27.235,27.235,0,0,1-2.627-.942,9.976,9.976,0,0,0,1.111,1.2c.707.658.783,1.27.707,2.471s-.4,1.529.81,2.116,1.037.424,1.414.33,1.01-.212.858-.4a1.806,1.806,0,0,0-.682-.729.448.448,0,0,1-.024-.848c.4-.212.782.188,1.667.141s0-.329.43-.775.456-1.2,1.492-1.6,2.145.189,2.426-.257a1.207,1.207,0,0,0,0-1.648c-.583-.682-1.037-.916-.683-1.248s1.062-1.2,1.391-.7,1.162,1.036.1.941-.33,1.578.631,1.483.884-.4,1.668-.776a33.527,33.527,0,0,1,3.41-2c1.086-.378,1.314-.283,1.742-.094a1.6,1.6,0,0,0,1.619.306c1.187-.235,1.541-.518,2.651-.707s-.075.4.43.564.556.307.936.049,1.592-.683,1.037-1.106-.963-.707-.963-.707a1.511,1.511,0,0,1,1.466-.822,9.736,9.736,0,0,1,3.715,1.764,14.94,14.94,0,0,1,2.3,2.211,2.768,2.768,0,0,0,.074-2.071c-.379-1.293-1.339-.987-1.339-2.21s-.885-.9-.58-1.765,1.162-1.2,1.391-2.307.429-2.021,1.212-2.021,2.475.235,2.475.235a7.207,7.207,0,0,1-.632,2.518c-.63,1.5.329,1.67.178,3.505s-.178,2.07.253,2.494,1.239.942.935,1.74a2.315,2.315,0,0,1-1.592,1.742c-1.137.446-2.577.189-2.048.542a5.033,5.033,0,0,0,1.971.775c.759.118.379-.046.985-.541s1.971-1.483,1.921-1.953-.783-1.2-.277-1.553.705-.893,1.49-.447,1.542,2.119,1.542,2.048a4.64,4.64,0,0,0-1.085-2.588c-.936-.942-2.477-.049-2.477-.87a25.373,25.373,0,0,0,.328-2.848c-.1-.893-.453-1.788.126-2.563a2.768,2.768,0,0,0,.607-1.389,3.31,3.31,0,0,1,.05,1.646c-.2.917.1,1.459.531,1.459s2.35.024,1.315-.281-1.339-.59-.3-1.154.986-.189,2.5.164a14.593,14.593,0,0,0,2.376.588c.505-.023.43-.071.251-.517a2,2,0,0,0-.884-1.06c-.481-.306-.807.071-.959-.4s-.43-1.647-.557-2.093.38-.095,1.187-.095,3.007-.117,4.7-.164.027-1.812-.1-3.058,3.133-1.295,4.724-1.529a48.518,48.518,0,0,0,6.418-.871c2.982-.707,1.062-.588,1.491-1.435a1.975,1.975,0,0,1,2.048-.988c.884,0,1.693.164,1.364.281s-1.314.612.227.943,1.139.3.328.587-.125.8,1.44.8.632-.14.379-.658.229-.33,1.517-.118a3.954,3.954,0,0,1,2.5,1.082c.707.66.833.5,1.085,1.413s-.025.775-1.111,1.623-1.743.848-3.31,1.836-1.188,1.5-2.046,2.164-.632.47,1.186,0a11.752,11.752,0,0,1,3.74-.682c.934.094,1.389.447,2.1.447a14.147,14.147,0,0,0,2.174.117c2.222,0,1.893,0,1.085.636s.152.824,1.136.824a22.44,22.44,0,0,0,3.107-.094c.913-.141.129-.824,1.215-.871s1.439-.141,2.6-.141.81.471,1.214.894.959.705.58,1.553-.58.869-.354,2.022.81,1.317,1.517,1.529.707-1.033,1.39-1.458.834.847,1.617.659a4.635,4.635,0,0,1,2.349.117,3.82,3.82,0,0,0,2.224.118c.959-.212.657-.587.329-1.176s-.354-.542.251-1.154,1.011-.306,2.982.211,1.34.518,2.451.825a10.559,10.559,0,0,1,2.451,1.012c1.692.776,1.364,1.693,2.147,2.187s.834,0,2.4-.14,1.541.188,3.258.636,1.263,1.01,1.263,1.506-.48.871.581,1.105a4.333,4.333,0,0,0,2.4.212c.91-.235.1.234,2.123.258s1.339-.235,1.946.189.758,1.271,1.742,1.177.91-.071.506-.942-.658-1.014-.075-.989,1.768.283,3.965.636,2.274.753,4.069,1.882a39.538,39.538,0,0,1,3.613,2.236,3.037,3.037,0,0,1,.61.525,3.178,3.178,0,0,1,.679.275c1.413.659,1.162.448,2.375,1.036a13.739,13.739,0,0,1,2.246,1.412S396.471,97.705,395.562,97.8ZM277.681,121.714s-.134.18.573-.386-.33-.023-.734-.141-.532-.307-.4-.822-.052-.519-.482-1.2c0,0-.227-.14-.705.141s-.759-.281-1.34-.071-1.213.118-1.567.989-.758.3-.883,1.01-1.214,1.082-1.214,1.082.431.425.758.825.1.142.43,1.459.557,1.2,1.011,1.388a10.014,10.014,0,0,1,1.162.636s-.429-.259-.429.447-.683,1.2-.607,2.234-.935,2-.126,2.1.556.446,1.44.681a8.3,8.3,0,0,0,2.679.4c1.287,0,.58-.495.4-1.224a9.995,9.995,0,0,1-.328-2c-.051-.8-.354-.59-.556-1.082s.1-.777.707-.777.683-.024.354-.565-.125-.753-.533-.988-.579.777-.579.777-.253-.235-.152-1.224.177-.517-.125-.705-.482.046-.886-.612-.05-.518-.529-1.317-.228-.378.3-.378.253-.118,0-.375-.429-.66.253-.613,1.567.188,1.895.212S277.681,121.714,277.681,121.714ZM183.42,85.461c-.233.4.395.917.851.758s.6.017.863-.19.283-.51-.024-.809-.184-.474-.235-.505C184.294,84.359,183.654,85.059,183.42,85.461Zm124.9-25.942c-.683.023-1.442.047-.809.259s.379,1.271,1.59.681.96-.635,1.8-.988.351-.183-.657-.446C309.608,58.861,309,59.5,308.32,59.519Z" transform="translate(-1554 22074)" fill="#38b0ba" opacity="0.235"/>
    </g>
  </g>
</svg>
