<svg xmlns="http://www.w3.org/2000/svg" xmlns:xlink="http://www.w3.org/1999/xlink" id="Layer_1" x="0px" y="0px" viewBox="0 0 220 73" style="enable-background:new 0 0 220 73;" xml:space="preserve"> <style type="text/css"> .st0{fill:#5A49F8;} </style> <g> <polygon class="st0" points="62.5,40.6 75.8,40.6 76.4,38.1 63.2,38.1 "></polygon> <polygon class="st0" points="63.8,35.7 77.1,35.7 77.7,33.3 64.4,33.3 "></polygon> <path class="st0" d="M59.3,53.3c-0.4-7.9-0.8-15.5-1.3-22L55.6,4.1H44.3L30.5,31.7c-3.7,7.4-7.9,16.5-11.7,25.4h-0.3 C20.4,47,21.9,37.8,23,30.5l4.1-28.1h-14L4,70.1h19.6l12.6-25.6c2.9-6.1,6.5-14.2,9.1-21.5h0.4c0.1,7.3,0.8,15,1.2,21.4L49,70.2 h19.4l0,0l0,0v-0.1l6.8-27H61.9L59.3,53.3z"></path> <path class="st0" d="M116.9,2.5l-12.6,25.8c-2.9,6.1-6.5,14-9.1,21.7h-0.4c-0.1-7.7-0.8-15.2-1.2-21.6L91.5,2.5H72.1l0,0l0,0v0.1 l-7,27.8h13.3l2.8-11c0.4,7.9,0.8,15.9,1.3,22.4l2.4,27.6h11.3L110,41.5c3.7-7.4,7.9-16.7,11.7-25.6h0.3 c-1.9,9.7-3.4,19.1-4.5,26.4l-4.1,27.9h14.1l9.1-67.7H116.9z"></path> </g> </svg>